<svg width="462" height="363" viewBox="0 0 462 363" fill="none" xmlns="http://www.w3.org/2000/svg">
<path d="M211.298 326.587C191.698 297.087 140.898 285.387 100.298 292.387C70.7977 258.887 -1.20229 266.887 23.8977 288.887C23.8977 288.887 -15.5023 284.587 11.3977 313.187L4.99771 311.787C11.5977 331.587 29.0977 346.387 48.5977 354.087C68.0977 361.687 114.698 366.987 145.998 350.687C144.598 348.487 143.298 346.287 141.898 344.087C162.798 350.787 226.198 348.987 211.298 326.587Z" stroke="#F6DDEC" stroke-width="3" stroke-miterlimit="10" stroke-linecap="round" stroke-linejoin="round"/>
<path d="M455.698 233.088C451.298 229.988 445.198 231.988 440.198 234.288C433.098 237.588 417.698 247.288 417.698 247.288C413.898 244.488 409.798 241.488 405.098 240.788C400.398 239.988 394.798 242.288 393.498 246.788C392.698 249.588 393.398 253.088 391.398 255.288C390.498 256.288 389.098 256.788 387.798 257.388C383.898 259.088 374.198 263.688 376.498 269.988C379.698 278.788 425.298 273.288 444.298 268.388C446.498 267.788 448.798 267.188 450.798 265.888C455.698 262.688 457.398 256.488 458.698 250.788C460.098 244.588 460.898 236.788 455.698 233.088Z" stroke="#F6DDEC" stroke-width="3" stroke-miterlimit="10" stroke-linecap="round" stroke-linejoin="round"/>
<path d="M140.898 124.487C137.998 125.087 135.198 126.787 133.998 129.387C133.698 129.987 133.498 130.688 133.698 131.288C133.898 131.988 134.598 132.388 135.198 132.788C137.798 134.488 140.498 135.987 143.198 137.387C138.498 139.687 133.798 142.088 129.798 145.488C125.798 148.888 122.498 153.287 121.398 158.387C120.998 160.387 121.298 162.988 123.298 163.488C124.198 163.688 124.998 163.388 125.898 163.088C131.098 161.088 136.198 158.687 140.998 155.887C138.998 159.287 134.798 161.888 135.298 165.788C135.598 167.988 137.598 169.687 139.698 170.387C141.798 171.087 144.098 170.888 146.398 170.788C151.298 170.488 156.198 170.088 160.798 168.588C163.798 167.588 167.098 164.887 165.998 161.887C165.498 160.587 164.298 159.787 163.298 158.887C158.398 154.987 155.298 149.188 153.398 143.288C151.798 138.188 151.598 132.988 150.398 127.788C149.298 123.188 145.398 123.487 140.898 124.487Z" fill="white"/>
<path d="M403.898 161.687C398.598 156.087 392.098 153.087 384.698 150.787C377.698 148.687 370.198 148.587 362.798 148.887C364.498 148.787 367.298 146.787 368.998 146.187C371.598 145.187 374.198 144.487 376.898 143.887C381.698 142.887 386.498 142.787 391.298 141.887C393.298 141.487 395.398 140.487 395.898 138.587C396.198 137.087 395.398 135.587 394.298 134.687C393.098 133.787 391.698 133.287 390.198 132.787C386.098 131.487 381.998 130.087 377.898 128.787C374.498 127.687 371.498 127.288 367.898 127.488C358.998 127.988 349.498 128.887 340.698 130.687C343.498 152.287 342.498 174.387 337.798 195.587C335.498 206.187 332.198 216.687 328.098 226.787C325.998 231.987 323.698 236.988 321.098 241.988C318.898 246.188 315.098 250.887 314.298 255.587C314.198 256.087 314.198 256.587 314.498 256.887C314.798 257.187 315.398 257.187 315.798 257.087C319.498 256.487 322.898 254.487 325.698 252.087C333.598 245.287 337.998 232.087 340.198 222.187C342.898 229.487 341.698 237.487 342.498 245.187C342.698 247.087 343.098 249.087 344.598 250.187C345.898 251.187 347.698 251.087 349.298 250.687C357.398 248.487 360.998 235.687 362.498 228.387C364.498 218.887 364.098 208.887 360.898 199.687C366.798 203.987 372.098 209.387 376.298 215.287C378.398 218.187 380.298 221.387 382.998 223.787C384.398 225.087 386.398 226.188 388.198 225.488C388.998 225.188 389.698 224.487 390.298 223.787C395.698 217.487 396.498 207.588 392.198 200.488C386.998 191.888 383.798 182.987 375.598 177.287C384.398 172.787 394.998 173.887 404.498 176.787C405.198 176.987 405.998 177.188 406.698 176.988C407.898 176.588 408.298 175.087 408.398 173.787C408.598 169.487 406.898 164.887 403.898 161.687Z" fill="white"/>
<path d="M148.298 126.387C144.198 125.087 134.898 125.087 133.398 128.587C133.298 128.887 133.698 129.287 134.198 129.087C137.898 128.087 142.398 127.287 146.098 128.787C148.498 129.787 150.798 127.187 148.298 126.387Z" fill="white"/>
<path d="M408.998 173.288C407.198 166.088 401.898 159.987 395.898 155.887C390.998 152.587 383.798 148.787 377.798 150.587C377.198 150.787 379.698 151.288 380.398 151.488C393.598 154.888 400.698 163.787 403.498 175.687C403.798 176.987 405.098 177.787 406.398 177.887C406.498 177.887 406.498 177.887 406.598 177.887C409.198 178.087 409.998 175.087 408.998 173.288Z" fill="white"/>
<path d="M388.898 192.187C388.498 191.487 387.298 191.988 387.598 192.788C389.198 197.688 390.798 202.788 391.098 207.988C391.398 213.788 390.398 217.787 386.898 222.387C385.398 224.387 388.298 226.787 390.198 225.687C400.298 219.787 393.098 199.787 388.898 192.187Z" fill="white"/>
<path d="M370.498 126.587C365.298 126.587 359.798 126.788 354.598 127.488C351.998 127.888 349.398 128.688 346.898 129.288C344.998 129.788 342.298 129.888 341.298 131.288C340.798 131.988 340.598 136.788 341.698 136.488C363.098 129.888 380.798 131.387 394.898 136.387C395.598 136.687 396.698 136.487 396.598 135.887C395.298 127.887 378.798 126.587 370.498 126.587Z" fill="white"/>
<path d="M276.298 20.4875C286.698 25.1875 296.598 31.3875 303.998 39.9875C311.398 48.5875 316.198 59.9875 315.198 71.2875C307.498 64.5875 299.798 57.8875 291.398 52.0875C287.498 49.3875 282.798 47.2875 279.098 44.1875C276.798 42.1875 276.298 39.8875 275.698 36.9875C275.098 34.1875 274.698 31.4875 274.798 28.5875C274.898 27.9875 275.998 20.2875 276.298 20.4875Z" fill="white"/>
<path d="M298.598 33.6875C297.998 31.0875 288.898 26.3875 286.798 25.3875C284.298 24.1875 281.198 22.6875 278.298 22.5875C274.498 22.4875 274.498 28.4875 278.298 28.4875C280.898 28.4875 298.698 34.1875 298.598 33.6875Z" fill="white"/>
<path d="M157.198 43.6875C166.698 43.4875 176.698 44.7875 184.298 50.3875C183.598 49.8875 174.998 59.4875 174.098 60.3875C172.298 62.4875 167.898 70.4875 165.098 70.4875C161.198 70.4875 159.698 61.6875 158.998 58.9875C157.698 54.0875 157.098 48.8875 157.198 43.6875Z" fill="white"/>
<path d="M172.898 46.0875C170.498 44.7875 167.998 44.7875 165.298 44.5875C162.898 44.3875 159.898 43.9875 157.598 45.0875C154.998 46.3875 156.798 50.9875 159.598 49.8875C161.798 49.0875 173.398 46.2875 172.898 46.0875Z" fill="white"/>
<path d="M301.398 273.687C310.298 263.887 316.798 252.987 322.298 241.187C328.498 227.987 333.998 214.487 337.198 200.287C338.698 193.487 339.698 186.488 340.398 179.488C341.098 172.688 340.698 165.387 341.898 158.687C344.098 146.387 339.998 132.587 336.898 120.587C335.298 114.587 333.598 108.588 331.498 102.787C320.898 73.8875 298.598 48.9875 269.898 37.8875C261.698 34.6875 253.498 33.8875 244.898 33.7875C235.898 33.6875 226.898 32.0875 217.998 33.3875C207.698 34.9875 198.298 41.2875 189.698 46.6875C181.198 52.0875 174.098 59.5875 167.898 67.3875C164.798 71.2875 161.798 75.2875 159.498 79.6875C154.598 88.6875 152.098 98.8875 150.598 109.087C149.198 118.287 148.098 127.887 150.898 136.887C153.598 145.487 158.098 154.287 164.698 160.587C165.598 161.387 166.698 162.287 167.798 162.087C166.198 164.287 164.498 166.387 162.498 168.287C154.298 176.087 140.198 170.487 128.898 171.587C112.098 173.287 98.5978 182.387 88.8978 195.988C78.3978 210.588 76.4978 229.787 77.7978 247.687C78.8978 262.587 82.1978 277.887 89.8978 290.887C98.3978 305.187 113.198 314.087 127.598 321.687C131.398 323.687 135.398 325.487 139.498 327.087C145.498 329.387 151.798 330.987 158.198 332.087C194.598 338.587 231.598 331.488 262.298 310.788C269.898 305.688 276.998 299.788 283.498 293.288C289.598 286.888 295.498 280.187 301.398 273.687Z" fill="white"/>
<path d="M199.998 45.0875C191.198 44.1875 183.198 52.1875 177.298 57.7875C170.098 64.5875 164.198 72.6875 159.598 81.4875C150.598 98.4875 145.398 117.787 151.898 136.387C152.098 137.087 151.698 134.787 151.598 134.087C148.198 116.787 157.098 100.787 165.098 85.5875C168.998 78.0875 173.898 70.9875 179.798 64.9875C185.698 58.9875 192.498 52.1875 200.598 49.3875C202.898 48.5875 202.398 45.2875 199.998 45.0875Z" fill="white"/>
<path d="M267.798 37.5875C262.098 34.2875 252.898 34.4875 246.498 33.9875C238.498 33.2875 230.598 33.6875 222.698 35.4875C219.198 36.2875 220.698 41.7875 224.198 40.8875C231.798 39.1875 268.398 37.9875 267.798 37.5875Z" fill="white"/>
<path d="M187.698 3.08749L224.098 36.2875C224.098 36.2875 225.998 44.2875 215.198 49.8875C204.398 55.4875 199.198 53.3875 197.098 47.7875C195.098 42.0875 187.698 3.08749 187.698 3.08749Z" fill="white"/>
<path d="M194.798 59.9875C196.798 60.2875 198.798 59.9875 200.798 59.6875C206.298 58.6875 211.698 57.0875 216.398 54.0875C221.098 51.0875 224.998 46.5875 226.298 41.1875C226.598 40.1875 226.598 38.7875 225.698 38.2875C221.398 44.9875 214.698 50.0875 207.098 52.3875C205.198 52.9875 202.898 53.2875 201.198 52.2875C198.298 50.4875 198.698 45.9875 196.398 43.4875C196.198 43.2875 184.398 52.2875 183.498 52.8875C186.898 52.7875 190.198 59.1875 194.798 59.9875Z" fill="#FCF2F8"/>
<path d="M204.998 148.488C211.198 144.888 218.598 137.988 217.398 130.988C216.598 134.588 213.898 137.388 210.698 139.288C208.598 140.588 206.198 141.487 203.798 142.187C197.698 143.987 193.898 143.288 189.698 138.988C184.998 134.188 180.298 135.687 174.598 137.887C172.298 138.787 169.898 138.787 167.598 139.587C167.098 139.787 173.298 144.188 174.198 144.488C177.098 145.288 179.198 144.787 181.998 143.687C185.498 142.287 190.198 149.187 193.998 150.087C197.598 151.087 201.598 150.388 204.998 148.488Z" fill="#FCF2F8"/>
<path d="M203.498 118.688C199.798 114.288 194.998 109.788 188.898 109.688C182.498 109.588 176.098 114.687 171.498 118.887C171.098 119.287 171.498 119.988 171.998 119.788C177.598 117.588 182.498 114.188 188.798 114.688C193.798 115.088 204.398 122.387 204.398 122.387C205.298 122.587 203.998 119.288 203.498 118.688Z" fill="white"/>
<path d="M164.098 270.788C159.498 263.188 151.798 257.887 146.298 251.087C143.198 247.387 141.498 242.988 138.898 238.988C136.498 235.188 133.698 231.287 130.698 227.887C128.998 225.987 126.498 228.687 127.998 230.587C131.398 234.787 132.398 239.588 134.698 244.288C136.598 248.288 139.198 251.887 142.198 255.187C148.098 261.587 155.598 267.187 162.898 272.087C163.598 272.587 164.598 271.588 164.098 270.788Z" fill="white"/>
<path d="M211.398 232.487C209.698 231.887 207.798 230.887 205.898 230.787C204.998 230.687 204.698 231.787 205.198 232.387C206.398 233.787 208.398 234.787 209.998 235.787C212.198 237.187 213.998 233.487 211.398 232.487Z" fill="white"/>
<path d="M218.598 212.087C217.598 207.587 216.398 204.287 213.398 200.887C212.998 200.387 214.998 210.587 215.298 215.187C215.498 218.387 216.198 221.587 216.598 224.787C210.898 226.587 210.698 228.087 212.398 228.687C214.398 229.387 216.598 229.787 218.698 230.187C220.198 230.487 221.898 229.487 221.798 227.787C221.498 222.287 219.798 217.387 218.598 212.087Z" fill="white"/>
<path d="M171.298 126.887C170.498 128.387 170.398 130.287 170.898 131.887C171.098 132.487 171.398 133.187 171.998 133.387C172.298 133.487 172.698 133.487 172.998 133.387C174.598 132.987 175.798 131.687 176.398 130.187C176.998 128.787 177.598 124.388 175.698 123.588C174.098 122.888 171.898 125.687 171.298 126.887Z" fill="#E088BD"/>
<path d="M179.898 101.387C176.698 98.3875 169.698 100.287 165.798 101.487C163.998 101.987 163.898 103.687 165.498 104.387C165.498 104.387 165.498 104.387 165.498 104.487C165.398 105.087 166.198 105.787 166.898 105.887C170.998 106.487 175.998 105.687 179.398 103.787C180.598 103.187 180.798 102.187 179.898 101.387Z" fill="#FCF2F8"/>
<path d="M263.998 186.187C259.198 193.287 254.498 200.988 248.998 207.588C246.398 210.688 238.198 217.087 239.398 221.687C239.598 222.287 240.298 222.988 240.998 222.888C243.998 222.588 252.198 212.587 254.298 209.687C256.598 206.187 264.598 185.187 263.998 186.187Z" fill="white"/>
<path d="M263.998 186.187C259.198 193.287 254.498 200.988 248.998 207.588C246.398 210.688 238.198 217.087 239.398 221.687C239.598 222.287 240.298 222.988 240.998 222.888C243.998 222.588 252.198 212.587 254.298 209.687C256.598 206.187 264.598 185.187 263.998 186.187Z" fill="white"/>
<path d="M244.598 102.387C239.698 99.4875 230.398 97.5875 225.198 101.087C224.898 101.287 224.698 101.487 224.598 101.687C223.398 102.287 223.398 103.788 224.798 104.288C229.698 106.088 241.698 109.787 244.898 104.487C245.398 103.787 245.498 102.887 244.598 102.387Z" fill="#FCF2F8"/>
<path d="M194.998 128.787C194.498 129.787 194.298 130.888 194.398 131.988C194.398 133.088 194.598 134.187 195.198 135.187C195.798 136.087 196.798 136.887 197.898 136.887C199.498 136.887 200.798 135.387 201.298 133.787C201.798 132.387 201.698 130.687 200.998 129.387C199.598 126.787 196.398 125.887 194.998 128.787Z" fill="#E088BD"/>
<path d="M99.5978 140.587C100.598 143.287 101.498 146.088 102.498 148.788C103.098 145.088 104.798 141.587 107.398 138.887C110.098 150.987 112.698 163.088 115.198 175.288C115.198 175.388 102.298 183.487 101.098 184.387C99.1978 185.887 90.8978 195.488 89.1978 194.788C86.2978 193.488 88.2978 180.388 88.4978 177.788C89.0978 171.688 90.1978 165.587 91.8978 159.687C93.6978 153.087 96.2978 146.587 99.5978 140.587Z" fill="white"/>
<path d="M97.7978 166.488C100.598 171.488 105.798 175.287 111.598 175.687C102.598 179.987 94.7978 186.787 89.3978 195.187C90.1978 193.887 88.3978 186.987 88.2978 185.087C88.1978 181.187 88.2978 177.188 88.7978 173.288C89.3978 167.988 90.3978 157.288 94.6978 153.788C94.9978 158.288 95.4978 162.588 97.7978 166.488Z" fill="#FCF2F8"/>
<path d="M143.698 277.387C137.098 272.987 131.898 266.588 128.398 259.488C127.098 256.888 125.998 254.288 124.398 251.988C123.298 250.488 121.898 249.088 120.898 247.488C118.698 243.888 118.298 239.488 118.298 235.288C118.298 245.688 116.298 255.888 116.298 266.288C116.298 271.988 116.798 277.987 120.098 282.587C125.598 290.387 143.898 296.787 152.998 294.187C158.698 292.587 163.498 288.288 166.298 282.988C158.498 284.088 150.298 281.787 143.698 277.387Z" fill="#FCF2F8"/>
<path d="M261.898 174.687C250.098 179.887 236.998 182.388 224.598 181.288C219.198 180.788 213.898 179.688 208.798 177.988C209.098 181.688 208.698 185.487 207.798 189.087C200.698 185.587 194.798 179.387 191.598 172.087C181.298 170.587 167.598 166.388 160.498 158.488C157.398 155.088 155.498 150.687 153.898 146.387C149.298 133.787 146.998 119.987 150.098 106.987C152.498 118.887 154.398 133.187 161.798 143.087C167.898 151.287 177.598 156.288 187.498 158.788C230.898 169.788 282.098 155.588 306.098 115.788C305.098 130.588 298.798 145.088 288.698 155.988C281.398 163.788 272.098 170.187 261.898 174.687Z" fill="#FCF2F8"/>
<path d="M278.398 167.187C287.898 158.387 292.998 158.787 300.898 144.087C306.398 133.987 307.998 122.087 307.698 113.387C301.298 127.787 293.698 141.388 283.598 153.488C276.698 161.688 266.798 166.988 256.498 169.988C246.198 172.988 235.398 173.888 224.798 174.788C221.398 175.088 217.998 175.387 214.598 175.687C211.998 175.887 208.798 174.487 206.298 173.887C205.598 175.787 207.398 177.688 208.998 178.788C223.698 188.888 242.298 189.287 258.998 184.187C260.898 183.587 262.898 182.887 264.498 181.687C266.398 180.287 267.798 178.287 269.398 176.387C272.098 173.187 275.198 170.087 278.398 167.187Z" fill="#FCF2F8"/>
<path d="M295.998 187.687C288.798 192.387 281.798 197.388 275.098 202.788C269.398 207.388 263.898 212.188 258.598 217.288C254.098 221.688 251.198 226.188 244.598 227.488C245.398 225.388 246.198 223.287 246.798 221.087C244.998 222.187 242.898 222.988 240.798 223.288L237.598 223.387C238.598 225.187 240.798 226.288 242.798 225.788C240.498 229.288 239.698 233.688 240.398 237.788C245.498 238.788 250.998 237.687 255.498 234.887C256.998 233.987 258.398 232.787 260.098 232.387C261.498 232.087 263.098 232.288 264.498 232.488C273.498 233.288 282.498 229.388 289.698 223.988C296.798 218.688 302.698 211.888 306.998 204.288C309.098 200.488 311.998 196.087 312.598 191.687C312.998 188.987 312.398 188.287 311.698 186.087C311.398 185.187 309.498 185.488 309.198 183.988C308.898 182.588 310.898 179.588 311.498 178.288C306.298 181.288 301.098 184.387 295.998 187.687Z" fill="#FCF2F8"/>
<path d="M277.498 41.6875L269.398 39.7875C298.198 53.7875 316.798 84.3875 321.198 116.087C325.598 147.787 317.098 180.287 302.298 208.687C290.098 232.187 273.498 253.588 252.598 269.788C231.698 286.088 206.498 297.088 180.198 299.488C156.398 301.688 131.598 296.687 112.098 282.887C92.3978 268.887 74.9978 240.588 80.0978 215.488C74.1978 234.088 74.6978 254.688 81.4978 272.988C88.2978 291.288 101.398 307.188 117.998 317.488C136.898 329.188 161.198 334.688 183.398 334.288C206.698 333.888 228.298 329.587 248.998 318.687C263.398 311.087 276.098 301.288 287.398 289.488C303.298 272.788 315.598 253.987 325.398 233.087C337.598 207.287 341.398 179.087 342.298 150.587C343.498 108.787 318.098 57.3875 277.498 41.6875Z" fill="#FCF2F8"/>
<path d="M222.598 232.387C222.498 232.787 222.398 233.287 222.098 233.587C221.798 233.787 221.498 233.888 221.098 233.988C219.598 234.288 217.998 234.187 216.598 233.587C216.898 235.587 218.198 238.687 215.998 239.687C211.198 241.887 207.198 239.987 202.998 237.687C202.098 237.187 194.498 231.488 195.298 231.288C186.798 234.088 176.698 227.288 170.198 222.488C161.798 216.288 157.298 206.488 156.898 195.988C156.498 186.388 159.798 176.588 166.098 169.288C163.698 172.188 167.198 182.687 168.898 185.187C169.298 182.987 169.598 180.787 169.998 178.587C174.698 191.787 185.998 201.388 193.898 212.988C198.598 219.888 200.798 231.787 208.398 235.687C209.098 236.087 209.898 236.387 210.598 236.187C211.398 235.987 212.098 235.288 212.398 234.488C212.698 233.688 212.698 232.788 212.798 231.988C212.798 230.988 212.798 229.887 212.998 228.887C216.098 230.087 222.098 231.587 221.898 226.387C222.698 228.287 222.998 230.387 222.598 232.387Z" fill="#FCF2F8"/>
<path d="M175.398 57.5875C174.298 54.5875 167.398 52.1875 164.398 52.6875C163.898 52.7875 167.098 62.0875 168.798 64.8875C170.298 67.2875 168.198 65.5875 170.298 64.2875C171.198 63.6875 174.998 59.9875 175.298 59.3875C175.598 58.7875 175.598 58.1875 175.398 57.5875Z" fill="#F5DCEC"/>
<path d="M283.298 31.1875C282.598 30.7875 281.598 31.1875 281.398 31.9875C279.898 37.8875 282.098 42.4875 286.598 46.2875C288.698 47.9875 291.598 49.1875 293.498 51.0875C294.198 51.7875 297.198 57.1875 297.598 54.8875C299.298 45.4875 290.798 35.6875 283.298 31.1875Z" fill="#F5DCEC"/>
<path d="M159.798 153.687C151.998 155.987 145.098 163.488 140.198 170.488C141.598 170.688 143.098 170.787 144.498 170.887C146.298 168.787 147.898 166.488 149.698 164.488C152.898 160.788 156.598 157.887 160.398 154.887C160.998 154.387 160.398 153.487 159.798 153.687Z" fill="#F5DCEC"/>
<path d="M147.998 144.087C139.098 143.287 126.798 151.587 122.398 159.087C121.798 160.087 123.198 161.287 124.098 160.387C133.298 150.487 148.898 144.187 147.998 144.087Z" fill="#F5DCEC"/>
<path d="M146.998 152.187C141.698 152.287 137.298 154.988 132.798 157.588C129.998 159.188 122.198 164.488 123.598 157.788C125.198 150.388 131.898 146.187 138.298 143.187C139.898 142.387 146.498 140.588 146.698 138.488C146.898 136.488 142.598 135.488 141.398 134.788C139.998 133.988 134.698 132.087 134.598 130.187C134.498 127.387 140.298 126.488 142.198 126.288C144.398 126.088 146.998 126.088 149.298 126.788C149.198 125.788 149.098 124.688 149.098 123.688C143.498 121.188 134.398 122.787 131.498 127.588C128.498 132.688 135.698 136.187 141.298 138.187C130.998 140.487 119.298 149.188 119.398 159.788C119.398 164.288 122.698 165.987 126.798 164.887C130.298 163.987 133.398 162.088 136.398 160.288C133.398 163.988 132.198 168.388 135.698 171.488C136.398 172.088 137.598 171.488 137.798 170.588C138.298 169.088 137.598 167.588 137.998 165.988C138.498 163.988 139.198 159.888 147.198 154.988C148.798 154.388 148.498 152.087 146.998 152.187Z" fill="#E088BD"/>
<path d="M411.298 172.387C409.998 163.587 402.298 156.787 394.798 152.987C390.198 150.687 381.198 147.287 367.498 147.187C373.298 144.887 378.698 145.087 384.898 144.487C388.398 144.187 392.498 144.287 395.798 142.887C405.098 139.087 393.898 131.087 389.398 129.087C379.798 124.887 367.898 124.287 357.598 125.187C351.798 125.687 344.798 126.787 339.298 129.787C339.598 131.087 339.898 132.387 340.098 133.687C352.498 127.587 367.998 127.887 381.198 130.987C383.898 131.587 386.498 132.387 388.898 133.687C390.098 134.287 394.798 136.587 394.598 138.087C394.398 139.887 388.298 139.987 386.598 140.187C377.898 141.087 369.798 142.287 362.398 147.387C360.598 148.687 361.798 149.487 362.298 149.587C371.698 149.987 380.398 150.387 389.098 154.387C396.198 157.587 403.898 162.987 406.398 170.787C407.598 174.787 406.998 175.587 403.298 174.687C401.198 174.187 399.198 173.487 397.098 173.087C389.598 171.787 379.598 172.787 372.598 175.687C371.398 176.187 371.498 177.687 372.898 178.187C381.198 180.887 387.898 191.087 390.698 199.187C392.998 205.787 394.598 215.887 389.798 222.087C384.698 228.587 378.398 214.187 375.998 210.787C371.698 204.587 365.398 199.887 359.098 195.887C358.298 195.387 357.298 196.087 357.798 196.887C364.298 210.887 363.398 231.187 354.298 243.687C352.598 245.987 348.298 250.987 345.398 247.487C343.898 245.687 344.698 241.287 344.798 239.087C344.998 232.187 343.798 225.187 341.798 218.687C341.298 217.187 338.598 216.787 338.398 218.687C336.298 233.187 328.598 254.587 311.598 256.287C310.798 256.387 310.498 257.487 311.398 257.787C320.298 260.587 327.698 253.087 332.098 246.287C335.798 240.587 338.598 234.187 340.298 227.487C340.898 230.887 341.298 234.287 341.298 237.787C341.298 240.887 340.998 244.087 341.698 247.087C343.198 253.287 349.398 253.487 353.798 249.987C359.798 245.287 363.298 236.887 364.998 229.687C367.098 220.587 366.698 211.887 363.098 203.387C365.198 205.287 367.398 206.987 369.398 208.887C373.098 212.387 375.098 217.087 377.898 221.387C381.598 226.987 388.298 231.787 393.398 224.587C398.898 216.787 397.498 205.787 394.598 197.387C392.098 190.287 387.898 181.787 381.198 177.587C384.798 177.087 388.398 176.587 392.098 176.687C396.198 176.887 399.398 178.087 403.298 179.087C408.298 180.287 412.198 178.187 411.298 172.387Z" fill="#E088BD"/>
<path d="M316.098 168.988C309.098 180.888 302.798 192.288 292.798 202.088C287.998 206.788 282.798 211.387 277.398 215.387C274.698 217.387 271.898 219.288 268.998 220.788C266.198 222.288 261.798 222.887 259.298 224.687C257.798 225.587 256.298 226.688 254.698 227.488C251.998 228.888 248.998 230.087 245.898 230.187C246.198 227.187 250.498 219.388 249.298 219.588C246.398 219.988 242.498 220.988 239.598 221.088C240.798 216.088 247.398 210.788 249.398 209.088C249.498 208.988 249.698 208.888 249.798 208.788C249.898 208.688 249.898 208.688 249.998 208.588C255.698 199.988 260.598 191.288 267.298 183.288C273.698 175.588 280.698 168.487 287.198 160.887C287.698 160.287 286.998 159.087 286.298 159.687C277.898 165.987 270.098 173.687 263.598 181.887C257.898 189.087 251.598 197.588 248.898 206.488H248.798C243.398 209.788 236.198 215.988 235.998 222.788C235.998 223.788 236.798 224.488 237.798 224.588C239.998 224.787 242.198 224.487 244.298 223.887C243.098 226.287 242.698 229.088 242.598 231.788C242.598 232.488 243.098 233.287 243.798 233.387C247.698 233.987 251.398 232.888 254.998 231.288C257.398 230.288 261.098 228.287 263.198 226.387C269.898 225.587 273.798 223.087 277.898 220.387C283.998 216.187 289.598 211.188 294.998 206.088C305.398 196.088 314.598 183.788 318.198 169.588C318.198 168.688 316.698 167.988 316.098 168.988Z" fill="#E088BD"/>
<path d="M320.898 174.388C316.498 179.288 311.698 183.888 307.498 188.988C306.998 189.588 307.698 190.787 308.398 190.187C313.898 186.087 318.998 181.588 322.298 175.488C322.698 174.588 321.598 173.588 320.898 174.388Z" fill="#E088BD"/>
<path d="M222.498 222.087C221.998 220.687 220.998 218.387 219.798 216.887C222.098 212.987 218.398 205.088 217.098 201.988C213.398 192.988 207.398 184.887 199.798 178.787C198.798 177.987 197.598 179.187 198.398 180.187C203.698 186.987 208.898 193.887 212.698 201.687C214.698 205.687 218.298 212.387 217.298 217.087V217.187C217.298 217.187 220.198 223.688 220.498 226.488C220.698 228.188 219.698 229.487 217.898 229.187C216.498 228.987 214.098 228.088 212.998 226.988C212.598 226.188 211.098 226.488 211.198 227.488C211.198 227.588 211.198 227.687 211.198 227.787C211.198 227.987 211.198 228.087 211.198 228.287C211.398 230.387 211.898 232.487 211.498 234.587C205.998 232.587 203.998 228.087 200.398 223.787C200.298 223.687 200.198 223.487 199.998 223.387L199.898 223.287C199.898 223.287 199.898 223.287 199.798 223.287C190.998 218.287 184.798 212.187 179.798 203.287C175.398 195.387 172.698 186.587 168.098 178.787C167.698 178.087 166.798 178.587 166.898 179.287C168.298 189.087 172.498 199.187 177.398 207.687C181.998 215.587 188.998 224.487 198.498 226.087C200.198 232.087 206.398 238.587 212.598 238.087C213.298 237.987 213.798 237.688 214.098 236.988C214.798 235.088 214.698 232.988 214.298 230.988C217.598 232.488 222.098 232.688 223.298 228.988C223.898 226.788 223.198 224.087 222.498 222.087Z" fill="#E088BD"/>
<path d="M210.298 185.687C209.898 183.487 209.098 181.087 207.598 179.387C207.098 178.787 205.998 179.387 206.298 180.187C206.898 182.087 207.198 184.087 207.398 186.087C207.598 187.487 207.198 189.887 208.098 190.987C208.498 191.487 209.098 191.687 209.598 191.387C211.298 190.387 210.598 187.287 210.298 185.687Z" fill="#E088BD"/>
<path d="M89.2977 288.187C83.1977 294.487 82.8978 304.488 85.8978 312.288C82.3978 319.288 85.3978 330.887 94.4978 329.687C95.7978 329.487 96.3977 327.487 94.7977 327.187C90.6977 326.387 88.6978 323.387 88.3978 319.387C88.2978 318.687 88.3978 317.987 88.4978 317.187C89.9978 319.287 91.8978 321.088 94.4978 321.488C97.6978 321.988 101.498 320.187 102.298 316.887C103.898 309.787 94.3978 304.888 88.8978 308.588C87.7978 304.688 87.7978 300.488 89.0978 296.588C90.5978 292.188 93.6978 288.388 98.6978 288.088C103.998 287.788 106.398 291.388 109.098 295.488C109.598 296.188 111.998 295.988 111.898 294.988C110.998 283.988 96.4977 280.887 89.2977 288.187ZM93.9978 311.187C95.7978 311.487 99.2978 314.087 98.1978 316.387C96.2978 320.687 91.5978 314.788 90.6978 313.088C90.5978 312.888 90.4978 312.687 90.3978 312.387C91.2978 311.587 92.4978 310.987 93.9978 311.187Z" fill="#E088BD"/>
<path d="M207.898 300.887C209.698 296.187 210.898 289.387 205.598 288.687C201.498 288.187 197.798 290.487 194.898 295.287C192.098 299.887 187.098 311.187 187.398 311.787C187.398 311.787 187.398 311.787 187.498 311.887L187.598 311.987C187.598 311.987 201.898 314.787 208.598 314.287C212.198 313.987 217.498 313.187 218.698 309.087C220.198 302.987 213.198 300.087 207.898 300.887Z" fill="#F8E7F2"/>
<path d="M111.098 149.387C111.798 142.587 108.298 136.887 107.498 137.087C105.998 137.487 102.998 140.287 102.498 143.587C102.098 141.987 100.798 135.887 98.8978 137.587C92.0978 143.587 90.6978 155.987 88.7978 164.587C86.3978 174.887 83.5978 188.187 87.6978 198.387C88.2978 199.787 90.2978 199.587 90.3978 197.987C90.7978 192.787 89.8978 187.487 90.1978 182.187C90.4978 176.587 91.4978 171.087 92.7978 165.687C94.5978 157.587 94.3978 149.688 99.8978 142.487C100.698 144.987 101.098 147.687 101.698 150.287C101.898 151.287 103.098 151.087 103.298 149.887C103.998 147.387 104.898 142.287 107.098 140.587C107.898 143.487 108.098 146.488 108.398 149.488C108.298 149.588 110.498 166.787 113.798 174.187C114.898 173.687 115.998 173.387 117.198 173.087C116.298 165.787 113.498 156.187 111.098 149.387Z" fill="#E088BD"/>
<path d="M169.898 274.087C163.898 267.787 157.598 261.887 151.898 255.287C147.098 249.687 143.598 244.987 138.998 239.187C137.898 235.587 133.898 228.187 130.498 225.087C129.798 224.487 128.898 224.487 128.198 225.087C125.698 227.087 124.998 230.987 125.198 234.587C123.998 232.187 122.398 229.987 119.898 228.687C118.898 228.187 117.798 228.687 117.498 229.687C115.898 234.687 115.498 240.487 116.898 245.687C118.398 262.287 122.998 286.387 140.598 293.387C141.998 293.987 142.598 291.887 141.598 291.087C128.398 281.287 124.398 265.287 120.298 250.087C120.398 249.987 119.098 238.287 120.198 232.687C122.298 234.087 124.098 236.888 125.998 239.488C126.598 240.288 127.598 240.388 127.798 239.488C128.698 236.388 127.098 231.487 129.198 228.687C132.298 232.387 136.598 241.488 136.998 241.488C140.498 247.388 144.598 252.987 148.998 258.287C154.598 264.987 160.698 271.787 168.198 276.387C169.598 276.887 170.898 275.087 169.898 274.087Z" fill="#E088BD"/>
<path d="M306.098 112.288C299.298 131.988 287.598 148.688 271.698 162.288C270.798 163.088 271.998 164.487 272.998 163.887C290.998 152.987 304.298 133.588 307.898 112.688C308.098 111.588 306.498 111.088 306.098 112.288Z" fill="#E088BD"/>
<path d="M196.998 170.087C181.898 168.287 168.198 164.187 159.498 150.687C151.898 138.987 150.798 124.188 152.798 110.688C154.798 97.3875 159.798 84.4875 166.998 73.1875C174.798 61.0875 183.498 53.0875 196.098 45.2875C195.698 44.2875 195.398 43.1875 195.098 42.1875C173.898 50.6875 158.698 73.5875 151.998 94.4875C145.198 115.587 144.298 141.887 160.498 159.087C169.898 169.187 183.298 174.288 197.098 172.988C198.798 172.688 198.698 170.287 196.998 170.087Z" fill="#E088BD"/>
<path d="M219.498 173.387C214.998 173.687 201.798 172.587 202.898 174.087C205.198 176.987 215.798 177.787 219.998 175.387C220.898 174.887 220.598 173.387 219.498 173.387Z" fill="#E088BD"/>
<path d="M206.298 110.587C204.798 105.287 197.098 102.288 192.198 102.788C191.498 102.888 206.698 111.787 206.298 110.587Z" fill="#E088BD"/>
<path d="M209.798 125.988C209.598 125.488 209.398 124.887 209.098 124.387C205.798 117.387 197.898 106.087 188.998 107.387C178.898 108.887 168.098 117.187 163.898 126.687C161.098 132.987 161.298 140.787 170.098 140.787C172.498 140.787 174.798 140.087 176.998 139.087C178.398 138.487 180.298 136.887 181.798 136.787C184.598 136.687 186.398 138.487 187.998 140.287C191.298 144.187 194.998 146.587 200.298 145.887C209.598 144.687 212.798 133.788 209.798 125.988ZM198.498 142.287C191.998 142.387 190.898 136.188 185.798 133.988C181.098 131.988 176.798 136.087 172.398 137.187C166.898 138.587 164.198 135.987 165.498 130.587C166.798 125.287 171.698 119.187 175.998 116.087C179.998 113.187 184.298 111.087 189.298 110.787C193.698 110.587 197.298 114.087 199.998 117.287C203.098 120.987 206.498 126.287 206.898 131.287C207.498 136.587 204.398 142.087 198.498 142.287Z" fill="#E088BD"/>
<path d="M217.798 125.687C217.598 124.487 215.998 124.888 215.898 125.988C215.298 133.088 210.298 138.487 204.898 142.687C204.198 143.187 204.598 144.487 205.498 144.187C213.098 141.387 219.498 134.187 217.798 125.687Z" fill="#E088BD"/>
<path d="M183.398 48.9875C176.298 43.1875 166.498 41.5875 157.498 42.2875C156.598 42.3875 155.798 42.9875 155.798 43.9875C155.498 54.0875 156.798 65.2875 163.498 72.8875C164.098 73.5875 166.098 71.2875 165.598 70.4875C161.198 62.7875 159.098 54.4875 159.098 45.6875C166.598 45.7875 174.498 46.9875 180.398 51.8875C182.598 53.5875 185.498 50.6875 183.398 48.9875Z" fill="#E088BD"/>
<path d="M306.398 38.0875C299.298 28.5875 288.798 21.5875 276.998 19.9875C276.098 19.8875 275.098 20.1875 274.898 21.1875C273.598 27.0875 273.298 34.5875 275.598 40.4875C276.798 40.8875 277.998 41.2875 279.098 41.8875C277.298 36.0875 276.398 29.6875 277.698 23.6875C288.198 26.5875 297.198 32.1875 303.598 41.2875C310.198 50.5875 311.098 60.6875 313.898 71.3875C314.198 72.3875 315.798 72.4875 315.998 71.3875C318.598 60.0875 313.098 46.8875 306.398 38.0875Z" fill="#E088BD"/>
<path d="M339.798 120.487C336.198 106.187 330.698 92.3875 322.898 79.8875C307.598 55.3875 284.198 37.0875 255.398 32.0875C245.098 30.2875 232.198 29.4875 221.198 32.2875C221.598 32.7875 222.098 33.2875 222.498 33.7875C222.898 34.1875 223.298 34.6875 223.698 35.0875C226.098 34.6875 228.398 34.3875 230.898 34.2875C237.698 33.9875 244.598 34.4875 251.298 35.5875C264.098 37.6875 276.898 42.0875 287.798 49.2875C311.198 64.7875 326.498 89.8875 334.098 116.387C337.998 129.987 340.398 143.988 340.498 158.088C338.798 174.887 336.998 191.587 332.598 207.887C327.898 224.887 320.698 241.288 310.998 255.988C285.798 294.588 243.398 329.388 195.598 332.288C181.198 333.188 166.398 332.187 152.198 329.187C116.798 321.587 82.6977 291.688 78.7977 253.488C77.4977 240.988 77.9978 231.188 81.0978 218.988C88.3978 190.588 112.398 170.888 142.298 172.488C153.398 173.088 164.598 174.488 169.198 162.088C169.698 160.688 167.698 160.088 166.898 161.088C162.598 167.188 157.198 168.787 149.998 168.387C143.298 167.988 136.998 167.387 130.298 168.187C116.498 169.887 103.398 176.188 93.5978 186.088C75.5978 204.488 71.5978 229.488 74.3978 254.088C78.9978 294.488 113.998 324.888 151.898 332.788C166.398 335.788 181.498 336.788 196.198 335.788C197.598 335.688 199.098 335.587 200.498 335.387C266.798 328.287 322.698 266.388 337.298 203.788C340.398 190.388 342.998 175.988 343.198 161.988C346.098 143.888 343.098 133.687 339.798 120.487Z" fill="#E088BD"/>
<path d="M225.498 34.2875C218.798 29.4875 191.598 2.7875 188.298 0.287501C187.298 -0.512499 185.998 0.487495 185.898 1.68749C185.298 9.9875 195.398 47.7875 196.998 51.0875C197.498 52.1875 200.298 51.4875 199.998 50.2875C197.498 42.1875 189.398 11.8875 189.098 4.58749C189.098 4.58749 212.698 28.3875 223.498 37.6875C225.398 39.3875 227.598 35.7875 225.498 34.2875Z" fill="#E088BD"/>
<path d="M225.498 34.2875C224.998 33.7875 222.798 33.3875 222.998 34.0875C223.798 37.1875 222.898 39.5875 221.398 42.2875C219.598 45.1875 216.898 47.4875 214.198 48.9875C208.798 52.1875 203.298 53.5875 198.498 49.1875C197.798 48.5875 196.598 49.2875 196.798 50.1875C198.698 58.5875 211.598 54.4875 216.198 51.8875C224.698 46.9875 229.498 38.2875 225.498 34.2875Z" fill="#E088BD"/>
<path d="M210.198 22.1875C209.298 21.6875 208.398 22.6875 208.898 23.4875C210.098 25.5875 210.798 27.2875 210.198 29.6875C209.598 31.9875 208.298 34.0875 206.598 35.6875C203.398 38.8875 198.998 40.5875 195.098 37.6875C194.698 37.3875 193.998 37.8875 194.198 38.3875C196.798 44.9875 204.798 41.6875 208.598 37.9875C212.298 34.4875 216.498 25.6875 210.198 22.1875Z" fill="#E088BD"/>
<path d="M202.598 14.6875C201.798 13.9875 200.798 14.8875 201.198 15.7875C202.498 18.6875 201.898 22.1875 200.198 24.7875C199.498 25.8875 198.498 26.9875 197.298 27.4875C195.898 27.9875 194.798 27.2875 193.498 26.7875C192.598 26.4875 192.098 27.4875 192.398 28.1875C194.498 32.7875 200.098 30.0875 202.198 27.0875C204.698 23.6875 206.198 17.7875 202.598 14.6875Z" fill="#E088BD"/>
<path d="M195.698 7.98749C195.198 7.68749 194.598 8.0875 194.598 8.5875C194.698 10.8875 196.198 12.9875 194.898 15.1875C194.198 16.3875 192.698 18.0875 191.198 17.2875C190.198 16.6875 188.998 17.8875 189.598 18.8875C191.298 21.8875 194.998 19.5875 196.498 17.5875C198.698 14.8875 198.598 10.1875 195.698 7.98749Z" fill="#E088BD"/>
<path d="M251.198 210.988C250.698 211.088 250.498 211.788 250.898 212.088C251.498 212.688 252.298 213.088 252.998 213.588C253.898 214.288 254.698 215.088 255.398 215.988C256.598 217.588 257.198 219.488 258.498 221.088C259.198 221.888 260.398 221.188 260.398 220.288C260.698 216.388 255.498 210.088 251.198 210.988Z" fill="#E088BD"/>
<path d="M213.298 216.488C209.098 214.688 204.298 218.887 203.098 222.687C202.798 223.587 203.998 224.088 204.598 223.588C205.898 222.488 207.298 221.487 208.798 220.687C210.298 219.887 211.898 219.688 213.298 218.788C214.098 218.288 214.298 216.888 213.298 216.488Z" fill="#E088BD"/>
<path d="M133.298 243.588C132.198 244.888 131.098 245.988 129.598 246.788C128.398 247.388 126.298 248.388 124.998 248.088C123.998 247.788 123.398 249.288 124.298 249.788C127.898 251.888 135.098 248.988 135.098 244.288C134.998 243.488 133.898 242.888 133.298 243.588Z" fill="#E088BD"/>
<path d="M105.498 154.088C102.898 152.588 98.1977 153.888 96.7977 156.588C96.5977 157.088 96.7978 157.788 97.4978 157.788C98.7978 157.688 99.9978 157.088 101.198 156.788C102.498 156.388 103.898 156.488 105.298 156.088C106.098 155.788 106.298 154.488 105.498 154.088Z" fill="#E088BD"/>
<path d="M181.698 99.3875C181.198 94.7875 177.498 92.5875 173.598 93.6875C170.498 94.5875 167.598 98.5875 168.798 101.887C168.998 102.487 170.098 102.887 170.398 102.087C171.298 100.187 171.698 97.8875 174.098 97.2875C176.298 96.7875 177.098 98.8875 177.598 100.487C178.398 103.287 182.098 102.087 181.698 99.3875Z" fill="#E088BD"/>
<path d="M230.598 91.9875C225.898 93.0875 222.798 98.3875 224.198 102.687C224.498 103.487 225.698 103.287 225.698 102.587C226.198 98.6875 229.298 96.7875 230.498 96.5875C233.998 95.8875 235.298 99.0875 235.898 101.387C236.298 102.887 238.998 102.288 239.498 100.788C241.398 95.7875 235.998 90.7875 230.598 91.9875Z" fill="#E088BD"/>
<path d="M346.198 201.788C345.598 200.888 348.398 214.688 349.398 220.988C350.498 227.588 351.598 237.887 351.898 237.187C356.498 226.087 353.998 213.388 346.198 201.788Z" fill="#F5DCEC"/>
<path d="M351.998 180.988C351.198 180.988 366.198 187.887 371.798 193.087C372.098 193.287 372.298 193.588 372.598 193.788C378.198 199.188 385.598 213.487 385.598 212.387C386.298 195.487 367.398 181.688 351.998 180.988Z" fill="#F5DCEC"/>
<path d="M395.898 166.088C382.898 159.488 363.898 157.888 350.898 165.488C349.998 165.988 366.698 164.087 374.398 164.187C381.398 164.387 396.898 166.588 395.898 166.088Z" fill="#F5DCEC"/>
<path d="M175.898 129.788C174.998 130.088 174.098 130.588 173.198 130.488C172.198 130.388 171.898 129.688 171.098 129.288C170.798 129.188 170.598 129.188 170.398 129.388C169.698 129.988 169.898 131.088 170.298 131.788C170.798 132.588 171.798 132.987 172.698 133.187C174.398 133.487 176.998 132.787 177.098 130.687C176.998 129.987 176.398 129.588 175.898 129.788Z" fill="white"/>
<path d="M202.398 132.087C202.198 131.387 201.398 131.287 200.898 131.687C200.098 132.387 199.698 133.388 198.798 133.988C197.798 134.588 196.998 134.187 195.898 134.087C195.398 134.087 195.098 134.588 195.198 134.988C195.698 136.888 198.098 137.087 199.698 136.387C201.198 135.687 202.798 133.787 202.398 132.087Z" fill="white"/>
<path d="M177.698 123.387C176.298 122.187 174.398 122.487 172.898 123.387C169.598 125.387 166.598 133.487 172.298 134.587C175.898 135.287 178.698 130.788 178.998 127.788C179.198 126.188 178.998 124.387 177.698 123.387ZM176.598 127.387C176.398 129.087 175.098 132.287 173.098 132.387C170.298 132.587 171.398 127.987 172.398 126.687C174.098 124.687 176.998 123.887 176.598 127.387Z" fill="#E088BD"/>
<path d="M203.198 130.787C202.898 127.387 198.898 124.187 195.598 126.187C193.398 127.487 192.998 130.387 193.398 132.787C193.798 135.087 195.398 137.987 197.998 138.087C201.498 138.187 203.498 133.787 203.198 130.787ZM200.498 131.687C200.398 132.987 199.398 136.187 197.598 135.687C196.998 135.487 196.498 134.887 196.098 134.087C195.398 132.687 195.098 129.487 196.398 128.387C198.598 126.587 200.698 129.687 200.498 131.687Z" fill="#E088BD"/>
<path d="M185.798 93.6875C185.398 93.0875 184.298 92.9875 183.998 93.8875C183.698 94.8875 183.698 95.8875 183.598 96.8875C183.498 97.8875 183.298 98.8875 183.298 99.8875C183.298 100.887 184.698 101.187 185.098 100.387C186.198 98.4875 186.698 95.7875 185.798 93.6875Z" fill="#FCF2F8"/>
<path d="M226.598 90.4875C222.598 90.5875 217.998 96.2875 218.998 100.188C219.198 101.188 220.698 101.087 220.998 100.188C221.598 98.4875 221.898 96.8875 222.998 95.3875C224.098 93.8875 225.598 92.9875 227.098 91.8875C227.598 91.4875 227.398 90.4875 226.598 90.4875Z" fill="#FCF2F8"/>
</svg>
