<svg width="258" height="240" viewBox="0 0 258 240" fill="none" xmlns="http://www.w3.org/2000/svg">
<path d="M51.6441 168.754C56.4205 162.812 65.4292 160.568 72.5319 159.063C80.922 157.27 89.8874 157.199 98.1575 158.565C109.152 160.339 119.08 157.281 130.011 156.058C140.769 154.824 150.177 149.403 160.008 145.347C174.603 139.333 191.637 143.696 200.533 156.95C200.138 154.838 199.424 152.812 198.513 150.895C204.799 156.318 208.295 165.333 202.636 172.649C200.771 175.026 197.982 177.138 197.939 180.163C197.909 181.535 198.53 182.791 198.712 184.107C200.861 197.007 182.272 199.998 173.269 200.989C166.926 201.722 160.441 201.924 154.054 201.645C147.109 201.402 141.443 200.419 134.824 203.727C131.27 205.533 125.731 209.689 120.391 212.257C117.06 213.832 113.838 214.752 111.124 214.172C113.371 214.707 115.551 215.203 117.799 215.738C104.155 221.271 95.6814 218.082 82.8349 212.37C77.4117 209.956 72.012 206.569 69.391 201.244C69.1428 200.742 68.9476 200.226 68.9257 199.72C68.7996 197.763 71.0448 196.593 72.9121 195.922C69.6496 189.689 64.7417 186.227 58.8504 182.915C53.8052 180.003 46.6839 174.86 51.6441 168.754Z" stroke="#F6DCEC" stroke-width="3" stroke-miterlimit="10" stroke-linecap="round" stroke-linejoin="round"/>
<path d="M42.5579 186.201C47.9763 187.535 53.3551 191.268 59.139 190.572L57.9129 188.967C68.0854 189.368 60.9132 197.83 59.5869 198.185C59.7734 197.396 60.5956 195.583 60.3824 194.787C58.8469 197.758 55.966 199.951 52.687 200.659C47.2045 201.844 41.4619 198.663 38.3502 194.265C34.6927 189.104 36.5379 184.743 42.5579 186.201Z" stroke="#F6DCEC" stroke-width="3" stroke-miterlimit="10" stroke-linecap="round" stroke-linejoin="round"/>
<path d="M205.33 41.3692C206.898 41.9157 209.058 42.7588 208.43 44.2349C208.186 44.8119 207.539 45.1558 206.945 45.4856C205.082 46.383 203.094 47.0293 201.064 47.5164C202.136 47.9114 202.481 49.4111 202.033 50.4978C201.585 51.5846 200.585 52.3075 199.609 52.9102C194.454 56.1678 188.367 57.8557 182.25 57.7321C181.051 57.7123 179.688 57.5088 178.873 56.5898C178.126 55.7097 178.131 54.4573 178.3 53.3886C179.389 46.8418 187.026 42.2367 193.322 44.3025C193.361 44.2352 198.616 39.0174 205.33 41.3692Z" stroke="#F6DCEC" stroke-width="3" stroke-miterlimit="10" stroke-linecap="round" stroke-linejoin="round"/>
<path d="M158.619 31.0834C158.603 29.325 160.869 27.808 162.771 26.8434C165.876 25.2723 169.417 25.1194 172.624 26.4778C172.628 26.7042 172.551 26.8387 172.367 27.0017C172.579 26.9448 172.844 26.8738 173.071 26.87C175.505 26.6158 178.186 29.1954 177.064 31.3727C176.107 33.1075 170.581 33.2804 168.592 33.074C169.321 33.6746 172.892 34.4806 173.067 35.3437C168.791 37.001 163.582 36.236 159.977 33.3921C159.031 32.622 158.606 31.883 158.619 31.0834Z" stroke="#F6DCEC" stroke-width="3" stroke-miterlimit="10" stroke-linecap="round" stroke-linejoin="round"/>
<path d="M93.8432 35.9302C94.802 35.9008 96.0156 35.9736 96.3634 36.8471C96.7642 37.7064 95.994 38.652 95.3262 39.3427C93.0042 41.5002 88.7277 42.3049 85.8097 43.0867C85.8097 43.0867 88.3594 44.9624 88.2467 45.3907C88.1482 45.872 87.6176 46.0141 87.1259 46.089C80.8749 46.7404 74.3886 42.9058 71.9191 37.0851C79.2142 36.7226 86.5481 36.2928 93.8432 35.9302Z" stroke="#F6DCEC" stroke-width="3" stroke-miterlimit="10" stroke-linecap="round" stroke-linejoin="round"/>
<path d="M228.276 169.02C230.256 167.921 230.284 164.843 232.14 163.493C233.628 162.468 235.621 162.901 237.362 163.458C244.024 165.824 250.075 169.946 254.681 175.251C255.17 175.802 255.62 176.421 255.752 177.125C256.118 179.131 253.742 180.45 251.833 180.961C244.805 182.958 237.478 183.841 230.186 183.577C231.142 184.174 231.314 185.663 230.731 186.672C230.149 187.681 229.134 188.351 228.13 188.848C224.035 190.968 219.348 191.94 214.749 191.751C212.215 191.634 209.568 191.092 207.479 189.661C205.39 188.231 203.869 185.739 204.092 183.177C204.603 177.865 211.603 176.615 214.62 173.02C218.04 168.806 222.3 159.874 228.276 169.02Z" stroke="#F6DCEC" stroke-width="3" stroke-miterlimit="10" stroke-linecap="round" stroke-linejoin="round"/>
<path d="M143 206.654C144.253 206.66 145.648 207.196 146.872 207.095C148.043 207.009 149.057 206.339 150.242 206.306C152.199 206.18 156.121 208.086 154.136 210.437C152.881 211.911 151.285 211.258 149.696 211.058C150.337 211.114 150.066 212.438 149.804 212.735C149.373 213.249 148.333 213.186 147.746 213.116C146.065 212.998 144.44 212.239 143.352 210.938C143.381 211.044 143.409 211.151 143.452 211.31C143.201 211.434 142.932 211.279 142.701 211.056C142.078 210.427 141.599 209.702 141.266 208.882C141.085 208.418 140.928 207.835 141.147 207.378C141.43 206.734 142.254 206.627 143 206.654Z" stroke="#F6DCEC" stroke-width="3" stroke-miterlimit="10" stroke-linecap="round" stroke-linejoin="round"/>
<path d="M66.7277 142.706C67.0686 140.795 68.3902 139.361 69.5241 137.863C64.2603 138.591 62.2313 143.115 57.808 145.494C56.7119 146.072 55.1876 146.538 54.2666 145.647C53.8061 145.202 53.6355 144.565 53.6383 143.939C53.5652 141.969 54.6281 140.205 55.8539 138.626C58.0725 135.871 60.7904 133.493 63.8523 131.763C61.0602 131.317 58.2133 132.364 55.536 133.195C51.6527 134.406 47.7513 135.338 43.7116 135.966C42.569 136.158 41.2919 136.273 40.2194 135.878C39.0938 135.497 38.1548 134.327 38.4153 133.177C38.5876 132.335 39.2309 131.764 39.8883 131.247C44.897 127.232 51.6404 124.174 58.0221 123.374C51.5274 121.418 44.5517 122.548 37.7966 121.743C36.9155 121.637 36.0201 121.479 35.2802 121.052C34.5402 120.625 34.0048 119.688 34.1772 118.846C34.3353 117.95 35.152 117.39 35.944 116.951C39.5856 114.838 43.435 114.773 47.3894 113.827C49.4197 113.34 53.303 112.129 55.215 113.322C51.4868 111.08 46.7383 110.76 43.4268 107.951C42.7787 107.443 42.1799 106.693 42.3523 105.851C42.5246 105.009 43.49 104.58 44.2858 104.366C49.9484 102.792 55.8984 104.837 61.1936 106.773C66.4889 108.709 71.5161 111.343 76.1019 114.663C78.4213 116.316 81.4883 118.849 81.2479 121.984C81.018 124.946 79.943 128.361 79.4477 131.394C79.121 133.358 78.7943 135.322 78.1455 137.145C76.9748 140.416 74.9372 143.634 72.1624 145.799C70.8332 146.781 69.6244 147.787 68.1018 146.774C66.9014 145.901 66.5099 144.016 66.7277 142.706Z" fill="white"/>
<path d="M46.7056 104.059C54.4781 103.569 62.3619 107.313 68.979 110.999C71.521 112.422 73.812 113.969 75.9761 115.891C77.1661 116.937 80.2359 118.844 80.5032 120.478C80.653 121.461 81.5542 123.551 80.5423 123.595C79.4774 123.653 72.5664 116.748 63.3788 111.533C58.7657 108.959 46.3058 104.053 46.7056 104.059Z" fill="white"/>
<path d="M34.1128 118.181C37.2978 115.849 41.1281 114.652 44.966 113.908C48.5387 113.235 52.4477 112.756 55.9305 113.87C56.1854 113.972 41.8133 116.572 35.9492 121.214C34.5035 122.397 32.6387 119.258 34.1128 118.181Z" fill="white"/>
<path d="M39.9238 134.137C43.0489 129.035 49.3346 124.906 55.3772 124.538C55.9362 124.502 50.2652 127.955 47.8012 129.581C45.3371 131.208 43.9455 133.23 41.9561 135.356C40.8326 136.68 39.0163 135.631 39.9238 134.137Z" fill="white"/>
<path d="M56.6612 139.092C58.1835 136.921 59.901 135.267 62.4334 134.531C62.8578 134.418 58.9113 139.001 57.7253 141.366C57.0301 142.803 56.5452 145.662 54.7234 145.866C54.4439 145.884 54.1075 145.69 53.9834 145.439C52.9553 143.724 55.6968 140.374 56.6612 139.092Z" fill="white"/>
<path d="M167.028 127.829C168.075 130.676 169.929 133.136 171.517 135.668C173.133 138.305 174.446 141.081 175.295 144.038C175.693 145.523 175.734 147.161 176.171 148.579C176.647 149.93 177.875 150.909 178.878 151.891C181.372 154.408 183.183 157.561 184.054 161.024C184.296 161.926 187.945 160.266 188.501 160.003C190.286 159.24 192.406 159.298 194.267 159.88C194.086 161.748 192.485 163.201 191.039 164.384C192.022 164.234 193.059 164.07 194.042 163.92C194.481 163.86 195.121 163.916 195.182 164.354C195.211 164.46 195.147 164.648 195.122 164.768C194.766 165.773 194.424 166.832 193.799 167.682C192.499 169.622 190.293 170.725 188.217 171.679C181.821 174.758 173.724 179.771 166.247 178.817C166.308 179.256 165.834 179.61 165.438 179.83C163.84 180.656 162.242 181.483 160.629 182.256C156.68 184.281 152.795 184.639 148.498 185.791C148.916 186.077 149.281 186.377 149.699 186.663C149.833 186.741 149.982 186.872 150.024 187.031C150.11 187.349 149.728 187.622 149.357 187.721C148.165 188.155 146.973 188.588 145.795 189.074C134.581 193.273 122.805 194.95 110.857 195.137C100.268 195.302 89.5133 190.394 81.6785 183.224C77.6053 179.482 74.0491 173.213 73.1438 167.713C72.0746 161.176 72.8528 155.167 74.5046 148.811C76.1213 142.748 77.7238 136.632 79.3405 130.57C80.154 127.452 80.7488 124.79 80.7343 121.553C80.6914 118.21 80.6485 114.866 80.6056 111.523C80.5733 111.19 80.5941 110.844 80.8167 110.613C81.1028 110.196 81.7433 110.251 82.2776 110.336C105.332 113.825 128.716 113.871 151.974 112.814C156.021 112.639 160.054 112.411 164.046 112.877C165.1 112.993 166.183 113.214 167.033 113.839C169.246 115.521 166.783 118.001 166.364 120.046C165.968 122.597 166.134 125.339 167.028 127.829Z" fill="white"/>
<path d="M88.7731 121.844C93.4955 126.948 100.625 130.212 107.159 132.1C114.067 134.116 121.283 135.367 128.411 134.594C137.361 133.617 146.008 130.448 154.109 126.514C156.171 125.507 157.899 123.679 159.864 122.527C164.482 119.811 168.33 115.71 170.741 110.913C171.733 108.884 172.522 106.739 173.086 104.598C176.369 92.2319 173.377 78.3061 165.255 68.3703C164.671 67.674 164.019 66.9388 163.632 66.1326C163.246 65.3264 163.057 64.4103 162.815 63.5084C161.177 57.1807 157.324 51.5032 152.037 47.6884C152.083 47.2213 151.74 47.4269 151.397 47.6325C151.001 47.8524 150.768 48.256 150.602 48.6984C149.448 51.3958 148.217 54.2278 148.16 57.1998C148.163 56.5736 140.059 54.7647 139.004 54.6492C135.066 54.1692 131.566 53.6285 127.519 53.8032C123.153 54.0632 118.819 54.6557 114.547 55.6868C103.214 58.3823 92.6762 63.196 84.4496 71.5416C82.5609 66.1907 79.435 61.7401 73.9483 59.5141C72.4138 63.3371 71.7254 67.5588 71.9285 71.7123C72.2512 78.2219 70.8429 84.0013 72.6407 90.2863C75.3871 99.8995 79.6721 109.1 85.3147 117.426C86.392 118.9 87.4836 120.427 88.7731 121.844Z" fill="white"/>
<path d="M83.7777 72.006C87.6608 67.6106 92.7169 64.8342 97.8157 62.217C103.286 59.5003 109.033 57.3918 114.925 56.0403C120.606 54.7456 126.38 54.2221 132.246 54.4699C137.713 54.711 144.195 55.1349 149.183 57.8355C149.452 57.9909 149.287 58.4333 149.046 58.3841C135.553 56.1996 123.319 56.8051 117.826 58.1632C112.372 59.454 104.927 62.0174 99.8528 64.5143C94.9236 66.9155 85.054 74.2228 84.0679 74.9988C83.1878 75.7464 82.9403 72.9127 83.7777 72.006Z" fill="white"/>
<path d="M75.1069 61.0801C80.0762 62.6486 83.6172 68.0116 84.4333 72.9675C84.5547 73.8448 83.2956 74.239 83.0539 73.3371C81.9555 69.0255 78.6638 65.0173 74.4022 63.5435C72.9015 63.0358 73.5 60.6009 75.1069 61.0801Z" fill="white"/>
<path d="M149.618 51.1797C150.126 49.679 152.077 48.4737 153.722 48.033C155.685 47.507 151.781 52.2492 151.407 52.9749C150.916 53.9025 149.211 57.0888 149.101 56.8908C148.247 55.1865 149.135 52.5602 149.618 51.1797Z" fill="white"/>
<path d="M121.517 85.0941C121.787 80.5862 126.361 76.8587 130.305 76.0862C134.529 75.2957 139.901 77.0972 142.955 80.43C143.214 80.7587 142.889 81.2438 142.485 81.0108C142.485 81.0108 135.275 78.5074 131.491 79.2372C127.493 80.0239 124.772 82.1748 122.373 85.3195C122.126 85.67 121.485 85.6142 121.517 85.0941Z" fill="white"/>
<path d="M159.498 161.69C158.55 156.03 155.555 139.547 155.895 139.967C158.747 143.184 160.032 146.706 160.967 150.834C161.789 154.537 162.555 158.881 161.353 162.672C161.117 163.701 159.704 162.886 159.498 161.69Z" fill="white"/>
<path d="M153.039 166.662C154.116 168.136 155.332 173.099 154.05 172.134C151.271 170.036 148.168 164.612 145.209 160.572C141.431 155.386 138.154 151.431 138.221 148.285C138.224 147.659 148.691 160.833 153.039 166.662Z" fill="white"/>
<path d="M165.623 174.151C165.707 175.948 165.575 178.429 167.455 179.29C168.758 179.907 170.094 179.379 171.421 179.023C176.673 177.616 181.422 175.604 186.27 173.111C188.066 172.175 189.916 171.224 191.372 169.868C193.065 168.334 194.244 166.369 195.37 164.418C191.079 167.501 185.908 169 180.896 170.457C180.631 170.528 180.366 170.599 180.111 170.497C179.923 170.433 179.76 170.249 179.65 170.051C178.654 168.669 178.412 166.915 178.583 165.22C178.769 163.578 179.194 161.133 180.13 159.744C180.402 159.274 182.995 156.645 183.559 157.688C182.598 156.012 181.605 154.004 180.21 152.615C179.058 151.502 177.664 150.966 176.958 149.392C176.071 147.355 174.442 143.186 174.471 140.961C174.357 146.052 174.72 151.015 174.153 156.114C173.491 161.921 171.849 167.252 168.062 171.792C167.892 172.008 167.669 172.238 167.39 172.256C166.937 172.264 166.689 171.762 166.575 171.337C166.252 170.343 165.996 169.388 165.673 168.395C165.537 169.796 164.866 171.113 163.816 172.076C164.05 172.526 163.714 172.331 163.31 172.098C162.854 171.88 162.712 171.349 162.545 170.939C162.317 170.09 162.037 169.255 161.809 168.406C161.224 170.042 160.893 171.779 160.736 173.527C160.67 174.341 160.671 175.194 160.99 175.961C161.363 176.714 162.145 177.301 163.009 177.126C164.296 176.838 164.531 174.956 165.623 174.151Z" fill="#FCF2F8"/>
<path d="M161.277 167.696C160.919 166.996 161.13 166.086 161.571 165.399C162.013 164.712 162.684 164.248 163.303 163.798C165.671 162.026 174.331 154.872 176.27 154.467C176.595 157.166 161.234 167.537 161.277 167.696Z" fill="#FCF2F8"/>
<path d="M158.495 175.777L158.427 175.738C158.427 175.738 158.48 175.723 158.495 175.777Z" fill="#F6C3B2"/>
<path d="M117.679 159.476C116.74 158.306 115.656 157.232 114.572 156.157C116.267 156.329 117.908 156.514 119.603 156.686C120.071 156.731 120.591 156.762 120.958 156.436C121.457 155.962 121.176 155.127 120.846 154.533C128.349 159.403 135.697 164.542 143.161 169.479C144.4 170.285 145.587 171.104 146.812 171.856C148.55 173.039 149.769 174.191 150.956 175.863C151.583 176.719 153.868 178.666 153.911 179.678C153.895 177.919 153.344 176.076 153.342 174.371C155.006 175.063 156.352 175.839 158.259 175.954C158.379 175.978 158.485 175.95 158.577 175.868C158.616 175.801 158.641 175.681 158.573 175.642C159.338 175.949 159.961 176.578 160.373 177.264C160.493 177.289 160.599 177.26 160.719 177.285C162.743 177.197 165.041 176.013 165.233 173.971C165.345 175.875 166.175 177.699 167.451 179.063C166.15 180.151 165.387 180.697 163.766 181.017C159.677 184.217 154.364 185.186 149.263 186.098C148.625 185.416 147.896 184.815 147.05 184.416C147.654 183.913 148.258 183.41 148.81 182.921C146.409 181.176 143.407 180.161 140.464 180.21C140.011 180.218 139.505 180.24 139.048 180.021C138.577 179.749 138.276 179.261 137.989 178.826C134.178 172.455 127.019 168.232 120.855 164.539C120.653 164.422 120.437 164.253 120.221 164.083C119.842 163.73 119.753 163.185 119.558 162.669C119.1 161.597 118.469 160.515 117.679 159.476ZM155.308 181.919C155.269 181.986 155.322 181.972 155.322 181.972L155.308 181.919Z" fill="#FCF2F8"/>
<path d="M141.822 85.1121C142.424 85.2353 142.923 85.6132 143.383 86.0585C143.844 86.5037 144.212 87.0305 144.475 87.5856C144.695 87.9816 144.876 88.4449 144.83 88.912C144.785 89.379 144.513 89.8499 144.021 89.9248C143.53 89.9997 143.098 89.6606 142.733 89.3603C142.152 88.8904 141.557 88.3675 141.107 87.7489C140.398 86.8015 139.844 84.7324 141.822 85.1121Z" fill="#E6E7E8"/>
<path d="M128.94 88.3933C129.312 89.1464 129.419 89.9707 129.367 90.8376C129.315 91.7045 129.157 92.5998 128.61 93.3151C128.062 94.0305 127.15 94.4455 126.293 94.2201C126.327 93.0737 126.308 91.9416 126.183 90.8379C126.076 90.0136 125.565 88.9563 125.631 88.1425C125.838 86.1539 128.386 87.1768 128.94 88.3933Z" fill="#E6E7E8"/>
<path d="M141.484 86.3969C141.215 86.2415 140.786 86.1288 140.549 86.306C140.313 86.4832 140.306 86.883 140.324 87.1625C140.456 87.8664 140.892 88.432 141.328 88.9975C141.654 89.3651 141.979 89.7327 142.436 89.9515C143.619 90.5445 144.113 89.8433 143.67 88.8249C143.293 87.8453 142.425 86.9406 141.484 86.3969Z" fill="#E088BD"/>
<path d="M127.678 92.598C127.531 93.32 127.132 94.1661 126.414 94.2448C126.028 94.2912 125.586 94.1255 125.341 93.8498C125.044 93.5883 124.877 93.1781 124.724 92.8209C124.291 91.6291 123.838 88.4525 125.727 88.2875C127.776 88.0798 127.949 91.2745 127.678 92.598Z" fill="#E088BD"/>
<path d="M126.983 99.5511C127.442 99.1437 129.111 98.5826 129.44 98.324C130.416 97.7213 131.229 96.9349 132.123 96.2404C133.699 94.9082 135.517 93.6252 137.622 93.6298C138.407 93.5899 139.143 93.7907 139.879 93.9915C141.405 94.3789 142.867 94.9538 144.251 95.6633C142.911 96.8183 141.912 98.394 141.461 100.107C139.766 99.9356 138.813 101.897 137.445 102.946C137.392 102.96 131.546 101.513 130.677 102.94C130.135 102.403 126.718 100.475 126.852 99.6999C126.852 99.6999 126.891 99.6326 126.983 99.5511Z" fill="#E088BD"/>
<path d="M149.229 155.628C148.802 156.368 148.375 157.108 147.88 157.809C147.711 158.025 147.556 158.294 147.521 158.588C147.539 158.867 147.648 159.065 147.773 159.316C150.063 163.195 152.212 167.395 154.831 171.015C155.391 171.832 160.866 176.563 160.866 176.563C160.733 174.153 161.239 171.8 161.385 169.373C161.631 164.985 160.518 160.621 159.381 156.376C158.069 151.269 155.535 144.783 155.434 139.522C155.469 142.413 153.509 145.497 152.514 148.151C151.626 150.778 150.589 153.273 149.229 155.628Z" fill="#FCF2F8"/>
<path d="M72.2794 157.482C72.4966 149.804 76.766 143.03 78.5333 135.62C79.4662 131.674 80.1442 127.625 80.5957 123.581C80.7813 121.939 82.3096 113 81.1338 112.007C82.6602 113.247 83.4126 115.206 83.9102 117.063C86.2017 124.979 85.851 133.431 85.6167 141.682C85.3825 149.934 85.3784 158.407 88.1474 166.195C91.5021 175.531 99.4354 182.219 109.1 184.122C117.268 185.743 128.208 185.826 133.656 185.787C136.161 185.798 138.398 186.507 140.935 186.851C142.231 187.015 143.618 187.099 144.919 186.863C145.797 186.742 147.816 185.576 148.513 185.844C151.277 187.036 147.055 188.679 146.249 189.066C143.749 190.134 141.167 191.11 138.543 191.927C133.255 193.628 127.787 194.866 122.24 195.386C113.367 196.228 104.199 195.329 95.9336 191.858C88.1778 188.591 80.5014 183.71 76.3634 176.119C73.3246 170.508 72.0819 163.96 72.2794 157.482Z" fill="#F6C3B2"/>
<path d="M97.1405 133.761C109.689 141.544 125.363 145.078 139.694 140.839C150.287 137.717 159.74 130.976 166.197 121.967C167.641 119.931 167.225 118.166 167.891 115.77C163.842 120.608 158.834 124.623 153.261 127.594C145.39 131.75 136.246 133.063 127.388 133.958C121.349 134.553 115.189 134.27 109.324 132.544C104.022 131.007 97.2301 128.79 92.8953 125.346C90.0055 123.049 87.5998 120.225 85.2471 117.387C83.479 115.245 81.6683 112.944 80.9964 110.224C83.4321 120.375 87.662 127.885 97.1405 133.761Z" fill="#FCF3F9"/>
<path d="M84.8749 116.634C95.6947 131.76 114.055 135.768 131.58 133.688C138.029 132.927 145.061 131.156 150.984 128.432C153.919 127.077 156.662 125.432 159.459 123.773C161.715 122.429 164.407 119.32 166.266 117.343C168.439 115.055 170.166 112.375 171.436 109.475C173.193 105.422 174.143 100.903 174.442 96.5012C174.79 91.8588 172.344 87.3967 172.512 83.1437C171.486 110.087 145.814 127.6 120.427 126.441C109.32 125.949 98.3684 122.003 89.5294 115.33C84.5504 111.603 81.5931 106.084 77.533 101.542C79.0954 103.341 79.794 107.646 81.0174 109.877C82.216 112.229 83.3863 114.474 84.8749 116.634Z" fill="#FCF3F9"/>
<path d="M159.566 172.135C159.541 171.402 159.607 170.588 159.673 169.775C159.991 166.505 159.811 163.71 159.011 160.513C157.23 153.655 155.269 146.333 155.175 139.193C155.182 138.794 155.741 138.757 155.893 139.115C158.152 145.845 159.179 153.075 161.08 159.958C161.748 162.452 162.378 165.013 162.169 167.628C161.994 169.949 161.382 172.331 161.434 174.648C161.552 175.299 161.828 175.907 162.197 176.434C163.416 175.254 164.585 173.462 165.206 172.386C165.842 171.363 166.487 172.498 166.52 172.83C166.592 173.948 166.418 176.27 167.077 177.458C170.827 173.837 172.455 168.454 173.878 163.58C175.683 157.581 176.064 150.94 174.588 144.796C173.884 141.743 172.678 138.939 171.061 136.301C169.54 133.809 167.73 131.508 166.605 128.795C164.483 123.848 165.557 119.58 168.159 115.073C168.392 114.669 168.931 114.98 168.857 115.341C168.368 117.974 167.306 120.59 167.458 123.279C167.682 127.085 170.134 130.295 172.105 133.406C175.267 138.416 177.053 144.021 177.446 149.944C177.849 155.693 176.837 161.252 175.17 166.703C173.679 171.537 171.792 176.592 167.554 179.661C167.172 179.934 166.677 179.783 166.326 179.535C165.217 178.581 164.954 177.173 165.037 175.786C164.455 176.795 163.709 177.621 162.829 178.368C162.553 178.613 162.023 178.755 161.672 178.508C161.47 178.391 161.307 178.207 161.091 178.038C160.918 178.027 160.783 177.95 160.727 177.738C160.698 177.631 160.684 177.578 160.656 177.472C159.486 176.08 159.307 174.137 159.566 172.135Z" fill="#E088BD"/>
<path d="M120.26 158.5C121.559 158.891 122.77 159.59 124.044 160.102C125.131 160.55 126.345 160.623 127.407 161.191C127.743 161.385 127.793 161.997 127.436 162.15C126.22 162.703 124.864 162.1 123.71 161.613C122.368 161.063 120.931 160.367 119.861 159.346C119.482 158.993 119.832 158.387 120.26 158.5Z" fill="#E088BD"/>
<path d="M148.321 185.554C151.08 184.815 155.122 183.561 157.573 182.734C160.594 181.697 163.355 180.331 166.194 178.831C167.146 178.349 167.887 179.629 167.031 180.256C164.596 181.989 161.859 183.234 159.051 184.214C156.469 185.19 152.154 186.915 149.327 186.763C148.687 186.707 147.738 185.71 148.321 185.554Z" fill="#E088BD"/>
<path d="M43.9915 127.247C46.9862 125.478 50.2537 124.091 53.6634 123.234C49.7325 123.207 45.8301 123.286 41.8604 123.326C38.9168 123.376 32.6298 123.468 32.6635 119.138C32.7011 115.033 39.0079 113.741 42.0604 113.037C45.0068 112.362 47.9428 111.859 50.8192 111.771C49.6017 111.471 48.4231 111.105 47.2587 110.791C45.4112 110.263 42.2297 109.637 41.159 107.763C38.34 102.548 48.9823 102.369 51.438 102.621C58.483 103.235 65.407 106.156 71.3059 109.921C75.1441 112.361 79.2875 115.515 82.0836 119.372C81.8194 120.296 81.5551 121.22 81.3051 122.196C75.1462 114.066 65.9226 108.292 56.0096 105.888C53.5216 105.303 51.0232 104.892 48.4794 104.949C47.0678 104.986 41.984 105.324 44.2049 107.459C45.6536 108.833 49.5674 109.434 51.4149 109.962C54.6675 110.853 57.9304 111.571 60.8761 113.227C61.347 113.499 61.132 114.182 60.6261 114.204C60.4954 114.353 60.2831 114.409 60.0425 114.36C54.7378 113.45 49.1377 113.984 43.9346 115.151C42.4879 115.482 32.9978 117.626 35.6366 120.047C36.7594 121.054 39.1686 120.92 40.5945 120.936C42.5935 120.969 44.6172 120.882 46.602 120.862C50.278 120.786 61.2397 121.375 62.2033 122.424C63.0854 123.382 62.1058 123.758 61.1224 123.908C59.4351 124.19 57.762 124.524 56.0642 124.979C52.7607 125.808 49.5036 127.021 46.4805 128.684C44.8965 129.564 43.2737 130.51 41.9483 131.718C40.5699 132.941 39.1433 135.256 42.0765 135.38C45.9827 135.528 50.1304 133.393 53.8442 132.398C57.4518 131.431 61.6649 130.814 64.3783 130.542C68.9278 130.119 69.1732 131.247 67.5466 131.967C63.8831 133.574 61.0088 135.368 59.0298 137.32C57.6798 138.648 54.7961 141.468 54.7773 143.52C54.736 147.398 61.5569 141.021 62.49 140.26C65.3813 137.893 69.4977 136.278 73.0912 135.258C73.1442 135.244 73.1973 135.23 73.3034 135.201C73.6747 135.102 73.9192 135.377 73.9372 135.657C73.9126 135.777 73.9022 135.951 73.8103 136.032C72.5703 137.559 70.9797 138.838 69.8211 140.456C69.0652 141.455 67.0029 144.793 68.8192 145.842C70.7701 146.968 74.7544 141.465 75.9594 140.233C76.2739 139.921 76.8651 140.218 76.7666 140.699C75.9208 143.484 70.7741 150.379 67.3385 147.319C64.7812 144.991 66.0297 141.586 68.2767 138.936C66.9684 139.571 65.7273 140.245 64.6104 141.17C62.783 142.626 61.3487 144.489 59.4398 145.853C57.2268 147.356 52.7304 147.765 52.443 144.146C52.2201 141.192 55.2307 137.997 57.1566 136.059C58.3758 134.879 59.7827 133.763 61.3525 132.831C57.4227 133.656 53.6312 134.786 49.7374 136.171C46.7172 137.207 40.0864 139.837 38.1779 135.686C36.2771 131.987 41.3398 128.811 43.9915 127.247Z" fill="#E088BD"/>
<path d="M76.8025 67.62C76.9928 67.0572 77.0601 67.0961 77.4107 67.3433C81.8515 70.7593 83.0203 77.6678 82.2171 80.6124C82.1186 81.0937 82.076 80.9345 81.5805 80.783C76.4482 79.0307 75.0322 72.4728 76.8025 67.62Z" fill="#F6DCEC"/>
<path d="M155.74 52.3825C155.867 52.0073 156.508 52.0632 156.501 52.463C156.515 52.516 156.491 52.6364 156.505 52.6894C156.743 53.3649 159.226 56.0544 159.595 56.5811C160.513 58.0979 161.286 59.7103 161.9 61.3654C162.166 62.147 162.337 62.7836 162.129 63.0669C162.426 63.3284 162.724 63.5898 163.074 63.8371C163.439 64.1374 162.994 64.5979 162.618 64.4709C158.098 62.6684 154.104 57.313 155.74 52.3825Z" fill="#F6DCEC"/>
<path d="M129.781 102.782C131.154 99.6275 134.839 98.5263 137.047 101.46C137.872 99.0216 140.31 98.9939 141.507 100.493C141.67 100.676 141.437 101.08 141.197 101.031C141.143 101.045 141.129 100.992 141.076 101.006C141.406 101.6 141.382 102.573 140.577 103.812C139.864 104.97 138.814 105.934 137.445 106.13C136.741 106.262 136.087 106.153 135.365 106.005C133.599 105.569 131.931 104.651 130.617 103.354C130.458 103.396 130.337 103.372 130.164 103.361C129.976 103.298 129.665 102.983 129.781 102.782Z" fill="white"/>
<path d="M139.255 86.1412C139.366 84.8603 140.483 83.9355 141.778 84.1003C143.502 84.3777 145.093 86.2828 145.519 87.8745C145.931 89.413 145.279 91.0095 143.464 90.8135C141.369 90.6356 139.024 88.2502 139.255 86.1412ZM141.022 87.4305C141.447 88.1694 142.904 89.9969 143.961 89.4861C144.661 89.128 144.161 87.8973 143.912 87.3952C143.802 87.1972 143.678 86.9461 143.515 86.7624C143.515 86.7624 143.515 86.7624 143.448 86.7235C142.973 86.2252 142.123 85.6 141.391 85.6256C140.514 85.747 140.745 86.8223 141.022 87.4305Z" fill="#E088BD"/>
<path d="M126.262 86.0401C129.233 85.244 130.706 88.8299 130.164 91.477C129.897 93.027 129.028 94.4539 127.596 94.8377C122.036 96.157 121.805 87.2342 126.262 86.0401ZM125.022 93.0824C125.39 93.6091 126.034 93.8914 127.057 93.6743C129.328 93.2364 129.379 89.1852 127.8 87.9594C127.152 87.4507 126.501 87.5683 125.911 88.1244C124.769 89.1695 124.121 91.8451 125.022 93.0824Z" fill="#E088BD"/>
<path d="M145.938 74.7973C146.421 73.4169 147.883 73.9918 148.987 74.7194C149.125 74.1708 149.276 73.6753 149.601 73.1902C149.795 72.8538 150.181 72.8074 150.556 72.9343C151.777 73.46 152.006 75.1615 151.933 76.3752C151.877 77.0156 150.887 79.8968 150.377 79.6922C148.193 78.9695 145.152 77.1688 145.938 74.7973Z" fill="#E088BD"/>
<path d="M106.415 83.9091C107.423 83.639 108.634 84.3381 109.512 85.0694C109.917 83.8235 110.708 82.5312 111.937 83.5098C113.612 84.8805 111.418 89.8471 110.463 90.103C109.614 90.3304 107.223 88.4121 106.313 87.3482C105.445 86.4435 104.558 84.4067 106.415 83.9091Z" fill="#E088BD"/>
<path d="M101.727 80.8437C101.892 80.4013 102.692 80.4145 102.675 80.9877C102.584 81.9218 102.681 82.9194 102.402 83.7901C102.314 84.0981 101.837 84.226 101.631 83.883C101.029 82.9073 101.356 81.7959 101.727 80.8437Z" fill="#FCF2F8"/>
<path d="M99.3948 80.843C99.6421 80.4924 100.085 80.6582 100.131 81.0438C100.224 81.815 100.105 82.643 99.8366 83.3404C99.6566 83.7298 99.1118 83.8189 98.9308 83.3556C98.6361 82.4679 98.9003 81.5441 99.3948 80.843Z" fill="#FCF2F8"/>
<path d="M143.399 72.7483C143.395 72.5218 143.458 72.3342 143.483 72.2139C143.528 71.7468 143.694 71.3044 143.86 70.8619C144.001 70.5398 144.44 70.4791 144.695 70.5814C145.017 70.7225 145.155 71.0267 145.081 71.3876C145.007 71.7486 144.948 72.1626 144.792 72.4317C144.627 72.8742 144.44 73.6634 143.796 73.3811C143.555 73.3319 143.417 73.0277 143.399 72.7483Z" fill="#FCF2F8"/>
<path d="M141.836 70.9493C141.921 70.415 142.625 70.2832 142.767 70.8138C142.895 71.2912 143.012 71.9421 142.606 72.3353C142.277 72.594 141.757 72.5628 141.682 72.0711C141.568 71.6466 141.83 71.3491 141.836 70.9493Z" fill="#FCF2F8"/>
<path d="M116.27 82.9173C116.532 80.2882 120.644 77.5943 123.032 77.8073C123.446 77.8669 116.214 83.5578 116.27 82.9173Z" fill="#E088BD"/>
<path d="M83.0949 133.544C82.2679 134.278 82.0747 135.467 81.3007 136.186C80.4879 136.972 79.1255 136.769 78.3904 137.421C77.7613 138.044 77.6431 139.725 77.4176 140.581C76.7338 142.698 75.8623 144.751 74.9767 146.751C74.5921 147.65 74.2464 148.482 73.8618 149.381C75.3034 144.787 77.4669 140.341 78.5475 135.673C79.4803 131.726 80.1583 127.678 80.6099 123.634C80.7955 121.992 82.3238 113.053 81.148 112.06C82.6744 113.3 83.4268 115.259 83.9244 117.116C85.3668 122.075 85.7338 127.265 85.8072 132.419C84.7566 132.53 83.8158 132.839 83.0949 133.544Z" fill="#FCF2F8"/>
<path d="M72.2788 157.482C72.3714 155.069 72.825 152.729 73.5193 150.439C74.3514 153.969 76.6549 157.048 80.4001 158.717C82.2126 159.54 84.3927 160.036 86.5509 160.026C86.9035 161.979 87.4152 163.889 88.0331 165.77C87.3472 166.181 86.704 166.752 85.9612 166.951C84.7268 167.225 84.0502 166.61 82.9389 166.282C81.2648 165.764 78.8906 165.604 78.5392 167.689C78.1633 169.893 79.5212 172.202 81.1044 173.654C84.0549 176.389 89.2933 178.113 93.0127 175.865C93.2637 175.741 93.4475 175.578 93.6843 175.401C97.6771 179.904 103.126 183.05 109.248 184.252C113.753 185.149 119.156 185.578 123.983 185.763C123.715 186.461 123.436 187.331 123.479 187.49C123.537 188.555 124.125 189.478 124.791 190.266C126.368 192.118 128.931 193.194 131.256 193.595C131.79 193.679 132.31 193.71 132.869 193.674C129.406 194.545 125.926 195.137 122.388 195.516C113.516 196.358 104.347 195.46 96.0818 191.988C88.3259 188.721 80.6496 183.841 76.5115 176.25C73.3239 170.508 72.0813 163.96 72.2788 157.482Z" fill="#FCF2F8"/>
<path d="M85.754 132.434C87.0842 132.305 88.4996 132.494 89.6498 132.754C93.6205 133.567 101.242 136.756 99.3872 142.143C98.4353 144.957 94.4722 144.598 94.2072 147.853C93.9668 150.988 95.3427 153.576 93.4605 156.526C91.9031 158.99 89.2684 159.98 86.484 159.987C85.3977 154.023 85.4398 147.814 85.5634 141.696C85.7119 138.643 85.7931 135.551 85.754 132.434Z" fill="#FCF2F8"/>
<path d="M73.4238 150.294C73.565 149.972 73.6531 149.664 73.7942 149.342C73.6673 149.718 73.5934 150.078 73.4665 150.454C73.4523 150.401 73.4381 150.348 73.4238 150.294Z" fill="#D8A388"/>
<path d="M73.4666 150.454C73.5935 150.078 73.6673 149.717 73.7943 149.342C74.1258 148.457 74.5246 147.611 74.9091 146.712C75.7806 144.659 76.7193 142.645 77.3501 140.542C77.5897 139.739 77.6938 138.005 78.3228 137.382C79.0049 136.744 80.4204 136.933 81.2332 136.147C81.9929 135.375 82.2534 134.225 83.0274 133.505C83.7625 132.854 84.7033 132.545 85.6867 132.395C85.7258 135.512 85.6446 138.604 85.5633 141.697C85.4398 147.814 85.3446 154.038 86.4839 159.987C84.3257 159.997 82.1456 159.501 80.3332 158.679C76.6021 157.063 74.3517 153.969 73.4666 150.454Z" fill="#F8E4F0"/>
<path d="M87.9806 165.784C88.0337 165.77 88.0337 165.77 88.0867 165.756C89.7238 164.862 91.9833 163.745 93.7219 164.928C97.0077 167.005 96.2825 172.999 93.5788 175.429C91.2299 172.818 89.3935 169.784 88.19 166.354C88.119 166.088 88.0233 165.943 87.9806 165.784Z" fill="#FCF2F8"/>
<path d="M81.0373 173.615C79.4541 172.163 78.0962 169.854 78.4721 167.65C78.8377 165.619 81.265 165.764 82.8718 166.243C83.9301 166.585 84.6739 167.239 85.8942 166.912C86.6369 166.713 87.3332 166.128 87.9661 165.731C88.0087 165.891 88.0513 166.05 88.147 166.195C89.3506 169.625 91.2542 172.697 93.5358 175.27C93.352 175.433 93.1151 175.611 92.8641 175.735C89.212 178.021 83.9348 176.365 81.0373 173.615Z" fill="#F8E4F0"/>
<path d="M138.571 192.033C141.196 191.216 143.724 190.254 146.277 189.172C147.098 188.839 151.306 187.142 148.541 185.95C147.83 185.629 145.811 186.795 144.948 186.969C143.646 187.205 142.259 187.121 140.964 186.957C138.48 186.599 136.243 185.89 133.685 185.893C131.3 185.907 127.769 185.886 123.916 185.724C124.107 185.162 124.34 184.758 124.474 184.836C121.81 181.683 116.965 178.034 119.461 173.555C121.414 170.018 125.973 169.422 129.435 170.883C133.595 172.611 136.703 176.783 139.254 180.364C142.739 179.999 146.342 181.137 148.991 183.384C148.199 183.824 147.407 184.263 146.668 184.689C148.006 185.013 149.56 185.506 150.142 186.829C150.252 187.027 150.255 187.253 150.192 187.441C150.128 187.628 149.93 187.738 149.718 187.795C146.465 189.236 143.13 190.584 139.792 191.706C137.606 192.462 135.212 193.502 132.909 193.607C134.727 193.177 136.637 192.665 138.571 192.033Z" fill="#FCF2F8"/>
<path d="M124.686 190.295C124.02 189.506 123.378 188.598 123.373 187.519C123.384 187.345 123.609 186.489 123.877 185.792C127.73 185.953 131.261 185.974 133.646 185.96C136.151 185.972 138.388 186.68 140.925 187.024C142.22 187.188 143.607 187.272 144.909 187.037C145.786 186.915 147.805 185.749 148.502 186.017C151.267 187.209 147.045 188.853 146.238 189.239C143.738 190.307 141.157 191.283 138.532 192.1C136.651 192.718 134.688 193.244 132.764 193.703C132.205 193.739 131.684 193.708 131.15 193.623C128.825 193.223 126.248 192.094 124.686 190.295Z" fill="#F8E4F0"/>
<path d="M182.038 167.08C180.752 159.521 188.391 159.805 193.56 159.785C193.172 161.31 192.665 162.811 192.022 164.234C192.942 164.272 193.915 164.296 194.835 164.333C194.956 164.358 195.115 164.315 195.196 164.407C195.196 164.407 195.21 164.46 195.264 164.446C191.721 166.931 187.615 168.372 183.467 169.654C182.751 169.107 182.244 168.276 182.038 167.08Z" fill="#FCF2F8"/>
<path d="M183.467 169.654C187.63 168.425 191.721 166.931 195.264 164.446L195.278 164.499C194.137 166.397 192.997 168.295 191.357 169.815C190.951 170.208 190.516 170.495 190.095 170.835C189.151 170.918 187.802 170.767 187.003 170.754C185.63 170.724 184.398 170.371 183.467 169.654Z" fill="#F8E4F0"/>
<path d="M61.148 180.878C61.1231 177.814 63.538 176.428 66.1348 176.358C66.4948 175.579 67.0565 174.917 67.7813 174.438C71.3623 171.886 78.219 174.769 78.4297 179.375C78.4335 179.602 78.1436 179.793 77.9418 179.676C76.5111 178.581 75.4092 177.228 73.7558 176.363C72.1167 175.551 69.7852 175.55 68.5659 176.73C69.0084 176.896 69.4509 177.061 69.8403 177.241C71.5078 178.159 72.8438 179.962 72.3579 181.969C71.9706 183.494 70.6518 184.302 69.1549 184.021C66.161 183.459 65.1139 180.612 65.6167 178.032C64.0355 178.285 63.0039 179.528 62.2594 181.206C62.0017 181.73 61.1699 181.384 61.148 180.878ZM70.3228 181.377C71.3156 180.201 68.8797 178.75 67.7257 178.263C67.6765 178.503 67.6414 178.797 67.6595 179.077C67.7135 179.915 69.2524 182.687 70.3228 181.377Z" fill="#E088BD"/>
<path d="M168.341 178.142C173.735 177.266 179.627 175.061 184.175 172.933C186.844 171.649 194.175 168.661 194.351 164.861C193.406 164.944 190.817 165.467 190.605 165.524C189.505 165.875 189.32 165.186 189.684 164.633C190.62 163.245 192.643 162.305 193.002 160.674C190.436 160.224 183.689 163.055 183.443 161.927C182.557 157.559 179.842 153.794 176.425 151.013C175.33 150.113 175.937 148.13 177.094 148.844C181.014 151.376 184.197 156.039 185.334 160.283C187.975 158.893 191.654 158.192 194.252 158.974C194.68 159.087 194.886 159.43 194.947 159.868C195.051 161.319 194.391 162.462 193.433 163.344C193.925 163.27 194.402 163.142 194.894 163.067C195.332 163.006 195.775 163.172 195.903 163.649C196.931 168.548 189.891 172.197 186.419 174.094C183.898 175.509 173.248 180.751 166.415 180.08C167.14 179.602 167.808 178.911 168.341 178.142Z" fill="#E088BD"/>
<path d="M156.955 85.777C156.799 85.1934 156.801 84.5671 157.112 84.029C158.235 81.8517 163.284 79.4751 163.908 83.2884C164.015 84.1127 163.708 84.8773 163.146 85.5396C162.153 86.7154 160.117 87.6024 158.552 87.2823C157.696 87.0568 157.14 86.4667 156.955 85.777Z" fill="#FCF2F8"/>
<path d="M98.8831 94.0018C100.385 92.1779 103.928 93.7304 105.373 94.8785C106.751 95.9878 107.075 97.8343 105.154 98.5195C103.446 99.1478 101.546 98.6335 100.09 97.6587C98.8654 96.9066 97.6819 95.4609 98.8831 94.0018Z" fill="#FCF2F8"/>
<path d="M122.649 156.381C128.415 161.774 134.637 166.532 140.651 171.573C143.286 173.767 146.168 175.611 148.973 177.589C150.375 178.578 153.022 181.451 155.003 181.205C154.988 181.152 155.013 181.031 154.999 180.978C154.938 180.54 154.785 180.182 154.619 179.772C154.314 179.058 153.888 178.319 153.689 177.576C153.661 177.47 153.646 177.417 153.685 177.35C153.572 176.925 153.829 176.401 154.296 176.447C156.097 176.59 157.127 176.826 158.875 176.983C157.617 175.045 155.478 173.855 153.983 172.095C152.201 169.9 151.409 167.156 150.129 164.712C146.976 158.677 141.992 153.871 138.207 148.232C137.934 147.85 138.514 147.468 138.811 147.729C141.768 150.064 144.178 153.115 146.492 156.02C148.48 158.558 150.602 161.174 152.063 164.08C153.524 166.987 154.533 169.901 156.955 172.152C158.769 173.827 160.579 175.275 161.339 177.687C161.562 178.31 160.972 178.866 160.413 178.902C158.736 179.01 157.296 178.941 155.877 178.525C156.618 179.805 157.271 181.393 156.327 182.328C156.196 182.477 156.037 182.52 155.931 182.548C154.015 183.46 151.706 181.633 150.12 180.807C147.337 179.335 144.561 177.463 142.05 175.52C138.445 172.676 134.942 169.578 131.414 166.599C127.954 163.66 124.533 160.653 121.992 156.899C121.757 156.45 122.337 156.067 122.649 156.381Z" fill="#E088BD"/>
<path d="M77.6834 105.71C75.4546 99.9383 72.8013 94.2805 71.3541 88.2428C69.0785 78.9014 69.7133 68.3254 73.6548 59.479C73.8982 58.902 74.6305 58.8764 75.0872 59.0952C79.4095 61.0077 83.5084 65.482 84.8939 70.2284C87.9746 66.446 93.7791 62.2182 98.4146 59.782C103.803 56.9734 109.617 54.9037 115.553 53.7113C125.471 51.6792 138.148 51.2395 147.621 56.0364C147.125 52.7006 149.406 48.905 151.594 46.6699C152 46.2767 152.573 46.2937 153.02 46.6859C159.086 51.7133 162.831 58.8982 164.889 66.3646C172.033 72.8661 175.269 83.8833 175.333 93.2485C175.42 103.12 171.83 110.734 168.308 117.535C168.244 117.723 167.54 117.855 166.822 117.933C158.704 127.956 144.642 133.202 132.226 134.823C118.32 136.616 103.025 134.288 91.8347 125.63C87.826 122.553 84.6338 118.916 82.1275 114.868C82.3286 117.316 82.3174 119.821 82.2144 122.408C82.1832 122.928 81.412 123.021 81.3371 122.529C80.573 116.706 79.8553 111.269 77.6834 105.71ZM91.9017 122.484C96.9168 126.77 103.094 129.664 109.542 131.234C122.828 134.555 137.591 132.987 150.102 127.474C156.966 124.441 163.056 119.795 167.224 114.129C170.201 108.896 173.153 101.452 173.272 94.2558C173.326 89.5784 172.688 84.8594 171.147 80.382C169.677 76.1699 166.344 70.5236 163.631 67.6115C163.323 67.5234 163.039 67.315 162.926 66.8906C162.858 66.8517 162.911 66.8375 162.897 66.7845C160.9 59.7567 157.458 53.9124 152.336 48.8025C150.163 51.0907 149.274 53.717 149.14 56.8236C149.476 57.0178 149.813 57.2119 150.096 57.4203C150.581 57.7453 150.288 58.5629 149.726 58.3725C144.314 56.6383 139.224 55.0452 133.488 54.6487C127.594 54.2949 121.594 54.8221 115.807 56.1452C110.232 57.4115 104.761 59.2755 99.6767 61.9458C94.1431 64.8501 89.8668 68.8391 84.8259 72.5211C84.681 72.6168 84.5749 72.6453 84.4015 72.6349C84.122 72.6529 83.8813 72.6036 83.743 72.2995C82.4722 68.8302 79.6144 63.6822 75.1395 61.4126C71.4321 70.708 71.5089 81.6052 74.6125 91.0658C76.2993 96.3001 78.7147 101.282 80.5077 106.488C80.6602 106.845 80.7597 107.217 80.8592 107.588C83.4594 113.26 87.0354 118.329 91.9017 122.484Z" fill="#E088BD"/>
<path d="M123.596 98.5822C128.137 97.7064 130.632 103.407 134.32 104.864C142.355 108.113 139.06 95.1778 145.718 94.9858C146.277 94.9498 146.317 95.7352 145.854 95.9162C140.454 98.0455 143.508 107.747 135.847 106.956C130.642 106.418 128.777 100.094 123.745 99.5656C123.211 99.4814 122.998 98.6856 123.596 98.5822Z" fill="#E088BD"/>
<path d="M131.567 95.6503C133.797 93.5743 135.818 91.7816 139.053 92.3934C140.55 92.6746 141.973 93.3168 143.47 93.5981C145.529 94.0697 148.151 93.8791 148.413 91.25C148.665 88.7942 147.289 86.206 145.886 84.3644C142.863 80.5115 137.722 77.4537 132.79 77.2968C129.351 77.1948 126.636 78.9459 124.513 81.8461C122.182 85.0296 120.351 89.4438 121.311 93.4512C122.52 98.8135 128.156 98.8386 131.567 95.6503ZM125.791 77.0681C133.313 71.1859 146.046 79.6585 149.406 86.8899C150.637 89.5738 150.92 92.9665 148.411 95.0605C145.611 97.3459 142.751 96.0084 139.725 95.1133C134.918 93.7286 133.198 99.1935 128.993 100.263C125.742 101.078 122.168 100.045 120.229 97.2666C115.7 90.9742 120.426 81.2353 125.791 77.0681Z" fill="#E088BD"/>
<path d="M107.038 86.8698C107.02 86.5903 110.437 89.3707 110.023 89.311C108.569 89.1889 107.085 88.108 107.038 86.8698Z" fill="white"/>
<path d="M100.061 185.406C101.047 186.962 101.54 190.924 99.9102 192.27C96.8351 194.8 92.3458 189.293 93.4531 186.21C94.4296 183.276 98.3917 182.783 100.061 185.406Z" fill="#F8E4F0"/>
<path d="M150.213 78.6558C148.55 78.817 147.038 77.63 147.282 77.053C147.437 76.7839 150.772 78.6197 150.213 78.6558Z" fill="white"/>
<path d="M155.522 171.683L192.383 119.102C193.04 118.585 194.458 120.479 194.458 120.479C194.772 120.168 159.077 170.731 157.322 173.305C156.712 172.729 156.117 172.206 155.522 171.683Z" fill="#F8E7F2"/>
<path d="M196.824 128.887C194.699 127.75 191.794 121.364 191.794 121.364C189.491 121.469 182.961 122.138 183.555 119.477C184.322 115.974 189.091 112.762 189.091 112.762C189.091 112.762 184.858 105.026 186.88 104.086C189.101 103.036 196.081 108.501 196.081 108.501C197.3 107.322 202.964 101.084 204.542 103.789C205.35 105.108 204.698 109.888 203.255 113.63C203.255 113.63 210.029 117.899 209.434 120.561C208.829 123.395 199.287 120.891 199.287 120.891C199.945 123.558 199.433 130.348 196.824 128.887Z" fill="#F8E7F2"/>
<path d="M74.6684 143.479C78.3207 132.492 81.7521 120.257 78.9183 108.62C78.6909 107.771 80.5478 107.274 80.7752 108.123C83.5737 116.869 82.7597 125.503 80.2687 134.245C77.6755 143.242 73.1893 152.177 73.643 161.722C73.8679 166.382 75.0592 171.464 77.1941 175.612C79.4105 179.852 83.1578 183.226 87.1978 185.783C95.1717 190.924 104.901 193.492 114.39 193.679C119.255 193.797 124.095 193.183 128.909 192.689C133.724 192.195 142.93 188.989 143.075 188.893C145.059 188.02 147.475 188.339 149.254 187.124C148.241 186.315 146.981 185.856 145.721 185.398C145.211 185.193 145.012 184.45 145.567 184.188C146.214 183.844 146.808 183.514 147.427 183.064C145.299 181.701 141.438 181.086 138.996 180.888C138.996 180.888 132.713 174.838 131.253 173.637C128.427 171.153 125.262 169.101 121.941 167.318C115.366 163.792 108.075 161.196 100.788 159.68C100.187 159.557 100.465 158.686 100.999 158.771C108.933 159.943 116.641 161.972 123.793 165.742C127.248 167.602 130.577 169.838 133.538 172.399C135.687 174.268 138.475 176.819 139.787 179.595C143.137 179.153 147.473 180.265 149.627 182.361C150.087 182.806 149.925 183.475 149.451 183.829C148.978 184.184 148.423 184.446 147.92 184.694C149.113 185.114 150.175 185.682 151.111 186.626C151.422 186.941 151.444 187.446 151.13 187.758C149.334 189.547 147.247 189.822 144.962 190.207C144.938 190.327 138.498 193.247 131.936 194.436C127.38 195.259 122.739 195.763 118.147 196.027C108.775 196.491 99.1531 194.748 90.7169 190.64C82.2135 186.493 75.6322 180.182 72.8545 171.088C69.8817 161.479 71.5342 152.791 74.6684 143.479Z" fill="#E088BD"/>
</svg>
