<svg width="169" height="22" viewBox="0 0 169 22" fill="none" xmlns="http://www.w3.org/2000/svg">
<path d="M153.759 9.89191V5.57646L168.135 5.60448V2.01761H149.948V21.213H153.703V13.4508L168.022 13.4788V9.91994L154.039 9.89191H153.759Z" fill="black"/>
<path d="M128.455 12.0216L132.574 6.33307L136.553 12.0496L128.455 12.0216ZM132.574 0L117.19 21.1569H121.841L125.989 15.4684L138.655 15.4964L143.026 21.185H147.678L132.574 0Z" fill="black"/>
<path d="M111.725 21.1289L93.9311 7.17374L93.9031 21.1009H89.8398V1.90552L93.791 1.8775L110.941 15.3002L110.969 1.96157H115.088L115.06 21.1289H111.725Z" fill="black"/>
<path d="M63.9192 9.89191L63.9472 5.57646L78.2947 5.60448V2.01761H60.1362L60.1082 21.213H63.8632V13.4508L78.1826 13.4788V9.91994L64.1994 9.89191H63.9192Z" fill="black"/>
<path d="M38.6149 12.0216L42.7342 6.33307L46.7134 12.0496L38.6149 12.0216ZM42.7622 0L27.3779 21.1569H32.0297L36.177 15.4684L48.8431 15.4964L53.2146 21.185H57.8663L42.7622 0Z" fill="black"/>
<path d="M0 1.8775V21.1009H4.09127V7.17374L21.8855 21.1289H25.2482V1.96157H21.1289V15.3002L3.95116 1.8775H0Z" fill="black"/>
</svg>
