<svg width="473" height="385" viewBox="0 0 473 385" fill="none" xmlns="http://www.w3.org/2000/svg">
<path d="M372.008 296.769C356.708 297.769 341.208 296.969 326.808 303.469C311.708 310.269 274.908 326.469 291.208 345.869C311.208 369.769 368.908 354.969 370.208 347.669C370.208 347.669 352.808 365.169 363.708 369.769C374.208 374.169 409.908 359.269 428.308 345.469C453.008 326.869 465.908 307.969 470.208 276.069C474.108 246.769 463.508 227.869 455.608 219.669C436.508 199.669 404.108 208.869 397.708 217.869C407.008 219.569 428.008 220.469 432.608 228.769C436.908 236.369 434.408 245.869 430.508 253.669C419.808 275.269 397.008 295.069 372.008 296.769Z" stroke="#F6DDEC" stroke-width="3" stroke-miterlimit="10" stroke-linecap="round" stroke-linejoin="round"/>
<path d="M25.9077 5.06901C28.8077 5.26901 31.7077 5.46905 34.7077 5.66905C35.8077 5.76905 37.0077 5.76903 38.0077 5.26903C38.7077 4.86903 39.1077 4.26902 39.7077 3.76902C42.1077 1.66903 45.7077 1.66902 48.8077 2.26902C56.1077 3.56902 63.4077 7.16905 67.1077 13.669C68.5077 16.069 69.0077 18.9691 68.3077 21.6691C64.3077 36.4691 30.1077 33.869 20.3077 27.769C10.5077 21.669 18.8077 25.4691 20.5077 20.1691C22.3077 14.4691 14.3077 4.36901 25.9077 5.06901Z" stroke="#F6DDEC" stroke-width="3" stroke-miterlimit="10" stroke-linecap="round" stroke-linejoin="round"/>
<path d="M35.7077 70.1691C27.2077 72.9691 19.1077 76.969 12.0077 82.069C-19.7923 105.169 32.9077 107.169 49.3077 103.369C46.3077 104.569 46.5077 109.369 49.0077 111.469C51.5077 113.569 55.0077 113.669 58.3077 113.369C77.1077 112.169 95.4077 104.469 109.508 91.869C136.608 67.669 84.1077 50.2691 66.3077 53.2691C64.7077 53.5691 62.7077 54.1691 62.3077 55.7691C61.9077 57.1691 62.8077 58.5691 63.8077 59.6691C68.5077 64.5691 75.4077 66.769 82.1077 66.569C67.1077 63.969 50.7077 65.1691 35.7077 70.1691Z" stroke="#F6DDEC" stroke-width="3" stroke-miterlimit="10" stroke-linecap="round" stroke-linejoin="round"/>
<path d="M131.308 321.869C131.308 328.869 150.208 321.969 150.208 321.969C150.208 321.969 123.508 340.969 133.508 354.269C141.608 365.069 169.008 354.469 179.508 352.769C173.808 356.769 167.308 363.069 170.008 369.469C171.808 373.969 177.308 375.669 182.108 376.469C197.408 379.069 209.908 375.169 224.508 372.169C227.608 371.569 231.508 371.569 233.008 374.369C234.608 377.369 231.908 380.769 229.408 383.169C235.008 382.969 240.308 378.969 242.008 373.569C246.208 360.469 228.108 345.169 218.708 338.969C208.908 332.569 197.908 328.169 186.808 324.569C174.908 320.669 167.608 312.369 162.408 301.869C160.608 298.769 131.308 310.869 131.308 321.869Z" stroke="#F6DDEC" stroke-width="3" stroke-miterlimit="10" stroke-linecap="round" stroke-linejoin="round"/>
<path d="M433.908 227.069C435.908 225.969 437.708 224.469 439.408 222.869C434.608 219.869 429.108 217.869 423.408 216.969C414.908 215.769 408.008 214.569 399.408 213.969C397.708 210.869 395.908 207.969 394.008 205.069C390.908 200.569 388.008 195.869 383.108 193.369C387.308 187.769 391.508 182.169 395.708 176.469C399.908 170.769 409.308 172.369 412.608 166.069C410.008 163.469 406.508 161.769 402.908 161.469C405.108 160.369 407.008 158.869 408.608 156.969C404.008 155.169 398.808 156.169 394.108 157.569C383.108 161.069 373.108 167.169 365.008 175.269C362.608 177.669 351.808 169.069 349.108 167.369C345.908 165.369 342.708 163.369 339.708 160.969C336.708 158.469 334.008 155.569 331.808 152.369C337.408 147.169 343.608 142.669 350.308 138.969C352.808 137.569 366.008 136.669 358.308 132.169C356.508 131.069 354.708 129.969 352.808 128.969C354.008 128.869 355.308 128.769 356.408 128.169C361.808 124.969 352.708 122.569 350.508 122.169C345.608 121.269 340.408 121.669 335.508 122.569C330.008 123.469 324.608 124.769 319.408 126.469C322.608 124.669 325.008 121.569 326.208 118.169C328.308 111.869 332.008 106.969 333.908 100.569C334.708 97.869 335.408 94.969 337.308 92.869C339.208 90.669 342.408 89.269 343.008 86.369C340.308 86.069 337.608 86.169 334.908 86.769C335.808 84.969 335.908 82.769 335.108 80.869C326.608 88.069 315.308 92.369 309.108 101.669C308.008 96.569 307.508 91.469 307.608 86.269C307.608 83.969 307.308 82.969 307.708 80.669C308.008 78.469 308.508 76.269 309.608 74.369C311.108 71.869 313.708 70.269 315.508 68.069C317.408 65.869 318.608 62.469 316.808 60.169C320.008 57.769 322.708 54.769 324.608 51.269C329.008 43.169 327.808 32.369 323.708 24.069C321.308 19.369 317.308 15.669 313.308 12.169C311.408 10.569 308.808 8.76902 306.708 10.169C301.908 13.369 307.508 22.769 298.708 18.969C292.808 16.369 287.208 13.669 281.408 10.869C275.208 7.86897 268.708 5.56902 261.908 4.66902C248.908 2.86902 235.708 3.36899 222.708 5.06899C211.708 6.46899 201.208 12.769 192.308 19.169C191.808 19.569 191.308 19.869 190.708 20.169C183.808 28.969 176.508 37.669 169.108 45.969C168.708 47.269 168.308 48.569 168.008 49.869C167.808 50.969 167.508 51.969 167.308 53.069C158.608 57.769 150.808 64.169 144.508 71.769C148.408 76.269 154.308 78.969 160.208 79.169C155.208 96.069 157.108 114.069 159.408 131.569C161.908 150.769 155.108 169.469 156.708 188.269C158.508 208.869 163.608 229.069 170.108 248.669C172.008 254.469 174.108 260.369 176.908 265.869C180.808 273.469 185.908 280.369 191.408 286.969C201.008 298.569 211.608 309.469 223.808 318.269C236.008 327.069 250.108 333.569 264.908 335.969C291.408 340.169 318.708 337.169 343.308 326.669C359.108 319.869 374.308 306.969 385.008 293.569C389.908 287.369 393.808 280.369 396.408 272.869C399.208 264.969 402.708 257.369 404.608 249.069C404.708 248.469 404.908 247.769 405.308 247.269C405.608 246.869 406.108 246.669 406.608 246.369C417.508 241.069 429.108 237.169 440.308 232.469C438.408 230.469 436.208 228.669 433.908 227.069Z" fill="white"/>
<path d="M327.108 183.569C325.408 192.269 322.408 200.769 318.308 208.669C314.008 216.969 309.108 223.369 301.808 229.369C303.508 224.469 305.308 219.469 307.008 214.569C300.408 219.169 298.708 227.969 295.308 235.269C293.008 240.069 289.708 244.569 285.708 248.169C284.308 249.469 273.808 254.469 273.708 255.069C274.308 252.169 274.908 249.369 275.508 246.469C252.508 274.569 232.708 272.269 232.508 272.569C232.508 272.569 237.108 268.669 240.808 265.669C228.908 271.569 216.608 270.469 203.408 269.569C196.308 269.169 189.008 266.969 182.808 263.669C172.808 258.269 168.108 249.669 165.208 238.869C161.008 223.669 159.708 207.869 158.508 192.269C157.808 183.269 157.108 174.269 157.408 165.269C157.808 153.369 158.708 141.469 160.208 129.769C168.808 139.869 185.708 145.569 198.608 144.769C194.608 145.869 190.708 147.169 186.808 148.669C189.508 150.269 192.908 150.269 196.108 149.969C204.908 149.269 213.208 146.769 221.608 144.469C226.808 143.069 237.708 144.269 241.608 140.069C239.308 142.669 234.008 148.569 234.108 148.969C234.208 149.269 240.908 146.869 251.308 140.269C254.908 137.969 259.308 134.269 263.708 132.569C263.008 133.669 258.108 139.569 257.908 140.869C261.808 139.169 273.908 129.669 277.408 127.469C285.408 122.469 290.208 118.969 298.408 117.169C296.608 118.469 295.008 120.069 293.908 121.969C300.008 120.169 305.408 116.369 309.208 111.269C307.608 113.369 312.508 121.769 313.208 124.069C314.508 128.369 314.808 128.369 310.808 129.969C307.908 131.169 305.208 132.569 302.708 134.269C300.508 135.769 298.808 137.469 296.908 139.269C299.808 138.969 302.708 138.769 305.508 138.469C301.308 141.469 296.808 144.669 294.708 149.469C294.508 149.869 294.308 150.469 294.708 150.869C294.908 151.069 295.208 151.069 295.508 151.069C296.908 151.169 298.308 150.969 299.608 150.669C295.008 153.169 291.108 159.369 294.208 164.169C298.108 170.069 304.008 167.069 308.908 164.169C318.308 158.569 319.208 158.169 328.608 152.569C327.608 153.169 329.308 165.069 329.208 166.269C329.008 172.169 328.208 177.869 327.108 183.569Z" fill="#FCF2F8"/>
<path d="M143.508 118.669C137.708 119.269 132.308 121.769 127.108 124.369C118.008 128.869 109.408 136.369 105.208 145.669C103.908 148.669 103.108 152.069 104.108 155.069C104.408 155.969 104.908 156.769 105.708 157.269C106.808 157.969 108.308 157.769 109.508 157.369C114.008 156.069 118.208 153.569 121.408 150.169C118.408 156.669 115.408 163.369 115.508 170.469C115.508 170.969 115.608 171.569 116.008 171.769C116.308 171.969 116.708 171.769 117.108 171.669C122.808 169.469 127.708 167.069 133.708 167.169C140.008 167.269 146.408 167.269 152.708 166.469C153.708 166.369 154.808 166.169 155.608 165.469C156.708 164.569 156.908 162.969 157.108 161.469C158.008 151.469 158.308 141.369 158.008 131.269C157.908 127.269 158.908 123.369 155.108 121.069C151.808 118.969 147.508 118.269 143.508 118.669Z" fill="white"/>
<path d="M157.308 122.769C149.408 110.069 130.108 121.769 121.608 127.269C115.508 131.269 109.908 136.169 106.008 142.269C103.708 145.869 100.108 152.869 105.108 155.869C107.008 157.069 107.008 158.869 107.108 156.869C107.508 152.269 111.108 144.869 113.208 142.369C117.108 137.769 121.808 134.069 126.808 130.769C135.608 125.069 146.108 117.369 156.408 123.569C156.908 123.969 157.608 123.269 157.308 122.769Z" fill="white"/>
<path d="M313.008 24.669C311.108 21.969 305.208 18.269 302.608 22.169C302.708 21.969 315.908 40.469 316.108 39.369C317.108 34.169 314.708 26.869 313.008 24.669Z" fill="#FCF2F8"/>
<path d="M308.508 10.469C304.108 9.069 303.508 14.569 304.708 18.969C304.908 19.669 305.708 20.669 306.208 20.269C307.108 19.469 308.708 17.369 309.708 16.769C311.008 15.869 321.308 24.269 323.208 28.269C323.608 29.069 324.108 27.669 324.008 26.869C323.608 21.369 313.608 12.069 308.508 10.469Z" fill="white"/>
<path d="M181.708 48.269C168.708 49.069 152.308 62.169 144.408 71.969C142.108 74.869 150.408 77.669 152.608 74.569C159.908 64.069 179.908 48.369 181.708 48.269Z" fill="white"/>
<path d="M262.608 5.56895C251.308 4.06895 239.708 4.36894 228.608 6.36894C218.008 8.26894 207.308 11.6689 198.408 17.3689C189.008 23.3689 178.308 32.569 172.808 42.269C172.008 42.969 171.508 44.069 171.808 45.169C171.808 45.369 171.908 45.569 171.908 45.669C172.208 46.969 174.108 48.8689 175.008 47.8689C193.208 27.2689 199.108 20.969 225.608 13.069C244.308 7.56895 267.508 8.66898 283.408 11.969C284.408 12.269 272.108 6.86895 262.608 5.56895Z" fill="white"/>
<path d="M436.908 221.169C432.908 217.769 426.708 217.969 421.708 217.069C415.008 215.769 409.108 214.069 402.108 214.369C395.108 214.669 388.208 215.569 381.308 216.469C374.508 217.369 366.208 218.269 360.708 222.669C359.908 223.269 360.608 224.469 361.508 224.569C367.608 224.969 382.208 223.569 388.608 223.269C393.508 222.969 415.408 219.069 422.208 218.569C428.008 218.069 428.208 221.769 432.208 225.769C435.208 228.769 440.008 223.869 436.908 221.169Z" fill="white"/>
<path d="M357.108 128.069C357.608 127.869 358.008 127.569 358.308 127.269C358.708 126.969 359.108 126.569 359.008 126.169C358.908 125.769 358.508 125.569 358.208 125.369C354.208 123.369 349.508 122.669 345.008 122.669C340.108 122.669 335.208 124.669 330.508 124.669C321.908 126.369 312.508 128.069 304.208 131.169C302.908 131.669 314.508 132.769 321.908 131.269C329.408 129.769 343.508 127.569 353.008 128.969C354.408 129.169 355.908 128.769 357.108 128.069Z" fill="white"/>
<path d="M165.608 31.469C166.908 32.269 173.308 38.1689 174.908 36.3689C172.808 38.8689 171.108 41.369 169.908 44.169C175.608 36.069 181.908 28.1689 188.408 20.5689C188.008 20.5689 187.708 20.469 187.408 20.469C177.708 19.369 167.808 20.4689 158.508 23.3689C159.308 27.7689 162.308 29.269 165.608 31.469Z" fill="#FCF2F8"/>
<path d="M281.608 171.169C280.708 172.469 279.808 173.969 279.708 175.469C279.608 177.869 281.308 180.169 283.508 181.269C292.708 186.169 303.608 178.869 312.108 175.369C308.608 178.469 305.108 181.569 302.808 185.669C312.208 182.369 321.608 178.869 331.008 175.769C335.808 174.169 351.108 167.869 355.808 170.269C349.708 166.869 343.108 164.469 337.408 160.369C335.308 158.869 330.608 155.869 330.308 152.969C330.108 150.669 336.808 144.469 339.308 144.369C320.508 145.269 292.808 155.269 281.608 171.169Z" fill="#FCF2F8"/>
<path d="M157.308 165.169C157.708 153.269 158.608 141.369 160.108 129.669C164.808 135.269 171.408 138.769 178.408 141.069C178.508 134.669 178.808 128.369 178.508 122.069C178.308 117.369 178.708 107.269 181.208 100.369C178.408 102.269 175.908 107.269 175.908 107.269C176.608 98.869 180.908 94.869 185.008 88.869C182.108 90.069 178.708 92.969 175.008 96.669C174.908 95.269 175.808 93.969 176.608 92.769C180.808 86.869 185.908 81.069 189.508 74.869C192.408 69.969 194.008 64.169 196.408 58.869C197.108 57.369 195.608 57.069 195.708 55.669C195.108 60.069 192.808 64.169 189.408 66.869C180.908 73.569 171.008 79.469 160.208 79.869C158.608 92.969 158.708 106.269 160.208 119.369C160.908 124.869 159.408 130.069 158.808 135.669C158.008 142.069 157.408 148.569 157.008 154.969C155.908 173.169 156.608 191.669 159.908 209.669C159.308 203.869 158.808 198.069 158.408 192.369C157.608 183.169 156.908 174.169 157.308 165.169Z" fill="#FCF2F8"/>
<path d="M439.308 232.669C435.408 227.969 411.908 231.269 406.608 232.469C384.608 237.669 369.808 256.069 355.008 272.069C359.408 271.369 363.608 269.869 367.408 267.669C363.408 270.069 358.908 279.569 355.208 283.269C350.708 287.769 346.408 291.269 340.708 294.169C333.708 297.769 325.808 299.669 309.608 299.569C312.808 301.269 316.208 302.469 319.708 302.969C302.408 306.069 284.108 302.869 268.808 294.269C271.208 296.969 273.708 299.569 276.108 302.269C263.308 301.569 252.408 294.069 242.408 286.769C236.808 282.669 228.708 274.969 223.808 269.969C201.608 269.069 175.808 258.969 173.308 255.969C175.408 261.169 177.808 266.269 180.408 271.169C193.208 294.769 211.508 314.469 235.808 325.869C260.108 337.269 287.908 340.269 314.408 335.969C332.608 333.069 348.908 324.069 364.708 314.469C371.608 310.269 377.308 304.969 382.108 298.469C392.508 284.269 400.308 268.469 402.608 250.969C402.708 250.369 402.808 249.669 403.208 249.169C403.408 248.869 403.708 248.669 404.008 248.469C405.908 247.169 408.108 246.369 410.308 245.669C419.708 242.569 429.008 238.969 437.908 234.869C438.908 234.369 439.908 233.369 439.308 232.669Z" fill="#FCF2F8"/>
<path d="M223.808 270.069C218.408 264.569 212.508 258.169 208.308 251.769C205.008 246.769 198.808 232.669 201.008 226.469C199.808 229.969 198.608 233.469 197.408 236.969C191.008 222.369 189.408 205.769 193.008 190.269C188.508 194.869 187.408 199.669 186.508 205.569C183.308 201.169 183.708 195.069 184.708 189.969C185.808 184.569 187.708 179.269 187.508 173.869C184.908 178.769 182.408 183.769 179.808 188.669C181.808 177.069 182.308 165.169 181.308 153.469C180.208 155.069 178.908 156.469 177.308 157.569C177.708 151.969 178.408 146.469 178.508 140.869C171.508 138.569 164.908 135.069 160.208 129.469C158.708 141.269 157.808 153.169 157.408 164.969C157.108 173.969 157.808 182.969 158.508 191.969C159.008 197.769 159.408 203.569 160.008 209.269C160.408 211.569 160.908 213.969 161.408 216.269C164.408 229.669 168.208 243.069 173.408 255.769C188.408 266.269 219.808 270.469 223.808 270.069Z" fill="#F8E7F2"/>
<path d="M195.708 55.569C195.708 55.469 195.708 55.369 195.808 55.169C195.808 55.269 195.708 55.469 195.708 55.569Z" fill="#F6C3B2"/>
<path d="M177.908 219.769C172.908 209.869 171.008 199.269 175.108 188.969C178.208 180.969 181.108 172.469 180.208 163.969C180.108 162.569 179.408 160.669 177.908 160.769C177.408 160.769 176.908 161.069 176.408 161.369C174.108 162.769 171.708 164.269 169.408 165.669C164.908 168.469 158.208 167.269 152.808 167.369C146.008 167.469 139.108 165.869 132.308 166.869C121.908 168.369 113.508 175.669 106.008 183.169C99.3078 189.869 94.4078 198.269 92.0078 207.369C90.8078 211.769 90.2078 216.469 91.4078 220.869C91.7078 221.969 92.3078 223.169 93.3078 223.869C95.5078 225.269 98.3078 223.169 100.008 221.169C102.308 218.569 104.508 215.869 106.708 213.169C102.608 221.669 100.808 231.269 101.508 240.769C101.608 242.169 101.108 242.269 101.408 243.669C102.608 249.569 103.508 255.469 108.608 259.369C109.508 260.069 110.408 260.769 111.508 260.969C113.408 261.269 115.208 260.069 116.208 258.469C118.408 254.869 118.708 248.769 119.108 244.569C119.408 241.669 119.608 238.469 121.608 236.269C120.808 237.069 123.008 243.569 123.308 244.669C124.108 247.869 125.108 250.969 126.208 253.969C129.208 262.069 136.608 272.169 145.408 274.569C147.208 275.069 149.208 275.069 150.708 273.969C151.808 273.069 152.408 271.669 152.708 270.269C153.908 265.469 152.308 262.069 150.808 257.569C149.208 252.769 147.608 247.969 147.208 242.969C150.108 245.569 153.108 248.169 156.208 250.569C158.108 252.069 160.108 253.569 162.408 254.569C164.808 255.569 168.208 256.669 170.908 256.069C172.408 255.769 173.908 254.769 174.308 253.269C174.508 252.369 174.308 251.469 174.108 250.669C173.508 248.469 172.608 246.469 171.408 244.569C168.908 240.769 165.108 237.369 164.908 232.869C167.508 234.569 170.408 236.169 173.408 236.869C176.508 237.669 179.808 237.569 182.608 236.069C184.608 234.969 183.808 232.369 183.508 230.069C183.208 227.769 181.908 225.769 180.608 223.969C179.408 221.969 178.908 221.769 177.908 219.769Z" fill="white"/>
<path d="M387.008 174.669C391.208 173.169 395.608 171.269 400.008 172.169C394.308 178.369 388.708 184.669 383.008 190.869C379.308 187.869 371.208 183.769 370.508 178.769C375.208 176.569 381.808 176.569 387.008 174.669Z" fill="#FCF2F8"/>
<path d="M308.008 104.369C309.108 111.069 311.008 117.569 313.708 123.769C314.308 125.069 314.908 126.369 316.208 126.969C325.908 131.169 334.308 98.169 335.808 92.769C332.908 95.669 329.908 98.369 327.008 101.269C326.008 102.269 317.408 109.069 317.408 109.669C317.308 107.069 318.508 104.469 319.908 102.469C318.108 103.169 308.708 108.669 308.008 104.369Z" fill="#FCF2F8"/>
<path d="M188.608 22.969C189.408 21.969 190.208 21.069 191.108 20.169C180.608 15.769 168.008 19.069 157.108 20.969C156.108 21.169 155.508 22.3689 155.808 23.3689C157.208 29.5689 162.808 33.4689 168.308 35.8689C170.308 36.7689 172.808 37.769 175.408 38.469C176.208 37.169 177.108 35.969 178.108 34.669C170.808 33.269 162.908 30.9689 160.208 24.3689C165.708 23.3689 171.208 22.169 176.808 21.769C180.908 21.369 184.808 21.869 188.608 22.969Z" fill="#E088BD"/>
<path d="M194.908 54.169C187.108 72.769 164.908 85.169 147.708 71.369C159.408 59.569 171.908 50.269 188.908 48.069C189.908 47.969 190.308 46.469 189.208 46.169C171.208 42.269 154.308 58.269 142.908 69.969C142.108 70.769 142.008 72.269 142.908 73.169C161.908 90.869 190.608 78.869 197.008 55.169C197.408 53.869 195.508 52.969 194.908 54.169Z" fill="#E088BD"/>
<path d="M306.708 18.269C304.708 17.669 302.708 14.6689 302.808 16.5689C302.808 16.9689 302.908 17.9689 302.908 18.3689C297.108 17.6689 291.708 14.0689 286.708 11.5689C280.408 8.26895 273.808 5.96896 266.908 4.26896C253.208 0.868961 239.208 -0.231015 225.408 2.66899C212.408 5.36899 200.108 11.269 189.908 19.669C179.408 28.369 169.208 40.969 164.408 53.769C163.808 55.369 166.208 56.6689 167.208 55.3689C171.408 50.3689 174.408 44.569 178.208 39.269C182.508 33.269 187.508 27.669 193.308 22.969C204.508 13.769 218.608 7.86895 233.008 6.06895C247.608 4.26895 262.908 6.66899 276.608 11.669C284.808 14.669 296.108 23.969 305.508 21.269C306.308 20.969 306.608 18.469 306.708 18.269Z" fill="#E088BD"/>
<path d="M315.408 70.569C318.408 68.069 320.808 64.569 319.508 60.769C318.608 61.269 317.508 61.969 316.508 62.269C315.908 65.569 314.108 66.769 311.308 68.769C309.308 70.169 308.008 71.769 307.008 74.069C304.508 80.269 305.508 87.669 305.808 94.169C306.208 101.169 306.908 108.269 308.808 115.069C310.008 119.469 311.808 124.769 315.008 128.369C316.408 128.069 317.908 127.769 319.308 127.469C316.508 121.769 313.508 116.669 312.208 110.169C310.808 103.469 310.408 96.569 310.108 89.669C309.908 82.569 309.508 75.569 315.408 70.569Z" fill="#E088BD"/>
<path d="M163.008 69.069C167.508 61.469 176.808 58.169 185.208 58.169C181.008 66.169 171.308 70.469 163.008 69.069Z" fill="#F5DCEC"/>
<path d="M279.208 28.469C275.408 27.169 270.508 27.969 271.308 32.169C271.808 34.969 274.508 37.069 277.208 37.269C279.408 37.469 281.808 36.3689 282.908 34.3689C284.408 31.6689 282.208 29.469 279.208 28.469Z" fill="#E088BD"/>
<path d="M158.508 121.869C156.908 120.269 155.208 119.269 153.508 118.469C151.408 117.469 149.208 116.869 146.908 116.769C140.808 116.369 134.608 118.669 129.108 121.369C119.308 126.269 108.908 133.569 103.808 143.569C101.608 147.869 98.0077 157.369 105.408 158.869C109.908 159.769 114.308 157.469 118.408 154.369C117.308 156.369 116.408 158.569 115.608 160.769C114.208 164.969 112.408 170.669 115.708 174.369C117.008 175.769 119.508 173.969 118.408 172.269C116.208 168.869 118.308 163.569 119.608 160.069C121.708 154.469 124.908 149.469 129.008 145.169C130.308 143.769 128.508 141.269 126.908 142.469C121.308 146.669 115.808 153.269 108.808 155.069C99.8077 157.369 108.008 142.969 110.308 140.069C116.608 132.269 125.908 125.969 135.208 122.469C140.108 120.669 145.608 119.469 150.608 121.169C153.608 122.169 155.808 123.869 158.208 126.769C158.408 124.969 158.408 123.369 158.508 121.869Z" fill="#E088BD"/>
<path d="M364.608 136.069C364.608 132.569 359.408 131.169 356.708 129.869C359.208 128.869 365.408 127.169 362.708 124.969C361.508 123.969 353.808 120.769 347.408 120.869C335.708 119.869 323.608 123.869 312.508 126.669C301.108 129.469 288.408 131.069 278.808 138.369C277.808 139.069 278.608 140.469 279.708 139.969C290.708 135.169 302.008 133.669 313.608 131.069C319.908 129.669 325.908 127.369 332.208 125.969C342.308 123.769 349.108 124.569 349.108 124.569C347.608 126.269 346.908 128.769 347.408 130.969C347.808 133.269 349.308 135.269 351.308 136.369C347.008 140.269 340.108 142.969 335.008 145.869C328.708 149.469 322.408 152.969 316.108 156.569C311.508 159.169 306.908 161.969 302.208 164.369C297.408 166.769 290.408 170.469 284.808 169.169C284.008 168.969 283.408 170.169 284.208 170.569C293.508 175.069 306.508 166.469 314.608 162.269C321.008 158.869 329.008 154.969 335.208 150.969C341.908 146.569 347.608 143.369 354.308 138.969C356.508 139.269 364.508 137.969 364.608 136.069Z" fill="#E088BD"/>
<path d="M298.308 167.969C293.808 168.569 290.308 173.169 286.908 175.769C286.008 176.469 286.808 177.669 287.808 177.269C289.908 176.369 298.508 171.869 301.908 168.869C302.908 167.769 299.608 167.769 298.308 167.969Z" fill="#E088BD"/>
<path d="M163.008 79.969C161.508 79.769 160.108 79.369 158.808 78.669C158.808 78.869 158.708 79.069 158.708 79.269C156.108 91.469 154.908 104.569 156.508 117.169C157.108 121.869 157.408 126.469 157.308 131.169C157.108 143.269 155.108 155.369 154.308 167.569C155.808 167.569 157.208 167.469 158.608 167.369C158.608 167.269 158.608 167.069 158.608 166.969C159.208 154.069 161.408 143.169 161.608 130.669C161.708 126.469 161.508 122.069 160.908 117.369C159.508 105.569 160.608 91.769 163.008 79.969Z" fill="#E088BD"/>
<path d="M396.008 203.269C387.708 191.269 374.808 180.869 363.108 173.369C352.008 166.269 340.208 159.469 331.408 149.569C330.308 150.369 329.308 151.169 328.208 151.969C334.308 161.569 345.908 167.669 355.108 173.569C371.408 184.069 389.308 197.469 397.008 215.869C398.708 215.769 400.408 215.769 402.108 215.969C400.208 211.569 398.808 207.269 396.008 203.269Z" fill="#E088BD"/>
<path d="M400.608 249.969C399.508 257.569 397.408 265.069 394.508 272.069C386.908 289.969 373.908 305.169 357.708 315.869C326.308 336.569 284.908 340.569 249.408 329.069C240.108 326.069 229.508 320.169 221.408 314.769C209.908 305.669 200.908 297.369 192.208 285.469C185.208 275.869 179.108 265.469 174.308 254.669C173.608 255.269 171.708 255.669 170.808 255.969C175.108 267.469 181.408 278.269 188.508 288.069C195.408 297.669 204.708 307.669 215.008 315.169C238.708 333.869 270.908 341.769 300.708 339.469C340.708 336.369 379.608 315.169 397.108 277.869C401.208 269.269 404.408 258.669 405.708 247.869C403.908 248.669 402.308 249.369 400.608 249.969Z" fill="#E088BD"/>
<path d="M365.808 333.669C363.908 332.469 361.708 331.769 359.408 331.569C359.208 329.469 358.508 327.369 357.408 325.569C355.508 322.569 351.208 319.869 347.908 322.169C346.708 322.969 347.008 324.569 348.308 325.069C354.208 327.369 355.208 331.269 355.308 331.669C353.308 331.869 351.308 332.369 349.608 333.069C344.908 335.069 339.708 341.469 343.808 346.469C345.808 348.969 349.308 348.469 351.908 347.369C355.908 345.569 358.308 342.169 359.208 337.869C359.408 337.169 359.508 336.469 359.508 335.669C360.408 335.769 361.308 335.869 362.208 336.169C366.908 337.369 367.108 341.369 366.608 344.369C366.508 345.069 367.308 345.669 367.808 345.069C370.808 341.269 369.808 336.269 365.808 333.669ZM347.008 340.869C347.408 339.169 349.108 337.969 350.508 337.169C352.008 336.469 353.608 335.969 355.208 335.769C355.008 337.369 354.508 338.869 353.708 340.169C352.508 342.069 345.808 346.369 347.008 340.869Z" fill="#E088BD"/>
<path d="M343.708 86.369C341.208 85.069 338.908 84.969 336.608 85.569C337.108 84.769 337.408 83.869 337.608 82.869C337.708 82.069 337.408 81.069 336.508 80.869C332.008 80.069 328.608 82.869 326.308 86.469C321.608 86.769 317.108 90.369 313.908 93.469C310.808 96.369 306.708 100.969 307.308 105.569C307.408 106.169 308.308 106.369 308.708 105.969C311.408 102.769 313.408 99.169 316.608 96.269C319.308 93.869 323.508 89.269 327.008 88.269C327.408 91.869 330.108 95.269 334.008 95.169C332.308 100.869 330.408 105.969 327.808 111.369C325.208 116.769 321.508 123.169 318.808 127.069C318.008 128.269 320.208 129.269 321.108 128.369C325.808 123.969 329.708 117.169 332.308 111.369C334.808 105.769 336.208 101.269 336.908 95.169C339.908 93.569 342.508 91.069 344.208 88.169C344.608 87.669 344.408 86.769 343.708 86.369Z" fill="#E088BD"/>
<path d="M414.308 166.069C412.408 162.869 409.308 161.969 406.108 161.369C407.508 160.769 408.808 159.969 410.008 159.169C410.908 158.569 411.308 157.069 410.408 156.269C406.608 153.069 397.608 154.969 393.508 156.869C381.908 159.169 371.208 166.969 362.808 175.969C363.908 176.569 365.008 177.269 366.108 177.969C370.508 173.269 375.608 169.169 381.208 165.969C385.208 163.669 390.508 160.169 395.108 159.569C394.308 163.869 396.308 168.569 400.008 170.969C394.508 175.669 389.608 180.469 385.508 186.569C384.608 187.869 383.808 189.169 383.008 190.469C384.108 191.469 385.108 192.569 386.108 193.669C387.108 191.969 388.108 190.269 389.208 188.669C393.508 182.269 398.108 178.069 400.908 173.469C405.508 172.969 410.808 171.169 414.108 167.869C414.608 167.369 414.708 166.569 414.308 166.069Z" fill="#E088BD"/>
<path d="M443.708 233.069C443.708 230.069 438.208 228.469 435.608 227.369C437.408 226.569 443.708 223.069 442.208 221.269C438.508 216.969 430.608 216.569 425.408 215.569C416.608 213.769 401.708 211.869 392.708 212.769C375.808 214.469 364.608 217.169 350.808 227.969C350.208 228.469 351.008 229.369 351.608 228.969C366.508 221.669 375.408 218.269 391.808 216.869C402.308 215.969 414.008 216.869 424.108 219.769C420.708 225.469 421.608 231.769 424.508 237.469C422.908 238.469 420.508 238.569 418.708 239.269C413.308 241.269 408.008 243.469 402.708 245.669C392.708 249.769 382.408 252.969 372.508 257.169C371.208 257.669 371.808 260.069 373.208 259.869C384.108 258.469 394.608 253.669 404.708 249.469C409.708 247.369 414.708 245.269 419.808 243.169C424.208 241.369 430.608 239.369 434.408 237.669C436.708 236.769 443.708 234.969 443.708 233.069Z" fill="#E088BD"/>
<path d="M143.408 143.669C134.108 147.469 127.208 158.069 125.408 168.369C126.608 167.869 127.908 167.369 129.208 166.869C134.408 152.169 144.108 143.369 143.408 143.669Z" fill="#F5DCEC"/>
<path d="M123.708 207.769C111.108 216.469 108.108 233.069 109.308 247.369C109.408 248.269 112.708 234.069 114.508 227.669C116.508 220.469 124.308 207.369 123.708 207.769Z" fill="#F5DCEC"/>
<path d="M136.908 240.769C135.908 233.169 137.808 216.969 137.408 217.669C129.708 233.269 130.508 250.269 142.608 260.569C143.308 261.169 137.808 247.469 136.908 240.769Z" fill="#F5DCEC"/>
<path d="M154.808 230.769C152.208 225.769 148.908 213.269 148.808 214.269C147.308 223.869 151.408 237.869 160.208 243.169C160.808 243.469 156.908 234.669 154.808 230.769Z" fill="#F5DCEC"/>
<path d="M167.608 217.969C165.708 214.869 162.608 207.469 162.408 208.169C160.508 214.769 166.408 224.169 172.108 227.369C173.008 227.969 169.308 220.769 167.608 217.969Z" fill="#F5DCEC"/>
<path d="M314.008 63.269C316.408 62.869 318.308 61.769 320.508 59.769C327.708 53.169 329.608 41.569 328.708 32.069C327.708 22.469 322.508 14.769 314.608 9.46899C311.608 7.46899 307.708 6.46898 304.808 9.26898C303.008 11.069 302.708 13.769 302.808 16.469C304.108 17.169 305.408 17.669 306.708 18.169C306.708 18.169 307.008 13.769 307.308 13.469C309.208 11.869 312.408 13.669 313.908 14.769C319.808 19.269 323.408 25.3689 324.008 32.8689C324.508 39.069 323.608 46.069 320.708 51.669C319.308 54.469 316.408 59.169 312.808 59.169C309.908 59.169 307.008 56.069 305.208 54.3689C304.508 53.6689 303.608 53.769 302.808 54.3689C299.908 56.6689 298.308 59.469 297.108 62.969C296.908 63.669 297.908 64.269 298.308 63.669C300.108 61.569 301.608 59.469 303.708 57.769C306.908 61.169 310.308 63.569 314.008 63.269Z" fill="#E088BD"/>
<path d="M283.508 39.469C282.808 39.769 282.208 40.1689 281.508 40.5689C277.408 41.6689 273.608 45.069 271.508 48.469C270.908 49.469 271.508 50.869 272.608 51.169C272.808 51.269 273.008 51.269 273.308 51.269C273.708 51.769 274.408 51.9689 275.208 51.8689C278.608 51.3689 282.308 47.769 284.008 44.669C284.808 43.769 285.408 42.769 286.008 41.969C287.308 40.369 285.008 38.769 283.508 39.469Z" fill="#FCF2F8"/>
<path d="M275.108 34.069C275.008 33.869 274.908 33.569 274.708 33.469L274.608 33.369C274.508 33.269 274.508 33.169 274.408 33.169C273.708 32.669 273.008 32.469 272.208 32.269C270.808 31.969 269.708 33.369 270.408 34.669C270.408 34.769 270.508 34.769 270.508 34.869C270.608 34.969 270.608 35.069 270.708 35.169C271.608 36.169 273.208 36.569 274.408 35.769C274.908 35.369 275.208 34.769 275.108 34.069Z" fill="white"/>
<path d="M174.208 161.569C168.508 168.569 159.808 168.769 151.508 167.969C142.708 167.169 134.608 165.669 126.008 168.469C116.908 171.469 109.508 177.169 103.708 184.669C95.6077 194.869 87.6077 206.669 92.3077 220.269C92.6077 221.169 93.0077 222.069 93.8077 222.669C94.6077 223.169 95.9077 223.169 96.4077 222.369C94.9077 212.069 100.908 201.569 107.308 193.469C115.408 183.269 128.308 174.769 141.908 174.969C154.008 175.169 171.308 178.669 176.108 162.769C176.508 161.669 175.008 160.669 174.208 161.569Z" fill="white"/>
<path d="M185.708 230.669C185.308 227.869 183.608 225.269 182.308 222.869C180.008 218.669 176.708 212.869 175.708 208.169C173.508 197.469 178.508 185.069 179.608 174.869C179.708 174.269 173.708 185.169 171.808 196.769C170.608 204.369 172.308 212.369 174.608 217.469C176.008 220.569 184.008 230.569 180.808 233.669C178.208 236.169 172.408 233.969 169.908 232.569C167.108 230.969 164.708 228.669 162.108 226.769C161.408 226.269 160.508 227.269 161.008 227.869C162.208 233.069 166.008 238.669 168.808 242.969C171.108 246.669 176.708 254.269 168.308 253.969C158.208 253.569 151.508 243.369 146.608 237.469L146.508 237.369C146.408 237.369 146.408 237.269 146.308 237.269C145.508 236.969 144.308 237.669 144.608 238.769C146.808 246.969 150.108 255.069 151.008 263.569C151.208 265.569 151.608 268.169 150.808 269.969C148.908 274.669 143.108 271.069 140.508 268.969C129.308 259.869 125.008 244.969 123.008 231.269C122.908 230.469 121.608 230.469 121.508 231.269C118.008 236.669 117.508 243.969 116.508 250.069C116.108 252.869 115.608 257.969 112.708 259.069C110.008 260.069 108.808 256.669 107.608 254.469C106.608 252.669 105.808 250.769 105.208 248.869C99.7077 232.569 107.708 214.969 113.808 203.669C114.408 202.669 113.208 201.569 112.308 202.169C109.608 204.069 105.008 209.669 102.108 213.769C101.008 215.269 98.3077 219.969 96.4077 220.569C91.8077 221.969 93.4077 212.269 93.7077 210.669C95.8077 197.569 104.508 184.269 115.408 176.769C121.008 172.869 127.708 169.369 134.608 168.669C141.408 168.069 148.108 169.569 154.908 169.669C161.808 169.769 174.108 169.169 176.808 161.269C177.008 160.769 176.308 160.269 175.908 160.569C163.108 169.769 148.808 163.569 134.608 164.569C120.708 165.569 107.108 175.469 99.5077 186.769C95.2077 193.069 91.5077 200.369 89.9077 207.869C88.9077 212.369 87.7077 220.269 91.2077 223.969C95.1077 228.169 99.2077 223.869 101.808 220.769C101.908 220.669 102.008 220.469 102.208 220.269C98.2077 233.069 98.8077 247.469 105.908 258.369C109.008 263.169 114.308 265.669 117.708 259.769C121.308 253.669 120.608 246.769 121.708 240.069C122.508 246.169 124.708 252.269 127.408 257.569C131.008 264.669 137.108 273.769 145.308 275.869C159.908 279.669 155.508 260.269 151.008 247.469C156.808 254.469 165.108 260.269 173.408 257.169C177.708 255.469 178.008 251.169 176.308 247.369C174.908 244.069 172.308 241.169 170.408 238.169C169.908 237.369 169.408 236.569 168.908 235.769C171.308 237.369 173.908 238.469 177.008 238.469C181.508 238.569 186.508 236.269 185.708 230.669Z" fill="#E088BD"/>
</svg>
