<svg width="426" height="405" viewBox="0 0 426 405" fill="none" xmlns="http://www.w3.org/2000/svg">
<path d="M423.1 262.4C423.9 258 424.6 253.4 423.1 249.2C416.4 230.7 386.7 239.9 373.8 244C346.8 252.7 360 263.3 382.7 265C376 279.6 361.5 290.4 345.6 292.7C340.5 293.4 335.1 293.4 330.4 295.5C323.1 298.7 318.7 306.2 312.8 311.7C303 320.9 287.9 323.4 275.2 319.3C269.4 317.4 264.5 311.1 259.3 309.6C251 307.3 238.5 311 230 312.2C224.4 313 218.6 313.8 213.9 316.8C209.2 319.8 205.7 325.8 207.4 331.1C209 336.2 214.3 339 219.3 340.7C231.8 344.8 245.8 344.3 258 339.4C257.1 348.6 263.6 357.3 271.8 361.4C280 365.5 289.7 365.9 298.8 365.1C355.6 360.5 413.1 320.1 423.1 262.4Z" stroke="#F6DDEC" stroke-width="3" stroke-miterlimit="10" stroke-linecap="round" stroke-linejoin="round"/>
<path d="M168.7 337.3C168.2 333 166.5 328.6 163 326.1C160.5 324.4 157.5 323.8 154.5 323.3C134.8 319.7 113.8 316.2 95.5001 324.4C88.9001 327.3 68.5001 334 60.3001 338L139 348C128.4 354.3 117.5 360.7 105.4 363.3C93.3001 365.9 79.6001 364.1 70.5001 355.7C62.7001 348.3 56.1001 332 43.1001 333.3C37.4001 333.8 32.9001 338.1 29.5001 342.7C25.4001 348.1 22.2001 354.2 20.1001 360.6C19.3001 363 18.7001 365.6 19.7001 367.9C20.8001 370.2 24.2001 371.3 25.8001 369.4C24.8001 378.5 24.9001 388.5 30.8001 395.5C37.0001 402.9 48.3001 404.4 57.6001 401.6C66.9001 398.8 74.7001 392.6 82.2001 386.5C83.0001 392.7 89.2001 397 95.4001 397.7C101.6 398.4 107.7 396.3 113.4 393.9C123.3 389.7 132.9 384.6 141.9 378.7C156.3 369.1 170.6 354.5 168.7 337.3Z" stroke="#F6DDEC" stroke-width="3" stroke-miterlimit="10" stroke-linecap="round" stroke-linejoin="round"/>
<path d="M352.8 133.6C354.6 134.6 356.6 135 358.5 134.6C359.6 134.3 360.8 134.2 361.7 134.8C362.5 132.1 364.3 129.6 366.6 128C367.1 127.7 367.6 127.4 368.2 127.5C368.8 127.6 369.3 128.2 369.6 128.7C371.8 131.9 374.9 136.1 377 139.4C380.1 144.4 382 150.1 382.5 155.9C382.9 160.3 382.4 165 379.9 168.7C378.8 170.3 377.5 171.6 376.3 173.1C372.5 178 372.2 184 369.7 189.6C360.5 210.3 351.3 234.1 335.2 250.4C322.2 263.5 311.5 279.2 299.5 293.3C296.5 296.8 293.9 299.2 290.3 302C287.1 304.5 283.9 307 280.8 309.5C280.3 309.9 279.8 310.3 279.5 310.7C279.1 311.3 278.8 311.9 278.5 312.6C276.6 317 273.5 320.9 269.5 323.7C268.7 324.3 267.6 324.7 266.9 324.1C266.5 323.7 266.4 323.1 266.3 322.5C266.1 319.7 266.4 316.8 267.3 314.2C265.1 315.6 262.9 316.9 260.7 318.3C260.1 318.7 259.2 319.1 258.7 318.5C258.2 318 258.5 317.2 258.8 316.6C260.6 313 261.8 310.1 264.3 306.7C264.8 306 265.3 305.3 265.6 304.5C267 301 267.8 298.8 269.7 295.5C271.9 291.6 273.4 287.4 275.2 283.4C277.9 277.4 281.4 271.8 284.8 266.3C278.7 270 274.5 272.9 268.4 276.5C239.4 293.6 208 302.5 174.5 304C170.8 304.2 167.1 304.1 163.5 303.7C159 308.5 153.4 312.1 147.8 315.7C140.2 320.6 132.6 325.5 124.5 329.6C118.8 332.4 112.9 334.8 107.4 338C105 339.4 102.8 341.5 100.4 342.7C97.7999 344 94.0999 344.3 91.1999 344.3C90.8999 344.3 90.5999 344.3 90.3999 344.1C90.0999 343.8 90.2999 343.3 90.3999 342.9C90.9999 341.3 91.6999 339.8 92.2999 338.2C90.1999 339 87.8999 339.1 85.7999 338.5C90.7999 330.9 95.8999 323.2 99.7999 315C103.1 308 105.7 300.6 106.6 292.9C107.4 286.1 103.8 278.9 101 272.8C96.8999 263.8 92.9999 254.7 90.5999 245.1C88.1999 235.5 87.2999 225.4 89.3999 215.7C92.1999 202.5 99.6999 189.8 107 178.6C114.2 167.6 123.2 157.9 133.6 150C151.5 136.4 172.9 133.4 194.5 127.1C201.7 125 209 123.1 216.4 121.9C220.7 121.2 224.4 122 228.6 120.1C231.9 118.7 234.8 116.6 237.9 114.8C243.9 111.3 250.2 109.4 256.7 107.2C253.7 104.6 252.1 100.8 250 97.5C247.8 94.1 245.6 90.6 244.6 86.7C243.6 82.8 243.9 78.3 246.4 75.1C246.6 74.8 246.9 74.5 247.2 74.4C247.5 74.3 247.8 74.3 248.1 74.4C257.8 75.6 266.5 77.2 275.5 81C274.1 77.7 272.4 74.6 270.5 71.6C277.1 68.1 285.8 69.3 291.3 74.4C295.2 78.1 298.3 82.5 300.3 87.5C302.3 92.5 303.5 97.7 304.6 102.9C308.7 103.1 312.8 103.9 316.7 105.3C320.1 106.5 324.2 107.3 327.4 109C329 109.9 330.7 110.7 332.1 112C334.4 114.1 336 116.8 338.7 118.5C341.9 120.6 343.7 124.2 346.1 127.1C347.4 129.5 350 132.1 352.8 133.6Z" fill="white"/>
<path d="M224.1 69.4999C221.2 61.9999 216.2 55.2999 210 50.1999C204.9 45.9999 195.4 39.1999 188.8 43.6999C188.3 44.0999 187.8 44.4999 187.6 45.0999C187.2 46.0999 187.8 47.1999 188.4 48.1999C191.6 53.3999 194.8 58.5999 198 63.7999C195.1 62.0999 192.2 60.2999 189.3 58.5999C183.2 54.9999 176.6 51.1999 169.5 51.9999C167 52.2999 164.5 53.2999 162.4 54.6999L164.9 55.9999C171.2 58.4999 177.6 60.8999 183.5 64.3999C194 70.5999 202.5 79.5999 210.9 88.3999C213.6 91.2999 216.3 94.1999 218.4 97.4999C223.2 105 223.1 113.7 224.2 122.3C227.6 120.1 230.9 118 234.3 115.8C234.7 115.6 235.1 115.3 235.3 114.9C235.6 114.5 235.6 113.9 235.6 113.4C235.7 97.9999 229.6 83.8999 224.1 69.4999Z" fill="white"/>
<path d="M125.2 112.1C121.8 115.8 118.5 119.4 115.1 123.1C111.8 126.7 108.5 130.3 105.9 134.5C103.3 138.7 101.6 143.5 101.8 148.3C101.9 150.2 102.3 152.2 103.5 153.7C106.8 157.8 112.4 154.1 115.7 152.1C120 149.5 124.2 146.8 128.6 144.2C132.5 141.9 137 140.4 141.2 138.6C138.6 142.3 136 146 133.9 150.1C131.7 154.5 128.4 162.1 132.6 166.4C134.1 167.9 136.3 168.2 138.2 169.2C145.6 169.2 151.2 164.6 157.1 160.9C163 157.2 169.2 153.8 175.5 150.7C188.1 144.5 201.3 139.7 214.9 136.3C218.8 135.3 222.9 133.5 224.5 129.8C225.4 127.8 225.3 125.6 225.3 123.4C225.3 121.8 225.3 120.2 225.2 118.7C225 102.3 214.5 86.9 201.3 77.2C195.7 73.1 190.2 68.6 184.1 65.4C180.7 63.6 177.1 62.1 173.5 60.6C170.7 59.4 167.9 58.3 165.1 57.1C161.6 55.7 158.1 54.2 154.5 53.1C149.9 51.7 145.1 50.9 140.2 50.6C132.9 50.2 125.4 50.9 118.4 52.9C115.3 53.8 111.9 55.2 110.5 58.1C110.3 58.6 110.1 59.2 110.2 59.7C110.4 60.3 110.9 60.7 111.4 61.1C115.4 63.9 119.8 66.2 124.5 67.9C121.8 67.2 118.8 67.6 116.4 69C111.3 71.9 105.9 72.5 100.4 74.5C97.4999 75.6 94.4999 76.7 91.8999 78.5C90.2999 79.6 88.6999 81 87.8999 82.8C87.0999 84.6 87.0999 86.9 88.3999 88.4C89.5999 89.8 91.4999 90.3 93.2999 90.6C98.7999 91.5 103.9 89.5 109.3 90.7C107.6 90.3 101.6 95.8 100.2 96.9C97.1999 99.2 94.1999 101.8 91.4999 104.5C86.0999 109.8 82.2999 114.4 79.8999 121.8C79.4999 123.2 79.0999 124.6 79.3999 126C79.9999 128.3 82.5999 129.7 85.0999 129.6C87.4999 129.5 89.7999 128.4 91.8999 127.3C97.5999 124.4 103.3 121 109.3 118.4C111.8 117.3 114.5 116.3 117.1 115.2C118.8 114.4 123.7 113.6 125.2 112.1Z" fill="white"/>
<path d="M219.1 100.2C209.1 80 184.6 63.6 166.6 56.7C157.9 53.4 148.5 50.6 139.2 49.4C133.5 48.7 127.8 49.6 122.3 51C119.3 51.8 115.8 52 113.2 53.8C111.2 55.1 107.8 59.7 111.7 60.6C113.5 61 116.3 59.5 118 59.1C120.3 58.5 122.7 58 125 57.7C129.7 57 134.4 56.9 139.1 57.4C147.8 58.3 156.4 60.4 164.6 63.4C172.6 66.3 180.8 69.9 188.2 74.1C196.3 78.7 219.6 101.2 219.1 100.2Z" fill="white"/>
<path d="M223.3 71.3999C219.9 64.9999 215.7 58.6999 210.3 53.7999C205.7 49.6999 198.7 44.4999 192.1 45.1999C191 45.2999 190 46.7999 191.1 47.6999C196.1 51.6999 202 53.7999 206.7 58.1999C211.9 63.0999 216 68.9 219.4 75.1C226.1 87.4 230.2 104.5 234 117.1C234.4 118.5 235.9 115.2 235.9 113.6C235.2 99.3 229.9 83.9999 223.3 71.3999Z" fill="white"/>
<path d="M363.9 130.4C360.2 134.5 359.5 142.8 357.9 148C357.7 148.7 357.5 151 357.9 150.3C359.9 146.9 368 136 369.6 135.6C371.3 135.2 374.6 138.2 375.6 139.3C376.4 140.1 376.1 137.8 376 136.6C375.6 130.1 368.1 125.9 363.9 130.4Z" fill="white"/>
<path d="M281.7 88.2C279.7 83.2 259.7 76.5 247.7 72.9C246.4 72.5 245.5 73.7 245.1 74.9C243 80.4 256.1 82.5 259.1 83.2C266.3 85 273.6 86.1 280.5 89.1C281 89.4 282 88.9 281.7 88.2Z" fill="white"/>
<path d="M289.7 75.4C289.2 71.9 284.7 70.7 281.7 70.3C278.9 69.9 275.1 69.1 272.4 69.6C271.2 69.8 270.5 71.3 270.8 72.4C271.6 75.7 275.7 75.1 278.3 74.9C280 74.8 286.9 75.8 288.6 76.4C289.4 76.8 289.8 76 289.7 75.4Z" fill="white"/>
<path d="M339.9 121.7C334.2 110.9 317.5 105.5 306.2 104.6C302.8 104.3 299.6 108.8 303 109.3C308.8 110.3 328.2 114.3 342.2 126.2C343.2 127 340.4 122.8 339.9 121.7Z" fill="white"/>
<path d="M108 297.6C102.6 304.6 96.2999 316.8 94.4999 325.5C94.0999 327.2 93.2999 329.4 94.6999 328.4C109.9 317.9 108.8 296.6 108 297.6Z" fill="white"/>
<path d="M355.9 241.7C358.7 240.2 361.9 238.7 365 239.4C367.8 240 369.9 242.3 371.6 244.6C372.1 245.2 372.6 245.9 373.3 246.2C374.6 246.7 376 245.7 376.5 244.5C377 243.3 376.9 241.9 376.8 240.5C377.8 241.6 378.9 242.5 380.1 243.4C380.4 243.6 380.8 243.9 381.2 243.8C381.5 243.7 381.7 243.4 381.8 243.1C383.9 238.7 383.8 233.3 381.4 229.1C379 224.8 374.6 221.8 369.7 221.3C366.9 221 364 221.5 361.3 222.2C358 223.1 354.7 224.5 352.1 226.7C350.2 228.3 348.7 230.3 347.2 232.3C342 239.4 335.9 246.3 331.3 253.8C333.9 254.5 340.3 249.7 342.7 248.5C347.2 246.2 351.6 243.9 355.9 241.7Z" fill="white"/>
<path d="M355 242C358.8 240 363.4 237.9 367.3 239.7C370.5 241.2 372.7 245 376.2 245C377.6 239.1 372.8 233.1 367.1 231C361.4 228.9 355.1 229.6 349 230.5C348.4 230.6 347.8 230.7 347.3 231C346.6 231.4 346.2 232.2 345.9 233C342.3 240.7 337.3 247 332.2 253.6C335.3 253.7 339.8 250.2 342.6 248.7C346.7 246.4 350.8 244.2 355 242Z" fill="#FCF2F8"/>
<path d="M99.0999 188.9C98.6999 189.5 98.1999 190.1 97.7999 190.7C91.5999 199.6 90.0999 209.4 88.1999 220C84.8999 237.7 90.7999 255.9 99.0999 271.9C102.6 278.7 110.1 286.1 118.7 283.8C85.8 248.4 94.3999 195 122.1 159.4C114.4 169.3 106.3 178.7 99.0999 188.9Z" fill="#FCF2F8"/>
<path d="M183.1 304.2C208.5 301.6 232.1 295.7 254.8 284C266 278.3 276.7 274.5 285.3 265.3C288.7 261.7 299.7 252.9 296.2 247.5C264.6 259.4 232.5 273.9 198.5 278C175.6 280.7 151.9 278.6 129.9 285.7C133.4 289.2 137 292.7 140.5 296.2C141.3 297 129.4 311.6 127.9 312.9C121.2 318.6 114 323.8 106.5 328.4C98.9999 333 93.2 334.9 89.7 343.7C93.4 344.7 97.2999 344 100.8 342.4C103.5 341.1 105.1 338.9 107.5 337.5C119.9 330.1 134.1 325.9 146.2 317.5C149.7 315 153 312.3 156.4 309.6C160.9 305.9 163 303.3 168.9 303.4C173.5 303.6 178.2 304.5 183.1 304.2Z" fill="#FCF2F8"/>
<path d="M330.7 254.8C336.2 247.7 343.1 242.6 348.1 234.8C358.7 218.3 363.5 198.9 373.1 181.9C376.5 175.8 380.6 169.8 382.6 163.1C383.6 159.7 384.2 155.4 383.7 151.8C383.5 150.4 383.5 149.8 382.7 148.4C382.2 147.7 379.3 145.9 379.2 145.4C380.3 154.4 379.1 164.5 372.8 171C370 173.9 365.6 175.9 361.8 174.5C363.1 175 353.3 202.5 352.2 205.1C342.8 228.4 326.8 247.6 305.2 260.7C304.4 261.2 303.5 261.7 302.9 262.4C302.1 263.3 301.6 264.5 301.1 265.7C297.6 274.6 292.6 282.9 286.4 290.1C283 294.1 270.7 308.9 265.1 305.2C262.7 309.9 260.4 314.5 258 319.2C261.1 318.2 263.9 316.6 266.4 314.5C265.3 317.7 265.5 321.3 267.2 324.3C273 321 276.8 315.3 281.3 310.3C289.4 301.4 314.2 277.9 316.7 272.8C320 266.3 326.3 260.5 330.7 254.8Z" fill="#FCF2F8"/>
<path d="M346.6 141.3C345.5 139.2 343.2 137.8 341.1 137C336.4 135.2 331.6 135.5 326.9 133.3C321.4 130.8 315.7 129.2 311 134.3C306.9 139 309.5 144.1 313 148.2C317.1 153 318.7 158.5 321.9 163.8C324.1 167.6 327.4 171.2 332.2 171.1C336.4 171 339.6 168.5 340.5 164.4C341.2 161.3 340.2 157.9 340.9 154.8C341.3 153.3 342.1 151.8 343.2 150.8C344.4 149.6 346 148.9 346.8 147.3C347.7 145.4 347.6 143.2 346.6 141.3Z" fill="#FCF2F8"/>
<path d="M271.9 72.9L271.4 71.9C271.5 72.3 271.7 72.6 271.9 72.9Z" fill="#FCF2F8"/>
<path d="M285.6 80.7C280.1 79.4 274.7 78.2 271.9 72.9L274.2 77.3C274.4 80.1 277.1 81.9 279.2 83.6C282.6 86.5 285.3 90.2 287.3 94.2C289.4 98.3 290.3 102.4 295.1 104.3C297.9 105.4 301 105.5 304.1 105.3C303.1 101.5 302.2 97.7 301.2 93.8C300.8 92.1 300.3 90.4 299.5 88.8C296.6 83.3 291.1 82 285.6 80.7Z" fill="#FCF2F8"/>
<path d="M244.3 113.5C248.2 110.8 252.5 108.6 257 107.2C260.3 106.2 272.6 114.5 276.6 115.6C266.1 119.6 254.5 117.9 244.3 113.5Z" fill="#FCF2F8"/>
<path d="M240.3 268.4C239.1 267.9 229.3 259 221.2 262.1C218.8 263 217.2 264.3 214.9 265.5C211.1 267.5 207.1 267.7 202.8 267.5C192.4 266.9 184 273.5 175.4 279.8C183.1 279.4 190.8 279.1 198.5 278.2C212.7 276.4 226.6 272.8 240.3 268.4Z" fill="#FCF2F8"/>
<path d="M116.2 270C117.1 265 115.8 259.9 112.9 255.8C110 251.6 105.9 248.3 101.5 245.8C100.7 245.3 99.8 244.9 98.9 244.4C101.1 256.1 105.7 267.3 113.3 277.4C114.7 275.1 115.8 272.6 116.2 270Z" fill="#FCF2F8"/>
<path d="M143.6 239.5C141.7 238.8 139.6 239.1 137.7 238.7C136 238.4 136.2 238.3 135.2 236.6C133.5 233.7 130.8 229.9 126.9 231.1C123.8 232 122.3 235.5 121.8 238.4C121.2 242.4 122.2 246.7 124.7 249.9C125.9 251.4 127.5 252.7 129.4 253.3C135.6 255.4 144.5 251.7 146.1 245.1C146.8 242.5 146.1 240.5 143.6 239.5Z" fill="#FCF2F8"/>
<path d="M286.2 242.9C288.7 239.8 291.3 236.3 291 232.3C290.7 228.8 288.2 226.1 285.1 224.3C284.1 223.7 283.1 223.3 282 222.9C277.7 221.4 273 221.1 268.7 219.3C263.4 217.1 258 212.7 252.6 214.5C248.9 215.7 246.9 219.1 244 221.4C240.8 223.9 236.5 224.3 233.3 226.8C230.5 228.9 228.9 232.8 230.2 236C231.2 238.7 233.9 240.3 236.6 241.2C239.3 242.1 242.2 242.4 244.9 243.3C246.8 243.9 248.6 245 249.7 246.7C252.2 250.9 248.5 256.2 249.6 261C249.9 262.4 250.6 263.6 251.6 264.5C260.3 261.4 268.8 258.1 277.4 254.8C280.6 250.7 283.5 246.3 286.2 242.9Z" fill="#FCF2F8"/>
<path d="M169.6 195.9C169.2 191.2 167.5 185.2 162.1 184.3C158.5 183.6 155.2 185.5 152.8 188.2C151 190 149.6 192.3 147.6 193.7C143.7 196.5 136.7 194.9 132 195.3C126.6 195.8 120.2 197.3 116.8 202C114.5 205.2 113.3 211.3 116.1 214.6C118.9 218 125.1 217.7 128.8 220.2C133.2 223.3 136.7 227.6 141.9 229.3C147 231 152.6 229.7 156.8 226.5C165.8 220.1 170.5 206.7 169.6 195.9Z" fill="#FCF2F8"/>
<path d="M339 174.6C338 174.3 337 174.4 336.1 174.9C335.5 175.2 335.1 175.7 334.6 176.1C334 176.8 333.7 177.9 334.3 178.8C334.6 179.2 334.9 179.5 335.4 179.7C335.5 179.7 335.5 179.8 335.6 179.8C335.9 179.9 336.2 179.9 336.6 179.9C337.2 179.8 337.7 179.6 338.2 179.3C338.6 179.1 339 178.8 339.5 178.5C340.3 178.1 340.6 177.2 340.5 176.4C340.4 175.5 339.8 174.8 339 174.6Z" fill="#FCF2F8"/>
<path d="M316.1 204.8C312.1 203.9 307.7 205.4 308 210.4C308.2 213.2 310.1 215.2 312.3 216.7C314.6 218.2 317.1 220.1 319.5 221.4C320.9 222.2 322.8 222.3 323.9 221.2C324.8 220.4 325 219.1 325.1 217.9C325.4 213.5 322.9 208.6 319.2 206.2C318.3 205.5 317.2 205.1 316.1 204.8Z" fill="#FCF2F8"/>
<path d="M206.1 245.4C205.9 245.4 205.7 245.4 205.4 245.3C206.3 242.1 206 232.1 193.9 228.2C185.5 225.5 183.5 231.5 183 237.9C183 237.9 172.1 235.8 167.8 238.2C163.6 240.5 167.5 246.5 170.1 249.2C167.5 254.3 171.1 259.1 176.6 260.8C187 264.1 201.8 258.6 208.2 250.6C210 248.5 208.8 245.7 206.1 245.4Z" fill="#FCF2F8"/>
<path d="M261.1 276.7C258 276.7 255.1 275.8 252.3 274.5C248.2 272.5 244.4 270.1 240.2 268.4C226.5 272.8 212.6 276.4 198.3 278.1C190.7 279 183 279.4 175.2 279.7C167.6 285.3 159.2 294.2 155.9 303.1C155.9 303.1 160.5 303.4 166.1 303.6C166.8 303.5 167.6 303.4 168.5 303.5C173.3 303.6 178 304.5 182.8 304.2C208.2 301.6 231.8 295.7 254.5 284C258.2 282.1 261.8 280.4 265.3 278.7C266.8 277.8 268.2 276.8 269.7 275.8C266.9 275.3 264.1 276.7 261.1 276.7Z" fill="#F8E7F2"/>
<path d="M98.8999 244.5C94.3999 242.2 89.2999 239.6 88.3999 234.4C88.2999 234.1 88.0999 233.9 87.8999 233.9C88.7999 234.1 89.5999 244.5 89.9999 246.1C90.8999 250 91.8999 253.9 93.1999 257.6C94.2999 260.9 96.3999 263.3 97.9999 266.4C99.7999 269.9 101.1 273.3 102.3 276.7C104.4 279.2 106.9 281.5 109.8 282.9C111 281.1 112.3 279.3 113.4 277.5C105.7 267.4 101.1 256.1 98.8999 244.5Z" fill="#F8E7F2"/>
<path d="M234.7 93C232.9 86.7 231.1 81.5 228.5 75.5C223.5 63.8 215.8 52.8 205.2 45.5C201.3 42.8 190.9 37.7 187.2 43.1C184.3 47.2 187.6 52.4 191.8 57C188.7 55.4 185.5 54.1 182.6 52.9C177.4 50.9 165.6 47.2 161.1 52.6C160.7 53.1 161 53.8 161.6 53.8C165.1 53.9 168.2 52.8 171.8 53.4C175.9 54 179.9 55.5 183.6 57.2C190.2 60.2 195.7 64.5 201.7 68.4C203.3 69.5 204.7 67.2 203.6 65.9C203.4 65.6 203.1 65.3 202.8 65C202.8 65 197.8 58.6 195.1 55.4C193.5 53.5 186.8 45.5 191.9 44.8C199 43.8 207.1 51.8 211.2 56.3C218.1 63.6 222.8 72.6 226.3 82C228.1 86.8 233.4 101.6 234.3 115.3C234.4 116.7 236.7 116.1 237 114.9C238.6 110.1 236.5 99.2 234.7 93Z" fill="#E088BD"/>
<path d="M361.8 130.4C353 138.5 342.9 119.3 337.1 114.3C332 109.9 325.7 106.6 319.4 104.3C315.7 103 309.7 101 304.8 101.2C303.7 83.7 288.1 60.3 269.2 70.3C268.5 70.7 268.1 71.9 268.6 72.6C270 74.4 271 76.4 272.3 78.2C264.4 74.4 255.4 73.6 246.7 71.8C245.6 71.6 244.4 72.1 244.1 73.3C240.7 86 245.3 98.3 254.2 106.5C243.3 109.6 233.3 113.7 223.6 120.9C223.7 122.5 223.6 124.4 223.6 126C229.9 121.6 236.4 117.8 243.8 114.9C248.5 113 253.4 111.4 258.3 109.8C263.3 113.2 269.1 115.5 275.5 116.1C277.2 116.3 277.5 113.5 275.9 113.2C258.3 109.7 244.2 94.8 247.9 76.5C257.3 78.2 267.1 79.1 275.1 84.8C284.3 91.3 286.5 101.2 292.8 109.8C293.4 110.6 294.7 110.1 294.4 109.1C292.1 98.8 286.8 88.5 278.4 82C277.9 81.6 277.5 81.3 277 81C277 81 277 81 277 80.9C275.5 78.2 274.2 75.4 272.7 72.7C290.2 65.8 301.6 91.0999 302.1 105.3C302.2 107.2 304.9 107.2 305 105.3C305 105.2 305 105 305 104.9C314.1 105.7 322 109.7 326 111.8C332.4 115.3 336.8 119.6 341.4 125.1C346.5 131.2 357.4 143.5 363.9 132C364.4 130.6 362.8 129.4 361.8 130.4Z" fill="#E088BD"/>
<path d="M331.6 143.5C330.3 142.2 327.9 140.4 325.9 140.5C322.6 140.6 323.5 145.5 324.6 147.3C325.5 148.8 327.1 150 328.9 150.2C330.3 150.4 331.9 149.9 332.6 148.6C333.3 147 332.9 144.8 331.6 143.5Z" fill="#E088BD"/>
<path d="M262.1 267C268.3 265.4 273.1 260.3 277.4 254.7C268.9 258 260.3 261.3 251.6 264.4C254.2 267 258.5 268 262.1 267Z" fill="#F8E7F2"/>
<path d="M214.4 87.6C206.5 77 196.7 68.9 185.3 62.4C173.3 55.6 160 50.2 146.3 48.1C139.8 47.1 133.3 46.8 126.8 47.8C121.3 48.6 114 50.2 109.8 54.2C104 59.7 110.5 63.5 118.6 65.8C114.8 66.6 111 67.8 107.5 69.1C100.4 71.7 91.5999 74.4 86.9999 80.8C83.6999 85.4 84.0999 90.6 90.0999 92.2C94.8999 93.5 99.9999 92.8 105.2 91.9C104.3 92.4 103.5 92.9 102.6 93.4C97.2999 96.5 92.2999 100.4 88.0999 104.9C83.3999 109.9 75.6999 119.2 78.0999 126.6C80.8999 135.4 91.4999 130.1 96.5999 127.2C104.9 122.4 113.4 118.2 122 114.2C115.3 119.7 109.2 126 104.8 133.4C101.7 138.7 95.6999 150.5 101.2 156.3C107.9 163.3 120.7 152.2 125.9 148.4C129.8 145.5 133.9 143.1 138.2 140.9C133.6 146 130.3 152.2 129.4 159.2C128.4 166.4 131.3 172.7 139.5 171.5C145.6 170.6 151.2 167 156.4 163.9C162.4 160.2 168.6 157 174.9 153.8C188.5 146.8 202.7 140.4 217.4 136C218.9 135.5 219.7 134.5 218.2 134.7C207.3 136.2 195 140.9 184.9 145.1C174.4 149.5 164 154.6 154.3 160.4C149.8 163.1 145.1 166.1 139.9 167.2C134.6 168.3 132.9 165.5 133.2 160.7C134 150.3 141 143.2 146.9 135.2C147.4 134.5 146.4 133.5 145.7 134C142.6 135.2 137.4 137.2 134.5 138.7C130.1 140.9 126 143.4 122 146.2C117.9 149 113.3 152.8 108.4 153.7C97.6999 155.7 107.9 136.2 110.1 132.8C115.7 124 126.4 114.5 131.9 109.9C133.2 109.3 132.3 107.1 130.9 107.6C121 110.8 111 114.7 101.8 119.5C98.2999 121.3 83.9999 132 82.0999 124.9C80.3999 118.5 89.1999 109.4 93.1999 105.6C96.9999 101.9 101.3 98.7 105.9 96C109.8 93.7 113.9 91.8 118.2 90.1C118.4 90.1 118.5 90.1 118.7 90.1C120.3 90.1 120.2 87.8 118.7 87.7C111.3 87 104.1 88.7 96.6999 88.9C94.8999 88.9 90.6999 89.4 89.4999 87.8C87.0999 84.7 93.7999 80.2 95.6999 79.1C106.1 72.7 118.8 69.1 131.1 68.4C133.4 68.6 135.3 68.7 136.2 68.6C137.4 68.4 137.8 66.8 136.5 66.4C132.8 65.3 129 64.5 125.3 63.5C122.1 62.7 116.7 62 113.9 59.9C111.6 58.1 113.5 57.5 115.2 56.4C116.9 55.3 119.2 54.6 121.2 54C124.6 53 128.2 52.3 131.8 52.1C146 51.2 160.4 55.5 173.2 61.4C198.8 73.1 224.1 96.6 223.6 125.1C223.6 125.9 226.4 124 226.5 123.1C227.7 108.1 221.5 97.1 214.4 87.6Z" fill="#E088BD"/>
<path d="M367.2 176.5C368.7 176.7 369.5 174.9 368.1 174.6C363.9 173.6 359 170.3 357.3 165.1C355.8 160.6 356.9 156 357.9 151.5C358.7 148.1 361.3 139.6 363.9 135C366.3 130.8 368.7 130.3 369.9 131.3C371.8 132.9 373.2 135.2 374.4 137.3C377.7 142.9 379.9 149.1 380.5 155.5C381.2 162.9 380.2 166.6 373.8 174C372.1 176 370.4 180.6 369.4 183C371.1 182.4 372.8 181.7 374.4 180.9C374.4 180.8 375.6 177.7 375.8 177.3C377.6 174 381.2 172.2 382.9 168.6C386.6 160.6 384.3 150.7 381.6 142.8C379.6 137.2 376.6 131.4 371.7 127.7C367.6 124.6 364.9 126.7 362 129.9C361.2 130.7 360.6 131.6 360 132.6C358.8 134.7 357.9 137.1 357.1 139.4C355.7 143.8 355.1 148.2 354 152.7C351.4 163.6 354.3 175 367.2 176.5Z" fill="#E088BD"/>
<path d="M367.8 163.1C367.9 164.7 368.1 166.6 369.6 167.3C370.5 167.7 371.6 167.5 372.4 166.9C373.2 166.3 373.7 165.4 374 164.5C374.8 162.1 374.5 157 371.6 155.8C368.1 154.4 367.8 161 367.8 163.1Z" fill="#F6DEED"/>
<path d="M373.8 159.8C373.6 158 372.6 154.3 370.5 155.9C370 156.3 369.2 157.7 369.7 157.6C371.9 157.4 371.7 165.1 370.3 166.7C369.5 167.6 370.7 167 371.7 166.4C373.5 165.3 374 161.7 373.8 159.8Z" fill="white"/>
<path d="M369.5 154.7C366.8 156.2 365.4 160 365.8 163.3C366.1 166 368.9 169.5 371.9 168.4C374.6 167.4 375.6 163.8 375.8 161.3C376 158 373.8 152.4 369.5 154.7ZM373.2 161.9C373 164 371 168.6 369.1 165.2C367.7 162.7 368.2 158.8 370.5 157C372.9 155 373.4 160.5 373.2 161.9Z" fill="#E088BD"/>
<path d="M88.5999 211C86.5999 216.7 85.1999 223.1 81.1999 227.7C77.9999 231.4 72.0999 235.3 67.0999 232.9C65.9999 232.3 65.0999 231.5 64.3999 230.5C71.4999 224 72.2999 212.9 65.6999 214.8C62.5999 215.7 60.5999 218.8 59.6999 221.4C59.0999 223.4 58.8999 225.4 59.0999 227.3C54.7999 226.8 55.8999 222 56.0999 218.8C56.0999 218.4 55.5999 218 55.1999 218.1C52.3999 218.9 51.9999 223 52.3999 225.4C52.9999 228.8 55.4999 231 58.9999 231.3C59.3999 231.3 59.7999 231.3 60.1999 231.3C62.3999 235.7 67.0999 238.5 72.9999 237.3C77.8999 236.3 82.3999 232.9 85.2999 228.9C89.1999 223.6 89.2999 217.6 90.4999 211.4C90.8999 210.2 89.0999 209.7 88.5999 211ZM65.5999 219.2C68.5999 218.9 64.5999 225.3 63.6999 226C63.4999 226.1 63.2999 226.3 63.0999 226.4C63.0999 226.2 63.0999 225.9 63.0999 225.7C63.1999 224.4 64.0999 219.3 65.5999 219.2Z" fill="#E088BD"/>
<path d="M330.8 145.8C330.8 144.3 328.8 142.6 327.7 142.5C326.9 142.4 327.2 144.3 327.3 144.4C327.6 144.6 327.9 144.8 328.2 145C328.7 145.2 330.8 146.7 330.8 145.8Z" fill="white"/>
<path d="M255.8 88.9C265.7 88.2 280 96.4 280.5 106.7C280.5 106.7 270.1 104 266.1 101.3C261.8 98.4 257.7 95.5 255.8 88.9Z" fill="#F5DCEC"/>
<path d="M193 88.7C188.8 88.1 181.4 88.6 183.4 94.7C185 99.8 190.9 103.6 196.3 106.5C186.6 105.8 173.2 106.4 171.9 115.7C170.6 125.1 186.7 124 196.8 123.7C191.3 126.3 185.3 130.6 186.2 135.5C187 139.7 192.7 140.6 196.2 140.4C203.4 139.9 216.3 133 214.9 132.8C210.6 132.4 191.7 139 190 135.2C188.2 131.3 200.9 124.9 203.9 123.9C205.1 123.5 205.3 121.5 203.9 121.3C199.6 120.6 195.1 120.9 190.8 120.7C187.9 120.5 176.6 120.8 175.5 117.1C173.2 109.4 198.5 109.1 202.7 109.9C204.1 110.2 205 108.3 203.7 107.5C198.4 104.3 192.6 101.2 188.4 96.5C185.5 93.2 187 91.7 191.1 91.9C195.2 92.1 199.1 93.7 202.7 95.5C215.4 101.9 225.2 115.4 222.3 130.2C222.2 130.7 222.2 131.5 222.7 131.7C223.1 131.9 223.6 131.5 223.9 131.1C230.2 123.5 223.2 110.9 218.2 104.5C212.1 96.6 202.9 90.1 193 88.7Z" fill="#F5DCEC"/>
<path d="M145.6 117.8C130.4 119 113.8 130.1 109.8 145.4C109.6 146.3 120.3 133.3 126.8 128.6C132.8 124.2 146.6 117.7 145.6 117.8Z" fill="#F5DCEC"/>
<path d="M132.9 97.2C118.3 91.5 100.2 103.3 92.0001 114.7C91.5001 115.4 104.5 106.1 111.3 103.1C118 100.1 133.7 97.6 132.9 97.2Z" fill="#F5DCEC"/>
<path d="M138.7 81.2C128.8 74.5 113.9 76.5 103.4 80.8C102.6 81.1 114.5 80.9 120.1 80.7C126.2 80.5 139.7 81.8 138.7 81.2Z" fill="#F5DCEC"/>
<path d="M159.6 139.4C150.6 144.1 140.8 151.2 138.6 161.9C138.4 163 145.9 155.4 149 152.1C152.7 148.2 160.5 138.9 159.6 139.4Z" fill="#F5DCEC"/>
<path d="M384.5 232.9C382.5 227.4 379 221.5 373 219.7C367.6 218.1 362 219.6 357 221.9C360.3 215.7 363.2 209.2 365.8 202.6C368.6 195.6 372.5 185.8 374.7 180C373.2 180.7 371.6 181.3 369.9 181.6C369.7 182.1 369.5 182.6 369.3 183C367.6 187.7 365.5 192.6 363.5 197.2C359.8 205.6 356.2 214.1 351.8 222.1C345.5 233.6 337.2 245.6 327.4 254.3C326.3 255.3 325 256.4 324.4 257.8C323.4 259.6 322.3 261.4 321.1 263.1C317.2 268.7 312.9 274 308.4 279.1C304.1 284 299.8 288.9 295.3 293.5C287.9 301 279.2 311.7 267.6 307.7C266.8 307.4 266 307.1 265.7 306.3C264.9 304.6 269 298.6 269.8 297C271.8 293.1 274 289.3 275.8 285.3C279.4 277.3 283.4 270.5 288.6 263.4C289.6 262.5 288.3 260.7 287.1 261.5C267.2 275.9 244.8 287.7 221.3 294.8C209.7 298.3 197.8 300.8 185.7 301.7C180 302.1 174.3 302.3 168.6 301.9C162.7 301.6 156.9 300.2 151 299.8C150.3 299.7 150 300.9 150.6 301.2C153 302.4 155.7 303.4 158.5 304.1C154.6 307 146 313.2 134.8 320.3C130.4 323.1 125.8 325.6 121.2 328.1C117.9 329.8 106.1 336.6 102.8 335.5C101.4 335 96.7999 331 96.0999 329.7C94.4999 326.7 99.5999 316.4 101 313.6C104.3 306.8 108.3 299.6 108.2 291.9C108.3 288.8 107.9 285.5 106.9 282.2C104.4 273.8 99.1999 266.5 95.8999 258.4C89.4999 242.5 87.7999 224.7 92.7999 208.1C97.6999 191.9 108.8 175.9 120.3 163.7C123.3 160.5 126.5 157.6 129.8 154.9C130.5 152.4 131.4 150.1 132.6 147.9C131.4 148.8 130.1 149.8 128.9 150.7C118.4 158.8 109.9 168.8 102.6 179.8C94.8999 191.4 88.3999 203.6 86.3999 217.5C84.4999 230.3 86.0999 243.5 90.2999 255.7C95.4999 270.9 107.5 284.5 103.1 301C100.8 306.2 97.5999 311.2 95.2999 316.2C93.2999 320.7 91.5999 325.5 88.6999 329.5C86.4999 332.5 83.3999 335.9 83.3999 338.7C83.3999 341.7 90.1999 338.7 91.4999 338.2C90.8999 339.3 86.6999 345.3 88.3999 346.1C93.7999 348.5 102 343 105.4 339.7C112.1 337.6 118.6 334 124.7 330.9C129.8 328.2 134.9 325.2 139.9 322.4C150.8 316.4 159.3 308.6 162.7 305.2C169.8 306.4 177.3 306.4 183.9 306.2C196.7 305.7 209.3 303.4 221.6 299.9C242.2 294 262.2 284.3 279.3 271.1C276.5 275.5 274.3 280.2 271.9 284.8C268.4 291.6 263.5 298.3 262.9 306C259.2 309.5 254.2 320.2 256.6 321.7C257.5 322.3 262.6 319.4 264.5 317.8C263.7 321.2 264.9 325.6 267.1 325.6C271.6 325.6 279.6 315.8 281.8 310.2C287.5 307.2 292.3 302 296.8 297.7C302.2 292.4 307.3 286.8 312.2 281C316.7 275.7 321.2 270.3 325.1 264.6C326.7 262.2 328.4 259.6 329.8 256.9C338.7 253.2 347.1 248.1 355.6 243.8C360.4 241.4 364.1 239.6 368.3 243.9C370.6 246.2 373.1 250.5 375.2 249.1C376.9 248 377.5 242.2 377.5 241.4C378.4 242.1 381.1 246.7 382.9 245.6C385.5 244.5 385.7 236.2 384.5 232.9ZM375.3 236.2C374 237.3 372.6 238.3 371 239.1C370.6 239.3 370.1 239.5 369.7 239.5C368.7 239.5 368 238.3 367.1 237.9C363.7 236.4 360.2 237.7 357 239.2C350.3 242.3 343.4 245.9 336.9 249.9C344 242.9 349.9 234.9 355 225.8C362.5 224.3 370.8 220.5 377.1 226.9C378.7 228.6 380.4 229.9 378.9 232.2C377.9 233.7 376.6 235.1 375.3 236.2Z" fill="#E088BD"/>
<path d="M309.2 152.1C303.9 146.7 291.9 152.2 299.2 157.5C301.2 159 305.2 162 307.8 162.3C313.4 162.8 312.1 156.1 310 153.1C309.8 152.7 309.5 152.4 309.2 152.1Z" fill="#FCF2F8"/>
<path d="M65 55C69.3 39.6 80.2 26.1 94.5 18.7C87.6 19.5 80.8 21.6 74.6 24.8C92.7 -4.50003 138 -4.10004 153 18.4C156.3 23.3 141.8 27.8 141.8 27.8C144.8 27.7 147.9 29.6 149.1 32.4C147.8 29.2 126.7 28.9 103.3 36.5C86.5999 41.9 64.2 59.2 64.2 59.2C64.3 57.8 64.6 56.4 65 55Z" stroke="#F6DDEC" stroke-width="3" stroke-miterlimit="10" stroke-linecap="round" stroke-linejoin="round"/>
<path d="M2 146.7C19.2 136.6 42.4 134.7 52 113.8C50.1 113.6 48.1 113.5 46.2 113.3C48 113.4 60.5 98.3 60.6 95.8C51.1 94.9 37.3 96.9 29.3 102.8C23.1 107.4 11.2 122.2 15.5 129.6C8.4 132.4 2.9 138.9 2 146.7Z" stroke="#F6DDEC" stroke-width="3" stroke-miterlimit="10" stroke-linecap="round" stroke-linejoin="round"/>
</svg>
