<?xml version="1.0" encoding="iso-8859-1"?>
<!-- Generator: Adobe Illustrator 18.0.0, SVG Export Plug-In . SVG Version: 6.00 Build 0)  -->
<!DOCTYPE svg PUBLIC "-//W3C//DTD SVG 1.1//EN" "http://www.w3.org/Graphics/SVG/1.1/DTD/svg11.dtd">
<svg version="1.1" id="Capa_1" xmlns="http://www.w3.org/2000/svg" xmlns:xlink="http://www.w3.org/1999/xlink" x="0px" y="0px"
	 viewBox="0 0 378.006 378.006" style="enable-background:new 0 0 378.006 378.006;" xml:space="preserve">
<g>
	<path d="M180.977,116.173h-71.998c-4.143,0-7.5,3.358-7.5,7.5v41.998c0,4.142,3.357,7.5,7.5,7.5h6c4.143,0,7.5-3.358,7.5-7.5
		v-28.499l33.662-0.001l6.306-0.054l-40.916,100.727c-0.939,2.313-0.667,4.94,0.727,7.011c1.394,2.07,3.726,3.312,6.222,3.312h6.449
		c3.051,0,5.798-1.849,6.947-4.675l46.049-113.246c0.365-0.897,0.553-1.856,0.553-2.825v-3.75
		C188.477,119.531,185.12,116.173,180.977,116.173z"/>
	<path d="M234.227,114.673c-26.882,0-42.299,15.581-42.299,42.749v49.498c0,27.167,15.417,42.749,42.299,42.749
		s42.299-15.581,42.299-42.749v-49.498C276.526,130.254,261.109,114.673,234.227,114.673z M234.677,228.969h-0.9
		c-14.98,0-20.549-6.382-20.549-23.549v-46.498c0-17.167,5.569-23.549,20.549-23.549h0.9c14.98,0,20.549,6.382,20.549,23.549v46.498
		C255.226,222.586,249.656,228.969,234.677,228.969z"/>
	<path d="M366.112,34.497c-8.115-1.718-16.067,3.462-17.783,11.565l-4.25,20.06c-10.116,0.891-16.566,3.072-22.399,5.055
		c-6.371,2.166-11.403,3.876-22.675,3.876c-11.272,0-16.305-1.71-22.677-3.876c-7.546-2.565-16.099-5.472-32.329-5.472
		c-16.229,0-24.782,2.907-32.327,5.472c-6.371,2.166-11.403,3.876-22.675,3.876c-11.27,0-16.302-1.71-22.672-3.876
		c-7.546-2.566-16.099-5.473-32.328-5.473c-16.231,0-24.784,2.908-32.33,5.473c-6.37,2.165-11.401,3.876-22.67,3.876
		c-11.271,0-16.302-1.71-22.672-3.876c-5.832-1.983-12.283-4.164-22.398-5.055l-4.25-20.06c-1.716-8.104-9.674-13.282-17.783-11.565
		C3.79,36.214-1.389,44.175,0.329,52.28l50,236c1.468,6.932,7.588,11.891,14.674,11.891h248c7.086,0,13.206-4.959,14.674-11.891
		l50-236C379.394,44.175,374.216,36.214,366.112,34.497z M300.848,270.171H77.158L40.607,97.654
		c2.052,0.565,3.987,1.221,6.062,1.926c7.546,2.565,16.099,5.473,32.328,5.473c16.229,0,24.78-2.907,32.326-5.472
		c6.37-2.166,11.402-3.876,22.674-3.876c11.271,0,16.302,1.711,22.672,3.876c7.546,2.565,16.099,5.473,32.328,5.473
		c16.232,0,24.784-2.907,32.33-5.473c6.37-2.165,11.402-3.876,22.672-3.876c11.271,0,16.304,1.711,22.675,3.876
		c7.546,2.565,16.1,5.473,32.331,5.473c16.23,0,24.783-2.907,32.329-5.472c2.075-0.706,4.011-1.361,6.064-1.927L300.848,270.171z"/>
	<path d="M162.001,313.838H96.005c-8.284,0-15,6.716-15,15c0,8.284,6.716,15,15,15h65.996c8.284,0,15-6.716,15-15
		C177.001,320.554,170.285,313.838,162.001,313.838z"/>
	<path d="M282.001,313.838h-65.996c-8.284,0-15,6.716-15,15c0,8.284,6.716,15,15,15h65.996c8.284,0,15-6.716,15-15
		C297.001,320.554,290.285,313.838,282.001,313.838z"/>
</g>
<g>
</g>
<g>
</g>
<g>
</g>
<g>
</g>
<g>
</g>
<g>
</g>
<g>
</g>
<g>
</g>
<g>
</g>
<g>
</g>
<g>
</g>
<g>
</g>
<g>
</g>
<g>
</g>
<g>
</g>
</svg>
