<svg width="12" height="9" viewBox="0 0 12 9" fill="none" xmlns="http://www.w3.org/2000/svg">
<path d="M3.89474 1.28938L4.18412 0.881627L3.36862 0.302872L3.07924 0.710622L3.89474 1.28938ZM1.00307 4.5L0.595321 4.21062C0.472322 4.38394 0.472322 4.61606 0.595321 4.78938L1.00307 4.5ZM3.07924 8.28938L3.36862 8.69713L4.18412 8.11837L3.89474 7.71062L3.07924 8.28938ZM11.4355 5L11.9355 5L11.9355 4L11.4355 4L11.4355 5ZM3.07924 0.710622L0.595321 4.21062L1.41082 4.78938L3.89474 1.28938L3.07924 0.710622ZM0.595321 4.78938L3.07924 8.28938L3.89474 7.71062L1.41082 4.21062L0.595321 4.78938ZM1.00307 5L11.4355 5L11.4355 4L1.00307 4L1.00307 5Z" fill="#1F2226"/>
</svg>
