<svg width="12" height="9" viewBox="0 0 12 9" fill="none" xmlns="http://www.w3.org/2000/svg">
<path d="M8.60721 7.71062L8.31783 8.11837L9.13333 8.69713L9.42271 8.28938L8.60721 7.71062ZM11.4989 4.5L11.9066 4.78938C12.0296 4.61606 12.0296 4.38394 11.9066 4.21062L11.4989 4.5ZM9.42271 0.710622L9.13333 0.302872L8.31783 0.881627L8.60721 1.28938L9.42271 0.710622ZM1.06641 4L0.566406 4L0.566406 5L1.06641 5L1.06641 4ZM9.42271 8.28938L11.9066 4.78938L11.0911 4.21062L8.60721 7.71062L9.42271 8.28938ZM11.9066 4.21062L9.42271 0.710622L8.60721 1.28938L11.0911 4.78938L11.9066 4.21062ZM11.4989 4L1.06641 4L1.06641 5L11.4989 5L11.4989 4Z" fill="#1F2226"/>
</svg>
