<svg width="16" height="15" viewBox="0 0 16 15" fill="none" xmlns="http://www.w3.org/2000/svg">
    <path d="M8 3.46245L7.27886 3.66849C7.37085 3.99047 7.66514 4.21245 8 4.21245C8.33486 4.21245 8.62915 3.99047 8.72114 3.66849L8 3.46245ZM8 12.7124C8.0236 12.7124 7.93149 12.7072 7.68247 12.6109C7.46168 12.5256 7.17694 12.3924 6.84861 12.2099C6.19234 11.8454 5.39614 11.3034 4.62908 10.6071C3.08029 9.20127 1.75 7.26244 1.75 4.96244H0.25C0.25 7.86245 1.91971 10.1736 3.62092 11.7178C4.47886 12.4965 5.37016 13.1045 6.12014 13.5212C6.49493 13.7294 6.84301 13.8946 7.14175 14.0101C7.41226 14.1146 7.7264 14.2124 8 14.2124V12.7124ZM1.75 4.96244C1.75 3.86815 2.07495 3.11687 2.51294 2.62562C2.95519 2.12958 3.56013 1.8451 4.21097 1.77C5.54743 1.6158 6.89942 2.34044 7.27886 3.66849L8.72114 3.25641C8.10058 1.08445 5.95257 0.0590979 4.03903 0.27989C3.06487 0.392293 2.10731 0.826564 1.39331 1.6274C0.675047 2.43302 0.25 3.55673 0.25 4.96244H1.75ZM8 14.2124C8.2736 14.2124 8.58774 14.1146 8.85825 14.0101C9.15699 13.8946 9.50507 13.7294 9.87986 13.5212C10.6298 13.1045 11.5211 12.4965 12.3791 11.7178C14.0803 10.1736 15.75 7.86245 15.75 4.96244H14.25C14.25 7.26244 12.9197 9.20127 11.3709 10.6071C10.6039 11.3034 9.80766 11.8454 9.15139 12.2099C8.82306 12.3924 8.53832 12.5256 8.31753 12.6109C8.06851 12.7072 7.9764 12.7124 8 12.7124V14.2124ZM15.75 4.96244C15.75 3.55673 15.325 2.43302 14.6067 1.6274C13.8927 0.826564 12.9351 0.392293 11.961 0.27989C10.0474 0.0590979 7.89942 1.08445 7.27886 3.25641L8.72114 3.66849C9.10058 2.34044 10.4526 1.6158 11.789 1.77C12.4399 1.8451 13.0448 2.12958 13.4871 2.62562C13.925 3.11687 14.25 3.86815 14.25 4.96244H15.75Z" fill="#EDBBD9"></path>
</svg>