<svg width="12" height="11" viewBox="0 0 12 11" fill="none" xmlns="http://www.w3.org/2000/svg">
<path d="M0 8H12V9H0V8Z" fill="#1F2226"/>
<path d="M7.75 9.75C7.05964 9.75 6.5 9.19036 6.5 8.5C6.5 7.80964 7.05964 7.25 7.75 7.25C8.44036 7.25 9 7.80964 9 8.5C9 9.19036 8.44036 9.75 7.75 9.75Z" fill="white" stroke="#1F2226"/>
<path d="M0 1.99999L12 2V2.99999L0 2.99999V1.99999Z" fill="#1F2226"/>
<path d="M4.25 3.75C3.55964 3.75 3 3.19036 3 2.5C3 1.80964 3.55964 1.25 4.25 1.25C4.94036 1.25 5.5 1.80964 5.5 2.5C5.5 3.19036 4.94036 3.75 4.25 3.75Z" fill="white" stroke="#1F2226"/>
</svg>
