<svg width="18" height="11" viewBox="0 0 18 11" fill="none" xmlns="http://www.w3.org/2000/svg">
<path fill-rule="evenodd" clip-rule="evenodd" d="M5.51834 4.71429V6.6H8.64803C8.52189 7.40929 7.70203 8.97286 5.51834 8.97286C3.63422 8.97286 2.09697 7.41714 2.09697 5.5C2.09697 3.58286 3.63422 2.02714 5.51834 2.02714C6.59048 2.02714 7.30786 2.48286 7.71779 2.87571L9.21563 1.43786C8.25386 0.542143 7.00829 0 5.51834 0C2.46749 0 0 2.45929 0 5.5C0 8.54071 2.46749 11 5.51834 11C8.70321 11 10.8159 8.76857 10.8159 5.62571C10.8159 5.26429 10.7765 4.98929 10.7292 4.71429H5.51834Z" fill="black"/>
<path fill-rule="evenodd" clip-rule="evenodd" d="M17.3423 4.71425H15.7656V3.14282H14.189V4.71425H12.6123V6.28568H14.189V7.85711H15.7656V6.28568H17.3423" fill="black"/>
</svg>
