<svg width="15" height="15" viewBox="0 0 15 15" fill="none" xmlns="http://www.w3.org/2000/svg">
<path d="M10.5314 0H4.46858C2.0046 0 0 2.0046 0 4.46858V10.5314C0 12.9954 2.0046 15 4.46858 15H10.5314C12.9954 15 15 12.9954 15 10.5314V4.46858C15 2.0046 12.9954 0 10.5314 0ZM13.491 10.5314C13.491 12.1659 12.1659 13.491 10.5314 13.491H4.46858C2.83406 13.491 1.509 12.1659 1.509 10.5314V4.46858C1.509 2.83404 2.83406 1.509 4.46858 1.509H10.5314C12.1659 1.509 13.491 2.83404 13.491 4.46858V10.5314Z" fill="#EDBBD9"/>
<path d="M7.5 3.62047C5.36082 3.62047 3.62047 5.36082 3.62047 7.49997C3.62047 9.63912 5.36082 11.3795 7.5 11.3795C9.63918 11.3795 11.3795 9.63915 11.3795 7.49997C11.3795 5.36079 9.63918 3.62047 7.5 3.62047ZM7.5 9.87053C6.19078 9.87053 5.12947 8.80922 5.12947 7.5C5.12947 6.19078 6.19081 5.12947 7.5 5.12947C8.80922 5.12947 9.87053 6.19078 9.87053 7.5C9.87053 8.80919 8.80919 9.87053 7.5 9.87053Z" fill="#EDBBD9"/>
<path d="M11.387 4.57921C11.9005 4.57921 12.3167 4.163 12.3167 3.64959C12.3167 3.13618 11.9005 2.71998 11.387 2.71998C10.8736 2.71998 10.4574 3.13618 10.4574 3.64959C10.4574 4.163 10.8736 4.57921 11.387 4.57921Z" fill="#EDBBD9"/>
</svg>
