<svg width="56" height="46" viewBox="0 0 56 46" fill="none" xmlns="http://www.w3.org/2000/svg">
<path d="M20.4209 14.1533C13.814 14.1533 12.0123 21.2302 14.4147 24.7687L27.6282 33.6149V18.8713C27.6282 17.102 24.1742 14.1533 20.4209 14.1533Z" fill="#EDBBD9"/>
<path d="M34.8356 14.1533C41.4425 14.1533 43.2442 21.2302 40.8418 24.7687L27.6282 33.6149V18.8713C27.6282 17.102 31.0823 14.1533 34.8356 14.1533Z" fill="#EDBBD9"/>
<path d="M0.75 44V15.7749L26.5364 1.46372C27.2155 1.08683 28.0409 1.08683 28.72 1.46372L54.5064 15.7749V44C54.5064 44.6904 53.9468 45.25 53.2564 45.25H2C1.30964 45.25 0.75 44.6904 0.75 44Z" stroke="#EDBBD9" stroke-width="1.5"/>
</svg>
