<svg width="14" height="13" viewBox="0 0 14 13" fill="none" xmlns="http://www.w3.org/2000/svg">
<path d="M1 4.32576C1 8.69024 6.03593 11.46 6.87525 11.46C7.71458 11.46 12.7505 8.69024 12.7505 4.32576C12.7505 0.12916 7.71458 0.129158 6.87525 3.06679C6.03593 0.129158 1 0.12916 1 4.32576Z" fill="#EDBBD9"/>
<path d="M6.87525 3.06679L6.15411 3.27283C6.2461 3.5948 6.54039 3.81679 6.87525 3.81679C7.21011 3.81679 7.5044 3.5948 7.5964 3.27283L6.87525 3.06679ZM6.87525 10.71C6.91894 10.71 6.85946 10.713 6.65219 10.6329C6.47313 10.5637 6.23923 10.4544 5.96739 10.3034C5.4241 10.0016 4.76347 9.55197 4.12696 8.97422C2.83927 7.80539 1.75 6.208 1.75 4.32576H0.25C0.25 6.80801 1.67869 8.77773 3.1188 10.0849C3.84619 10.7451 4.60192 11.2608 5.23892 11.6146C5.55723 11.7915 5.85446 11.9327 6.11146 12.032C6.34024 12.1205 6.62173 12.21 6.87525 12.21V10.71ZM1.75 4.32576C1.75 3.43232 2.0147 2.83167 2.35979 2.44461C2.70915 2.05276 3.18856 1.82603 3.70885 1.76599C4.78421 1.64191 5.85501 2.22597 6.15411 3.27283L7.5964 2.86075C7.05618 0.969978 5.18935 0.0852166 3.53691 0.275881C2.6933 0.373221 1.86127 0.749748 1.24017 1.44639C0.614793 2.14782 0.25 3.1209 0.25 4.32576H1.75ZM6.87525 12.21C7.12877 12.21 7.41027 12.1205 7.63904 12.032C7.89604 11.9327 8.19328 11.7915 8.51158 11.6146C9.14859 11.2608 9.90431 10.7451 10.6317 10.0849C12.0718 8.77773 13.5005 6.80801 13.5005 4.32576H12.0005C12.0005 6.208 10.9112 7.80539 9.62355 8.97422C8.98704 9.55197 8.32641 10.0016 7.78312 10.3034C7.51127 10.4544 7.27738 10.5637 7.09832 10.6329C6.89104 10.713 6.83156 10.71 6.87525 10.71V12.21ZM13.5005 4.32576C13.5005 3.1209 13.1357 2.14782 12.5103 1.44639C11.8892 0.749748 11.0572 0.373221 10.2136 0.275881C8.56116 0.0852166 6.69433 0.969978 6.15411 2.86075L7.5964 3.27283C7.8955 2.22597 8.96629 1.64191 10.0417 1.76599C10.5619 1.82603 11.0414 2.05276 11.3907 2.44461C11.7358 2.83167 12.0005 3.43232 12.0005 4.32576H13.5005Z" fill="#EDBBD9"/>
</svg>
