<svg width="33" height="24" viewBox="0 0 33 24" fill="none" xmlns="http://www.w3.org/2000/svg">
<path d="M31 12L31.5303 12.5303L32.0607 12L31.5303 11.4697L31 12ZM21.5303 1.46967L21 0.93934L19.9393 2L20.4697 2.53033L21.5303 1.46967ZM20.4697 21.4697L19.9393 22L21 23.0607L21.5303 22.5303L20.4697 21.4697ZM1 11.25H0.25V12.75H1V11.25ZM31.5303 11.4697L21.5303 1.46967L20.4697 2.53033L30.4697 12.5303L31.5303 11.4697ZM30.4697 11.4697L20.4697 21.4697L21.5303 22.5303L31.5303 12.5303L30.4697 11.4697ZM31 11.25H1V12.75H31V11.25Z" fill="#14171A"/>
</svg>
