<svg width="51" height="45" viewBox="0 0 51 45" fill="none" xmlns="http://www.w3.org/2000/svg">
<path d="M38 39.25H11C9.20507 39.25 7.75 37.7949 7.75 36V4C7.75 2.20508 9.20508 0.75 11 0.75H32.7149L41.25 8.3368V36C41.25 37.7949 39.7949 39.25 38 39.25Z" stroke="#1F2226" stroke-width="1.5"/>
<path d="M49.5 37H46.5V29.5H38.5V37H35.5L42.5 44L49.5 37Z" fill="white"/>
<path d="M46.5 37H45.75C45.75 37.4142 46.0858 37.75 46.5 37.75V37ZM49.5 37L50.0303 37.5303C50.2448 37.3158 50.309 36.9932 50.1929 36.713C50.0768 36.4327 49.8033 36.25 49.5 36.25V37ZM42.5 44L41.9697 44.5303C42.2626 44.8232 42.7374 44.8232 43.0303 44.5303L42.5 44ZM46.5 29.5H47.25C47.25 29.0858 46.9142 28.75 46.5 28.75V29.5ZM38.5 37V37.75C38.9142 37.75 39.25 37.4142 39.25 37H38.5ZM35.5 37V36.25C35.1967 36.25 34.9232 36.4327 34.8071 36.713C34.691 36.9932 34.7552 37.3158 34.9697 37.5303L35.5 37ZM38.5 29.5V28.75C38.0858 28.75 37.75 29.0858 37.75 29.5H38.5ZM46.5 37.75H49.5V36.25H46.5V37.75ZM48.9697 36.4697L41.9697 43.4697L43.0303 44.5303L50.0303 37.5303L48.9697 36.4697ZM47.25 37V29.5H45.75V37H47.25ZM38.5 36.25H35.5V37.75H38.5V36.25ZM34.9697 37.5303L41.9697 44.5303L43.0303 43.4697L36.0303 36.4697L34.9697 37.5303ZM39.25 37V29.5H37.75V37H39.25ZM46.5 28.75H38.5V30.25H46.5V28.75Z" fill="#1F2226"/>
<rect y="15" width="35" height="15" rx="3" fill="#EDBBD9"/>
<path d="M5.60574 26.07C5.37908 26.07 5.18574 25.9933 5.02574 25.84C4.86574 25.68 4.78574 25.48 4.78574 25.24C4.78574 24.9933 4.86241 24.7933 5.01574 24.64C5.17574 24.4867 5.37241 24.41 5.60574 24.41C5.83908 24.41 6.03241 24.4867 6.18574 24.64C6.34574 24.7933 6.42574 24.9933 6.42574 25.24C6.42574 25.48 6.34574 25.68 6.18574 25.84C6.02574 25.9933 5.83241 26.07 5.60574 26.07ZM11.1471 19C11.7538 19 12.2805 19.1 12.7271 19.3C13.1805 19.5 13.5271 19.7867 13.7671 20.16C14.0071 20.5333 14.1271 20.9767 14.1271 21.49C14.1271 21.9967 14.0071 22.44 13.7671 22.82C13.5271 23.1933 13.1805 23.48 12.7271 23.68C12.2805 23.88 11.7538 23.98 11.1471 23.98H9.56715V26H8.26715V19H11.1471ZM11.0871 22.88C11.6538 22.88 12.0838 22.76 12.3771 22.52C12.6705 22.28 12.8171 21.9367 12.8171 21.49C12.8171 21.0433 12.6705 20.7 12.3771 20.46C12.0838 20.22 11.6538 20.1 11.0871 20.1H9.56715V22.88H11.0871ZM15.9254 19H18.9854C19.732 19 20.3954 19.1467 20.9754 19.44C21.5554 19.7267 22.0054 20.1367 22.3254 20.67C22.6454 21.1967 22.8054 21.8067 22.8054 22.5C22.8054 23.1933 22.6454 23.8067 22.3254 24.34C22.0054 24.8667 21.5554 25.2767 20.9754 25.57C20.3954 25.8567 19.732 26 18.9854 26H15.9254V19ZM18.9254 24.9C19.4387 24.9 19.8887 24.8033 20.2754 24.61C20.6687 24.41 20.9687 24.13 21.1754 23.77C21.3887 23.4033 21.4954 22.98 21.4954 22.5C21.4954 22.02 21.3887 21.6 21.1754 21.24C20.9687 20.8733 20.6687 20.5933 20.2754 20.4C19.8887 20.2 19.4387 20.1 18.9254 20.1H17.2254V24.9H18.9254ZM25.9871 20.09V22.22H29.3671V23.32H25.9871V26H24.6871V19H29.7971V20.09H25.9871Z" fill="#1F2226"/>
</svg>
