<svg width="28" height="29" viewBox="0 0 28 29" fill="none" xmlns="http://www.w3.org/2000/svg">
<path d="M5.92695 28.8C1.99362 28.8 0.026954 25.7333 0.026954 19.6C0.026954 17.2667 0.493621 14.6 1.42695 11.6C2.36029 8.53333 3.49362 5.93333 4.82695 3.8C6.16029 1.66666 7.32695 0.599993 8.32695 0.599993C9.39362 0.599993 9.92695 1.39999 9.92695 3L7.02695 9.29999C5.36029 12.9667 4.46029 15.6333 4.32695 17.3C6.12695 16.5667 7.39362 16.2 8.12695 16.2C9.06029 16.2 9.86029 16.7667 10.527 17.9C11.1936 18.9667 11.527 20.3333 11.527 22C11.527 23.8667 10.9936 25.4667 9.92695 26.8C8.92695 28.1333 7.59362 28.8 5.92695 28.8ZM21.627 28C19.827 28 18.3936 26.9333 17.327 24.8C16.327 22.6667 15.827 20.1667 15.827 17.3C15.827 12.8333 18.0603 7.86666 22.527 2.39999C23.1936 1.86666 23.8603 1.59999 24.527 1.59999C25.727 1.59999 26.327 2.13333 26.327 3.2C26.327 3.73333 26.1936 4.23333 25.927 4.69999C23.1936 8.16666 21.5603 10.7667 21.027 12.5C20.5603 14.5 20.327 15.8333 20.327 16.5C20.327 17.2333 20.3936 18.0667 20.527 19C21.5936 18.4667 22.627 18.2 23.627 18.2C24.827 18.2 25.827 18.5333 26.627 19.2C27.4936 19.8667 27.927 20.7333 27.927 21.8C27.927 22.9333 27.1603 24.2667 25.627 25.8C24.0936 27.2667 22.7603 28 21.627 28Z" fill="#EDBBD9"/>
</svg>
