<svg width="16" height="13" viewBox="0 0 16 13" fill="none" xmlns="http://www.w3.org/2000/svg">
<path fill-rule="evenodd" clip-rule="evenodd" d="M7.63832 3.4582L7.67242 4.02049L7.10409 3.95164C5.03538 3.68771 3.2281 2.79264 1.69361 1.28938L0.943423 0.543493L0.750192 1.0943C0.340996 2.32216 0.602427 3.61886 1.45492 4.49098C1.90958 4.97294 1.80728 5.04179 1.02299 4.75491C0.750192 4.6631 0.511494 4.59425 0.488761 4.62868C0.409196 4.709 0.681993 5.75325 0.897957 6.16636C1.19349 6.74012 1.79591 7.30241 2.45517 7.63519L3.01213 7.89912L2.35287 7.9106C1.71635 7.9106 1.69361 7.92207 1.76181 8.16305C1.98914 8.90894 2.8871 9.70073 3.88736 10.045L4.59208 10.286L3.97829 10.6532C3.06897 11.181 2.00051 11.4794 0.932056 11.5023C0.420562 11.5138 0 11.5597 0 11.5941C0 11.7089 1.38672 12.3515 2.19374 12.604C4.61482 13.3499 7.49055 13.0286 9.65019 11.7548C11.1847 10.8483 12.7192 9.04665 13.4353 7.30241C13.8217 6.37291 14.2082 4.67458 14.2082 3.85984C14.2082 3.33198 14.2423 3.26312 14.8788 2.63199C15.2539 2.26478 15.6063 1.86315 15.6745 1.74839C15.7881 1.53036 15.7768 1.53036 15.1971 1.72544C14.2309 2.0697 14.0945 2.0238 14.5719 1.50741C14.9243 1.14021 15.3448 0.474642 15.3448 0.279563C15.3448 0.245137 15.1743 0.302513 14.9811 0.40579C14.7765 0.520543 14.3218 0.692671 13.9808 0.795948L13.3671 0.991027L12.8101 0.612345C12.5032 0.40579 12.0713 0.176285 11.8439 0.107434C11.2642 -0.0532193 10.3777 -0.0302688 9.85479 0.153335C8.43397 0.669721 7.53602 2.00085 7.63832 3.4582Z" fill="#1F2226"/>
</svg>
