<svg width="9" height="12" viewBox="0 0 9 12" fill="none" xmlns="http://www.w3.org/2000/svg">
<path d="M7.70938 3.90687L8.11625 4.19749L8.69749 3.38375L8.29062 3.09313L7.70938 3.90687ZM4.5 1L4.79062 0.593133C4.61677 0.468956 4.38323 0.468956 4.20938 0.593133L4.5 1ZM0.709382 3.09313L0.302515 3.38375L0.883753 4.19749L1.29062 3.90687L0.709382 3.09313ZM4 11.5L4 12L5 12L5 11.5L4 11.5ZM8.29062 3.09313L4.79062 0.593133L4.20938 1.40687L7.70938 3.90687L8.29062 3.09313ZM4.20938 0.593133L0.709382 3.09313L1.29062 3.90687L4.79062 1.40687L4.20938 0.593133ZM4 1L4 11.5L5 11.5L5 1L4 1Z" fill="#1F2226"/>
</svg>
