<svg width="13" height="15" viewBox="0 0 13 15" fill="none" xmlns="http://www.w3.org/2000/svg">
<path d="M12 14V14.75H12.75V14H12ZM0.75 14H0V14.75H0.75V14ZM1.5 14C1.5 11.7334 3.59713 9.75 6.375 9.75V8.25C2.93967 8.25 0 10.7438 0 14H1.5ZM6.375 9.75C9.15287 9.75 11.25 11.7334 11.25 14H12.75C12.75 10.7438 9.81033 8.25 6.375 8.25V9.75ZM0.75 14.75H12V13.25H0.75V14.75Z" fill="#1F2226"/>
<path d="M9 4C9 5.38071 7.88071 6.5 6.5 6.5C5.11929 6.5 4 5.38071 4 4C4 2.61929 5.11929 1.5 6.5 1.5C7.88071 1.5 9 2.61929 9 4Z" stroke="#1F2226" stroke-width="1.5" stroke-linecap="round" stroke-linejoin="round"/>
</svg>
