<svg width="18" height="13" viewBox="0 0 18 13" fill="none" xmlns="http://www.w3.org/2000/svg">
<path fill-rule="evenodd" clip-rule="evenodd" d="M16.6601 1.90975C16.4644 1.158 15.8878 0.566032 15.1556 0.365125C13.8288 0 8.50783 0 8.50783 0C8.50783 0 3.18686 0 1.85993 0.365125C1.12777 0.566032 0.551172 1.158 0.355492 1.90975C0 3.27222 0 6.115 0 6.115C0 6.115 0 8.95769 0.355492 10.3202C0.551172 11.072 1.12777 11.664 1.85993 11.865C3.18686 12.23 8.50783 12.23 8.50783 12.23C8.50783 12.23 13.8288 12.23 15.1556 11.865C15.8878 11.664 16.4644 11.072 16.6601 10.3202C17.0157 8.95769 17.0157 6.115 17.0157 6.115C17.0157 6.115 17.0157 3.27222 16.6601 1.90975Z" fill="#EDBBD9"/>
<path fill-rule="evenodd" clip-rule="evenodd" d="M6.91309 9.04029V3.7229L11.167 6.3817L6.91309 9.04029Z" fill="white"/>
</svg>
